<?xml version="1.0" encoding="UTF-8"?>
<!DOCTYPE svg PUBLIC "-//W3C//DTD SVG 1.1//EN" "http://www.w3.org/Graphics/SVG/1.1/DTD/svg11.dtd">
<svg xmlns="http://www.w3.org/2000/svg" version="1.1" width="1200px" height="1200px" style="shape-rendering:geometricPrecision; text-rendering:geometricPrecision; image-rendering:optimizeQuality; fill-rule:evenodd; clip-rule:evenodd" xmlns:xlink="http://www.w3.org/1999/xlink">
<g><path style="opacity:0.973" fill="#02466a" d="M 615.5,360.5 C 611.896,374.74 611.562,389.073 614.5,403.5C 613.576,549.833 613.076,696.166 613,842.5C 616.11,840.364 619.277,838.364 622.5,836.5C 627.394,834.227 631.727,831.227 635.5,827.5C 640.305,824.929 644.972,822.096 649.5,819C 651.894,817.048 653.394,814.548 654,811.5C 654.5,770.168 654.667,728.835 654.5,687.5C 654.5,682.167 654.5,676.833 654.5,671.5C 654.5,663.833 654.5,656.167 654.5,648.5C 638.348,646.164 627.848,637.164 623,621.5C 618.905,597.844 628.072,582.01 650.5,574C 656.491,573.501 662.491,573.334 668.5,573.5C 670.651,575.289 673.151,576.622 676,577.5C 676.399,577.272 676.565,576.938 676.5,576.5C 698.607,591.004 703.44,610.004 691,633.5C 686.876,638.467 682.042,642.467 676.5,645.5C 673.458,645.733 670.792,646.733 668.5,648.5C 667.167,648.5 665.833,648.5 664.5,648.5C 664.5,653.5 664.5,658.5 664.5,663.5C 664.5,669.167 664.5,674.833 664.5,680.5C 664.667,725.501 664.5,770.501 664,815.5C 662.383,819.897 659.883,823.731 656.5,827C 649.472,831.511 642.472,836.011 635.5,840.5C 630.635,842.763 626.302,845.763 622.5,849.5C 618.939,851.048 615.606,853.048 612.5,855.5C 611.167,878.167 611.167,900.833 612.5,923.5C 615.86,921.82 619.193,920.153 622.5,918.5C 627.027,916.405 631.361,914.072 635.5,911.5C 646.37,905.565 657.37,899.898 668.5,894.5C 671.54,893.32 674.206,891.653 676.5,889.5C 696.167,879.5 715.833,869.5 735.5,859.5C 736.797,864.066 736.797,868.733 735.5,873.5C 715.963,883.769 696.296,893.769 676.5,903.5C 673.46,904.68 670.794,906.347 668.5,908.5C 657.343,913.911 646.343,919.578 635.5,925.5C 630.68,927.074 626.347,929.407 622.5,932.5C 619.193,934.153 615.86,935.82 612.5,937.5C 610.997,996.824 610.33,1056.16 610.5,1115.5C 606.167,1115.5 601.833,1115.5 597.5,1115.5C 597.833,1076.83 597.5,1038.16 596.5,999.5C 593.805,997.822 591.139,996.156 588.5,994.5C 584.342,991.586 580.009,988.919 575.5,986.5C 572.661,984.58 569.661,982.913 566.5,981.5C 566.5,976.5 566.5,971.5 566.5,966.5C 569.339,968.42 572.339,970.087 575.5,971.5C 575.953,972.458 576.619,973.292 577.5,974C 580.91,976.372 584.577,978.205 588.5,979.5C 591.102,981.142 593.769,982.808 596.5,984.5C 597.327,980.541 597.827,976.541 598,972.5C 598.535,862.327 599.369,752.161 600.5,642C 600.167,639.167 599.833,636.333 599.5,633.5C 595.931,631.547 592.264,629.881 588.5,628.5C 584.705,625.095 580.372,622.429 575.5,620.5C 561.397,613.615 547.397,606.448 533.5,599C 528.692,595.211 525.525,590.378 524,584.5C 523.5,574.172 523.334,563.839 523.5,553.5C 523.5,548.167 523.5,542.833 523.5,537.5C 523.5,528.5 523.5,519.5 523.5,510.5C 495.135,507.304 476.468,492.138 467.5,465C 460.021,429.629 472.354,403.962 504.5,388C 535.267,377.925 560.767,385.425 581,410.5C 596.729,436.27 596.062,461.604 579,486.5C 567.257,500.955 552.09,508.955 533.5,510.5C 533.5,521.833 533.5,533.167 533.5,544.5C 533.5,549.833 533.5,555.167 533.5,560.5C 533.334,567.508 533.5,574.508 534,581.5C 534.964,585.468 537.131,588.635 540.5,591C 552.22,596.86 563.886,602.693 575.5,608.5C 579.295,611.905 583.628,614.571 588.5,616.5C 592.264,617.881 595.931,619.547 599.5,621.5C 600.724,516.167 601.724,410.833 602.5,305.5C 563.353,303.518 533.187,286.185 512,253.5C 491.26,216.72 490.26,179.387 509,141.5C 535.339,98.2488 573.839,79.4154 624.5,85C 673.253,95.0864 703.753,124.253 716,172.5C 723.529,219.267 708.696,257.101 671.5,286C 654.619,297.572 635.952,304.072 615.5,305.5C 615.5,323.833 615.5,342.167 615.5,360.5 Z M 533.5,560.5 C 547.573,568.621 561.073,577.621 574,587.5C 575.384,594.411 575.884,601.411 575.5,608.5C 563.886,602.693 552.22,596.86 540.5,591C 537.131,588.635 534.964,585.468 534,581.5C 533.5,574.508 533.334,567.508 533.5,560.5 Z M 654.5,687.5 C 654.667,728.835 654.5,770.168 654,811.5C 653.394,814.548 651.894,817.048 649.5,819C 644.972,822.096 640.305,824.929 635.5,827.5C 635.333,786.165 635.5,744.832 636,703.5C 636.7,699.934 638.533,697.1 641.5,695C 645.888,692.477 650.222,689.977 654.5,687.5 Z"/></g>
<g><path style="opacity:1" fill="#f8fafb" d="M 599.5,141.5 C 612.396,139.734 622.563,144.068 630,154.5C 631.167,153.333 632.333,152.167 633.5,151C 653.178,149.679 662.678,158.846 662,178.5C 658.829,189.339 651.662,195.506 640.5,197C 665.502,200.326 678.002,214.492 678,239.5C 675.847,241.444 673.347,241.944 670.5,241C 669.333,224.989 661.333,213.989 646.5,208C 643.167,207.333 639.833,207.333 636.5,208C 645.077,215.325 650.41,224.492 652.5,235.5C 656.308,235.163 659.974,235.663 663.5,237C 664.576,238.726 664.743,240.559 664,242.5C 660.344,243.969 656.511,244.969 652.5,245.5C 649.423,249.462 646.256,249.462 643,245.5C 641.909,222.411 629.909,209.744 607,207.5C 583.576,209.258 571.243,221.925 570,245.5C 566.744,249.462 563.577,249.462 560.5,245.5C 556.489,244.969 552.656,243.969 549,242.5C 548.244,240.191 548.744,238.191 550.5,236.5C 553.758,235.583 557.091,235.249 560.5,235.5C 562.609,224.448 567.942,215.281 576.5,208C 562.308,207.188 552.475,213.355 547,226.5C 546.161,231.227 545.161,235.894 544,240.5C 541.084,242.013 538.418,241.68 536,239.5C 535.165,218.695 544.665,204.862 564.5,198C 567.167,197.667 569.833,197.333 572.5,197C 555.967,192.776 549.467,182.276 553,165.5C 558.734,154.089 567.901,149.256 580.5,151C 581.354,152.022 582.354,152.855 583.5,153.5C 588.001,148.324 593.335,144.324 599.5,141.5 Z"/></g>
<g><path style="opacity:1" fill="#09486c" d="M 601.5,151.5 C 619.554,151.719 625.721,160.386 620,177.5C 607.429,188.399 597.429,186.399 590,171.5C 589.041,161.983 592.875,155.316 601.5,151.5 Z"/></g>
<g><path style="opacity:1" fill="#0b496c" d="M 570.5,160.5 C 573.833,160.5 577.167,160.5 580.5,160.5C 578.361,168.794 579.695,176.461 584.5,183.5C 575.624,188.691 568.457,187.025 563,178.5C 560.856,170.465 563.356,164.465 570.5,160.5 Z"/></g>
<g><path style="opacity:1" fill="#0d4a6d" d="M 632.5,160.5 C 646.208,159.043 652.375,165.043 651,178.5C 646.026,186.576 639.193,188.576 630.5,184.5C 625.31,186.684 625.143,185.684 630,181.5C 633.502,174.816 634.335,167.816 632.5,160.5 Z"/></g>
<g><path style="opacity:1" fill="#174f71" d="M 624.5,187.5 C 625.269,189.667 626.269,191.834 627.5,194C 630.089,195.197 632.756,196.197 635.5,197C 631.848,197.152 629.514,198.986 628.5,202.5C 613.798,195.904 599.131,195.904 584.5,202.5C 583.61,199.443 581.61,197.609 578.5,197C 581.167,196 583.833,195 586.5,194C 587.717,192.352 588.55,190.519 589,188.5C 598.11,195.081 607.943,196.248 618.5,192C 620.747,190.723 622.747,189.223 624.5,187.5 Z"/></g>
<g><path style="opacity:1" fill="#f8f9fa" d="M 580.5,241.5 C 597.503,241.333 614.503,241.5 631.5,242C 635.085,244.528 635.418,247.528 632.5,251C 614.833,251.667 597.167,251.667 579.5,251C 576.675,247.476 577.008,244.31 580.5,241.5 Z"/></g>
<g><path style="opacity:0.968" fill="#03aeef" d="M 523.5,537.5 C 523.5,542.833 523.5,548.167 523.5,553.5C 505.385,542.558 487.385,531.391 469.5,520C 464.212,516.768 459.378,512.935 455,508.5C 453.107,505.382 451.774,502.049 451,498.5C 450.833,458.829 450.333,419.162 449.5,379.5C 426.017,374.849 410.517,361.182 403,338.5C 397.221,310.805 406.055,289.305 429.5,274C 456.634,261.58 480.467,266.08 501,287.5C 517.898,312.045 517.565,336.378 500,360.5C 490.526,371.155 478.693,377.488 464.5,379.5C 463.333,417.829 463.167,456.162 464,494.5C 464.616,497.787 466.116,500.621 468.5,503C 486.861,514.511 505.195,526.011 523.5,537.5 Z"/></g>
<g><path style="opacity:0.978" fill="#569342" d="M 863.5,568.5 C 860.16,572.839 856.826,577.172 853.5,581.5C 853.5,563.833 853.5,546.167 853.5,528.5C 812.505,524.006 787.339,501.672 778,461.5C 777.501,467.157 777.334,472.824 777.5,478.5C 774.503,474.509 771.503,470.509 768.5,466.5C 768.833,437.159 768.5,407.826 767.5,378.5C 739.966,372.124 727.133,354.791 729,326.5C 736.42,298.428 754.587,286.262 783.5,290C 809.198,298.534 820.364,316.368 817,343.5C 811.495,363.84 798.328,375.506 777.5,378.5C 777.333,396.503 777.5,414.503 778,432.5C 785.641,397.526 806.808,375.693 841.5,367C 879.728,361.038 909.228,374.204 930,406.5C 948.32,445.467 942.154,479.967 911.5,510C 897.571,521.368 881.571,527.535 863.5,528.5C 863.5,541.833 863.5,555.167 863.5,568.5 Z"/></g>
<g><path style="opacity:1" fill="#f9fdfe" d="M 427.5,293.5 C 436.506,293.334 445.506,293.5 454.5,294C 457.737,297.972 459.737,302.472 460.5,307.5C 448.833,307.5 437.167,307.5 425.5,307.5C 425.033,302.6 425.699,297.933 427.5,293.5 Z"/></g>
<g><path style="opacity:1" fill="#37b6f0" d="M 430.5,297.5 C 438.167,297.5 445.833,297.5 453.5,297.5C 453.5,298.833 453.5,300.167 453.5,301.5C 445.5,301.5 437.5,301.5 429.5,301.5C 429.433,300.041 429.766,298.708 430.5,297.5 Z"/></g>
<g><path style="opacity:1" fill="#f8faf7" d="M 749.5,309.5 C 765.17,309.333 780.837,309.5 796.5,310C 797.654,321.424 797.82,332.924 797,344.5C 794.519,346.314 791.685,346.98 788.5,346.5C 788.665,349.85 788.498,353.183 788,356.5C 786.301,357.406 784.467,357.739 782.5,357.5C 782.5,353.833 782.5,350.167 782.5,346.5C 776.5,346.5 770.5,346.5 764.5,346.5C 764.665,349.85 764.498,353.183 764,356.5C 762,357.833 760,357.833 758,356.5C 757.501,352.848 757.335,349.182 757.5,345.5C 754.552,345.777 751.719,345.444 749,344.5C 748.209,332.787 748.376,321.121 749.5,309.5 Z"/></g>
<g><path style="opacity:1" fill="#fcfefe" d="M 426.5,312.5 C 447.925,312.022 469.258,312.522 490.5,314C 491,314.5 491.5,315 492,315.5C 492.167,321.167 492.333,326.833 492.5,332.5C 492.627,338.937 492.127,345.27 491,351.5C 490.25,352.126 489.416,352.626 488.5,353C 468.123,353.821 447.79,353.655 427.5,352.5C 426.808,351.975 426.308,351.308 426,350.5C 425.188,337.758 425.354,325.091 426.5,312.5 Z"/></g>
<g><path style="opacity:1" fill="#60994d" d="M 760.5,316.5 C 768.656,315.343 776.99,315.177 785.5,316C 781.333,319.5 777.167,323 773,326.5C 768.959,322.953 764.792,319.62 760.5,316.5 Z"/></g>
<g><path style="opacity:1" fill="#20b3f0" d="M 432.5,318.5 C 450.17,318.333 467.836,318.5 485.5,319C 486.406,320.699 486.739,322.533 486.5,324.5C 468.497,324.667 450.497,324.5 432.5,324C 431.248,322.172 431.248,320.339 432.5,318.5 Z"/></g>
<g><path style="opacity:1" fill="#599545" d="M 755.5,320.5 C 760.627,324.455 765.627,328.622 770.5,333C 772.167,333.667 773.833,333.667 775.5,333C 780.354,328.645 785.354,324.478 790.5,320.5C 791.496,326.798 791.83,333.132 791.5,339.5C 779.5,339.5 767.5,339.5 755.5,339.5C 755.5,333.167 755.5,326.833 755.5,320.5 Z"/></g>
<g><path style="opacity:0.982" fill="#569342" d="M 676.5,478.5 C 673.218,485.708 670.551,493.041 668.5,500.5C 668.5,481.833 668.5,463.167 668.5,444.5C 642.346,441.322 624.346,427.655 614.5,403.5C 611.562,389.073 611.896,374.74 615.5,360.5C 635.743,324.259 665.076,314.426 703.5,331C 730.526,349.743 739.026,374.909 729,406.5C 718.887,429.312 701.387,441.979 676.5,444.5C 676.5,455.833 676.5,467.167 676.5,478.5 Z"/></g>
<g><path style="opacity:0.987" fill="#569342" d="M 335.5,551.5 C 332.497,556.841 329.497,562.175 326.5,567.5C 326.5,552.5 326.5,537.5 326.5,522.5C 285.754,518.914 257.587,498.247 242,460.5C 228.8,415.775 240.3,378.942 276.5,350C 303.998,332.294 333.331,328.627 364.5,339C 410.731,359.966 430.564,395.8 424,446.5C 414.802,484.736 391.302,509.236 353.5,520C 347.539,521.162 341.539,521.995 335.5,522.5C 335.5,532.167 335.5,541.833 335.5,551.5 Z"/></g>
<g><path style="opacity:1" fill="#f8faf7" d="M 688.5,347.5 C 703.19,346.017 708.69,352.35 705,366.5C 699.093,373.01 692.426,374.01 685,369.5C 680.613,371.277 676.446,373.443 672.5,376C 672.763,381.003 672.429,386.17 671.5,391.5C 676.064,393.528 680.564,395.861 685,398.5C 694.543,391.921 701.876,393.921 707,404.5C 707.594,416.123 702.094,421.29 690.5,420C 687.898,419.117 685.731,417.617 684,415.5C 682.269,411.332 681.102,406.998 680.5,402.5C 676.5,400.167 672.5,397.833 668.5,395.5C 656.456,404.656 646.622,402.656 639,389.5C 637.006,373.162 644.173,365.662 660.5,367C 663.621,367.726 666.287,369.226 668.5,371.5C 672.5,369.167 676.5,366.833 680.5,364.5C 679.768,357.076 682.435,351.41 688.5,347.5 Z"/></g>
<g><path style="opacity:1" fill="#f4f8f3" d="M 771.5,347.5 C 773.144,347.286 774.644,347.62 776,348.5C 776.777,351.429 776.61,354.263 775.5,357C 770,357.557 768.167,355.057 770,349.5C 770.717,348.956 771.217,348.289 771.5,347.5 Z"/></g>
<g><path style="opacity:1" fill="#5f984c" d="M 692.5,352.5 C 698.656,352.487 701.49,355.487 701,361.5C 696.99,367.644 692.656,367.977 688,362.5C 687.077,358.017 688.577,354.683 692.5,352.5 Z"/></g>
<g><path style="opacity:1" fill="#f4f8f2" d="M 771.5,359.5 C 772.93,359.421 774.264,359.754 775.5,360.5C 776.783,363.372 776.783,366.205 775.5,369C 773.559,369.743 771.726,369.576 770,368.5C 769.068,365.177 769.568,362.177 771.5,359.5 Z"/></g>
<g><path style="opacity:1" fill="#f8fbf8" d="M 355.5,370.5 C 357.655,370.372 359.655,370.872 361.5,372C 367,377.5 372.5,383 378,388.5C 378.667,390.5 378.667,392.5 378,394.5C 369.833,402.667 361.667,410.833 353.5,419C 351.5,419.667 349.5,419.667 347.5,419C 345.599,416.387 343.265,414.72 340.5,414C 339.483,415.049 339.316,416.216 340,417.5C 341.833,419.333 343.667,421.167 345.5,423C 336.667,427.833 329.833,434.667 325,443.5C 323.167,441.667 321.333,439.833 319.5,438C 316.866,437.075 315.699,437.909 316,440.5C 317.667,442.167 319.333,443.833 321,445.5C 321.667,447.5 321.667,449.5 321,451.5C 312.833,459.667 304.667,467.833 296.5,476C 294.5,476.667 292.5,476.667 290.5,476C 285,470.5 279.5,465 274,459.5C 272,456.833 272,454.167 274,451.5C 281.863,443.302 290.03,435.469 298.5,428C 300.167,427.333 301.833,427.333 303.5,428C 305.727,430.935 308.394,432.935 311.5,434C 312.167,433.333 312.833,432.667 313.5,432C 312.333,430.833 311.167,429.667 310,428.5C 308.333,424.167 306.667,419.833 305,415.5C 302.839,406.338 306.339,402.171 315.5,403C 319.392,404.64 323.392,405.973 327.5,407C 330.102,407.883 332.269,409.383 334,411.5C 334.833,410.667 335.667,409.833 336.5,409C 334.333,406.833 332.167,404.667 330,402.5C 329.245,399.697 329.578,397.03 331,394.5C 339.062,386.27 347.228,378.27 355.5,370.5 Z"/></g>
<g><path style="opacity:1" fill="#639b50" d="M 650.5,372.5 C 663.045,370.877 668.212,376.21 666,388.5C 661.63,395.7 655.797,397.2 648.5,393C 641.465,385.385 642.131,378.552 650.5,372.5 Z"/></g>
<g><path style="opacity:1" fill="#f8faf7" d="M 652.5,374.5 C 660.986,374.151 664.82,378.151 664,386.5C 661.571,391.202 657.738,393.035 652.5,392C 644.555,386.17 644.555,380.336 652.5,374.5 Z"/></g>
<g><path style="opacity:1" fill="#5a9547" d="M 357.5,378.5 C 360.001,378.826 361.168,380.159 361,382.5C 354,389.5 347,396.5 340,403.5C 338.833,402.333 337.667,401.167 336.5,400C 343.703,392.965 350.703,385.798 357.5,378.5 Z"/></g>
<g><path style="opacity:1" fill="#669d53" d="M 361.5,383.5 C 364.524,383.364 366.024,384.698 366,387.5C 359,394.5 352,401.5 345,408.5C 343.017,407.234 342.017,405.568 342,403.5C 348.703,396.965 355.203,390.298 361.5,383.5 Z"/></g>
<g><path style="opacity:1" fill="#5a9547" d="M 367.5,387.5 C 368.962,388.458 370.295,389.624 371.5,391C 364.5,398 357.5,405 350.5,412C 348,412.167 346.833,411 347,408.5C 354.036,401.632 360.869,394.632 367.5,387.5 Z"/></g>
<g><path style="opacity:1" fill="#5c9648" d="M 691.5,400.5 C 698.88,400.043 701.713,403.376 700,410.5C 695.951,415.818 691.951,415.818 688,410.5C 686.581,406.082 687.748,402.749 691.5,400.5 Z"/></g>
<g><path style="opacity:1" fill="#fcfdfc" d="M 841.5,401.5 C 845.902,401.228 850.235,401.561 854.5,402.5C 855.333,403.5 856.167,404.5 857,405.5C 857.863,408.959 859.03,412.293 860.5,415.5C 863.136,416.971 865.636,418.637 868,420.5C 872.009,418.444 876.176,418.111 880.5,419.5C 882.935,422.595 884.935,425.928 886.5,429.5C 885.003,433.82 882.503,437.487 879,440.5C 878.667,444.167 878.333,447.833 878,451.5C 874.942,451.763 871.775,451.93 868.5,452C 862.325,456.78 862.158,461.613 868,466.5C 868.808,468.579 868.641,470.579 867.5,472.5C 864.684,471.87 862.018,472.536 859.5,474.5C 858.317,478.551 856.65,482.385 854.5,486C 849.833,486.667 845.167,486.667 840.5,486C 838.545,482.636 836.879,479.136 835.5,475.5C 832.727,474.03 829.894,472.697 827,471.5C 823.692,473.385 820.192,474.219 816.5,474C 812.797,471.151 810.13,467.651 808.5,463.5C 809.517,459.132 811.35,455.132 814,451.5C 814.667,448.167 814.667,444.833 814,441.5C 810.962,438.797 808.295,435.797 806,432.5C 805.756,427.636 807.256,423.303 810.5,419.5C 815.417,418.249 820.25,418.582 825,420.5C 828.335,417.665 832.002,415.331 836,413.5C 836.981,409.032 838.815,405.032 841.5,401.5 Z"/></g>
<g><path style="opacity:1" fill="#f5f8f9" d="M 521.5,414.5 C 538.914,411.865 550.247,418.865 555.5,435.5C 574.035,442.588 578.535,454.922 569,472.5C 564.845,476.324 560.012,478.824 554.5,480C 535.102,480.962 515.768,480.629 496.5,479C 485.266,473.679 481.1,464.845 484,452.5C 487.844,444.831 494.01,440.497 502.5,439.5C 503.782,427.248 510.115,418.915 521.5,414.5 Z"/></g>
<g><path style="opacity:1" fill="#06476b" d="M 524.5,421.5 C 538.336,421.172 546.169,427.839 548,441.5C 553.211,442.964 558.044,445.297 562.5,448.5C 568.778,458.837 566.444,466.671 555.5,472C 537.167,472.667 518.833,472.667 500.5,472C 491.614,467.731 489.448,461.231 494,452.5C 498.916,447.28 504.75,446.113 511.5,449C 515.942,452.747 518.609,457.413 519.5,463C 524.992,463.486 526.825,460.986 525,455.5C 522.901,448.402 518.401,443.568 511.5,441C 510.903,439.938 510.57,438.772 510.5,437.5C 512.027,429.313 516.694,423.979 524.5,421.5 Z"/></g>
<g><path style="opacity:1" fill="#fafcfa" d="M 353.5,423.5 C 374.326,422.118 378.326,429.784 365.5,446.5C 363.288,447.047 361.621,446.047 360.5,443.5C 362.726,440.381 364.393,437.048 365.5,433.5C 364.127,433.343 362.793,433.51 361.5,434C 350.358,441.432 341.358,450.932 334.5,462.5C 335.167,462.833 335.833,463.167 336.5,463.5C 339.778,462.057 342.945,460.391 346,458.5C 348.257,459.225 349.591,460.558 350,462.5C 332.267,476.751 324.267,472.751 326,450.5C 331.082,437.25 340.249,428.25 353.5,423.5 Z"/></g>
<g><path style="opacity:1" fill="#629a4f" d="M 840.5,428.5 C 855.285,427.121 862.451,433.788 862,448.5C 857.933,457.952 850.767,461.785 840.5,460C 829.411,453.996 826.911,445.496 833,434.5C 835.114,431.879 837.614,429.879 840.5,428.5 Z"/></g>
<g><path style="opacity:1" fill="#fbfcfa" d="M 842.5,431.5 C 856.99,432.148 861.49,439.148 856,452.5C 847.569,459.82 840.236,458.82 834,449.5C 831.76,440.983 834.594,434.983 842.5,431.5 Z"/></g>
<g><path style="opacity:1" fill="#5a9647" d="M 300.5,435.5 C 303.001,435.826 304.168,437.159 304,439.5C 297,446.5 290,453.5 283,460.5C 281.833,459.333 280.667,458.167 279.5,457C 286.703,449.965 293.703,442.798 300.5,435.5 Z"/></g>
<g><path style="opacity:1" fill="#669d53" d="M 304.5,440.5 C 307.524,440.364 309.024,441.698 309,444.5C 302,451.5 295,458.5 288,465.5C 286.017,464.234 285.017,462.568 285,460.5C 291.703,453.965 298.203,447.298 304.5,440.5 Z"/></g>
<g><path style="opacity:1" fill="#fafcfa" d="M 885.5,444.5 C 888.572,444.183 891.572,444.516 894.5,445.5C 894.949,449.951 897.283,452.951 901.5,454.5C 907.287,451.957 910.621,453.79 911.5,460C 909.703,462.796 908.369,465.796 907.5,469C 908.546,472.429 909.879,475.762 911.5,479C 910.97,481.207 909.97,483.207 908.5,485C 905.047,485.25 901.714,484.917 898.5,484C 896.583,486.498 894.916,489.165 893.5,492C 886.994,494.32 883.661,492.153 883.5,485.5C 881.516,485.617 879.85,484.95 878.5,483.5C 874.296,486.574 870.796,485.908 868,481.5C 868.338,477.623 869.171,473.79 870.5,470C 869.647,466.295 867.981,462.961 865.5,460C 867.103,454.132 870.769,452.299 876.5,454.5C 878.63,453.533 880.63,452.366 882.5,451C 883.406,448.779 884.406,446.612 885.5,444.5 Z"/></g>
<g><path style="opacity:1" fill="#5a9547" d="M 310.5,444.5 C 311.962,445.458 313.295,446.624 314.5,448C 307.5,455 300.5,462 293.5,469C 291,469.167 289.833,468 290,465.5C 297.036,458.632 303.869,451.632 310.5,444.5 Z"/></g>
<g><path style="opacity:1" fill="#f4f8f3" d="M 350.5,445.5 C 354.839,446.995 358.173,449.829 360.5,454C 366.408,454.546 367.741,457.213 364.5,462C 360.248,463.414 357.748,461.914 357,457.5C 354.333,455.5 351.667,453.5 349,451.5C 348.252,449.16 348.752,447.16 350.5,445.5 Z"/></g>
<g><path style="opacity:0.974" fill="#04aeee" d="M 768.5,466.5 C 771.503,470.509 774.503,474.509 777.5,478.5C 789.491,499.129 789.491,519.796 777.5,540.5C 774.016,544.134 771.016,548.134 768.5,552.5C 759.151,561.006 748.151,566.006 735.5,567.5C 735.667,586.503 735.5,605.503 735,624.5C 733.941,631.784 730.441,637.617 724.5,642C 708.641,652.427 692.641,662.594 676.5,672.5C 676.5,667.167 676.5,661.833 676.5,656.5C 691.401,647.464 705.901,637.797 720,627.5C 721.144,617.428 721.644,607.261 721.5,597C 721.333,587.5 721.167,578 721,568.5C 702.123,565.432 687.29,556.099 676.5,540.5C 672.79,532.043 670.123,523.377 668.5,514.5C 668.5,509.833 668.5,505.167 668.5,500.5C 670.551,493.041 673.218,485.708 676.5,478.5C 698.324,449.712 725.657,443.212 758.5,459C 761.71,461.717 765.044,464.217 768.5,466.5 Z"/></g>
<g><path style="opacity:1" fill="#f5f9f4" d="M 372.5,453.5 C 374.5,453.5 376.5,453.5 378.5,453.5C 377.854,466.813 370.854,473.813 357.5,474.5C 357.5,472.5 357.5,470.5 357.5,468.5C 366.515,467.485 371.515,462.485 372.5,453.5 Z"/></g>
<g><path style="opacity:1" fill="#f5f9f4" d="M 383.5,453.5 C 385.5,453.5 387.5,453.5 389.5,453.5C 388.015,473.252 377.348,483.586 357.5,484.5C 357.5,482.5 357.5,480.5 357.5,478.5C 373.018,477.316 381.684,468.983 383.5,453.5 Z"/></g>
<g><path style="opacity:1" fill="#669d53" d="M 884.5,459.5 C 894.659,458.158 898.826,462.491 897,472.5C 890.306,479.66 884.639,478.993 880,470.5C 879.333,468.833 879.333,467.167 880,465.5C 881.332,463.34 882.832,461.34 884.5,459.5 Z"/></g>
<g><path style="opacity:1" fill="#f7faf6" d="M 885.5,461.5 C 893.33,460.495 896.496,463.828 895,471.5C 890.295,476.964 885.962,476.631 882,470.5C 881.333,468.833 881.333,467.167 882,465.5C 883.376,464.295 884.542,462.962 885.5,461.5 Z"/></g>
<g><path style="opacity:1" fill="#fbfdfe" d="M 717.5,481.5 C 736.266,479.645 752.599,484.978 766.5,497.5C 764.5,500.167 762.167,502.5 759.5,504.5C 737.936,487.23 716.436,487.23 695,504.5C 692.216,502.72 689.716,500.553 687.5,498C 695.982,489.595 705.982,484.095 717.5,481.5 Z"/></g>
<g><path style="opacity:1" fill="#f9fdfe" d="M 720.5,501.5 C 732.721,500.518 743.388,504.018 752.5,512C 750,514.5 747.5,517 745,519.5C 732.981,508.84 720.981,508.84 709,519.5C 706.065,517.273 704.065,514.606 703,511.5C 708.239,506.969 714.072,503.635 720.5,501.5 Z"/></g>
<g><path style="opacity:0.961" fill="#559244" d="M 668.5,514.5 C 670.123,523.377 672.79,532.043 676.5,540.5C 676.5,552.5 676.5,564.5 676.5,576.5C 676.565,576.938 676.399,577.272 676,577.5C 673.151,576.622 670.651,575.289 668.5,573.5C 668.5,553.833 668.5,534.167 668.5,514.5 Z"/></g>
<g><path style="opacity:1" fill="#f9fdfe" d="M 721.5,522.5 C 725.182,522.335 728.848,522.501 732.5,523C 734.555,523.687 736.221,524.854 737.5,526.5C 734.182,530.318 730.682,533.985 727,537.5C 723.318,533.985 719.818,530.318 716.5,526.5C 718.21,525.113 719.877,523.779 721.5,522.5 Z"/></g>
<g><path style="opacity:0.981" fill="#03466a" d="M 393.5,755.5 C 388.976,753.957 384.976,751.623 381.5,748.5C 381.5,717.833 381.5,687.167 381.5,656.5C 362.809,654.822 347.475,646.822 335.5,632.5C 332.756,626.678 329.756,621.012 326.5,615.5C 321.168,599.517 321.168,583.517 326.5,567.5C 329.497,562.175 332.497,556.841 335.5,551.5C 359.356,525.696 387.356,520.196 419.5,535C 447.633,553.717 457.466,579.55 449,612.5C 439.213,638.117 420.713,652.783 393.5,656.5C 393.5,689.5 393.5,722.5 393.5,755.5 Z"/></g>
<g><path style="opacity:0.948" fill="#569342" d="M 777.5,540.5 C 777.333,596.501 777.5,652.501 778,708.5C 800,734.833 800,761.167 778,787.5C 777.333,794.5 777.333,801.5 778,808.5C 788.754,802.539 799.587,796.706 810.5,791C 816.529,788.309 820.362,783.809 822,777.5C 822.5,770.174 822.666,762.841 822.5,755.5C 810.197,752.856 803.53,745.19 802.5,732.5C 805.376,713.897 816.042,706.397 834.5,710C 850.244,718.368 854.077,730.535 846,746.5C 842.077,751.709 836.91,754.709 830.5,755.5C 830.666,764.506 830.5,773.506 830,782.5C 828.3,788.4 824.8,792.9 819.5,796C 805.992,803.588 792.326,810.921 778.5,818C 777.524,824.076 777.19,830.242 777.5,836.5C 775.054,839.231 772.054,841.231 768.5,842.5C 768.666,836.158 768.5,829.825 768,823.5C 760.333,827.833 752.667,832.167 745,836.5C 744.501,842.491 744.334,848.491 744.5,854.5C 744.5,859.167 744.5,863.833 744.5,868.5C 744.667,881.171 744.5,893.838 744,906.5C 742.745,912.843 739.579,918.01 734.5,922C 715.331,933.75 696.331,945.75 677.5,958C 676.361,963.416 676.194,968.916 677,974.5C 706.5,956.751 735.834,938.751 765,920.5C 766,918.5 767,916.5 768,914.5C 768.5,895.17 768.667,875.836 768.5,856.5C 771.179,854.399 774.012,852.399 777,850.5C 777.399,850.728 777.565,851.062 777.5,851.5C 777.333,862.505 777.5,873.505 778,884.5C 801.246,872.461 824.412,860.294 847.5,848C 850.106,846.062 851.939,843.562 853,840.5C 853.5,830.839 853.666,821.172 853.5,811.5C 856.364,808.986 859.698,807.32 863.5,806.5C 863.667,817.838 863.5,829.172 863,840.5C 861.745,846.843 858.579,852.01 853.5,856C 828.657,869.255 803.657,882.255 778.5,895C 777.683,902.754 777.183,910.588 777,918.5C 775.46,922.419 773.293,925.919 770.5,929C 739.333,948.167 708.167,967.333 677,986.5C 676.5,1029.5 676.333,1072.5 676.5,1115.5C 673.833,1115.5 671.167,1115.5 668.5,1115.5C 668.667,1074.17 668.5,1032.83 668,991.5C 662.06,993.773 657.727,997.773 655,1003.5C 654.5,1040.83 654.333,1078.17 654.5,1115.5C 651.167,1115.5 647.833,1115.5 644.5,1115.5C 644.333,1078.5 644.5,1041.5 645,1004.5C 645.973,997.719 649.14,992.219 654.5,988C 659.253,985.542 663.753,982.708 668,979.5C 668.5,955.836 668.667,932.169 668.5,908.5C 670.794,906.347 673.46,904.68 676.5,903.5C 676.333,918.504 676.5,933.504 677,948.5C 695.333,936.5 713.667,924.5 732,912.5C 733.439,910.725 734.439,908.725 735,906.5C 735.5,895.505 735.667,884.505 735.5,873.5C 736.797,868.733 736.797,864.066 735.5,859.5C 735.5,840.833 735.5,822.167 735.5,803.5C 713.77,801.398 697.937,790.732 688,771.5C 676.645,738.884 685.811,714.05 715.5,697C 733.572,690.105 751.072,691.272 768,700.5C 768.5,651.168 768.667,601.834 768.5,552.5C 771.016,548.134 774.016,544.134 777.5,540.5 Z M 766.5,795.5 C 767.816,798.087 768.483,801.087 768.5,804.5C 768.333,807.5 768.167,810.5 768,813.5C 760.333,817.833 752.667,822.167 745,826.5C 744.333,818.833 744.333,811.167 745,803.5C 752.85,802.497 760.016,799.83 766.5,795.5 Z M 853.5,811.5 C 853.666,821.172 853.5,830.839 853,840.5C 851.939,843.562 850.106,846.062 847.5,848C 824.412,860.294 801.246,872.461 778,884.5C 777.5,873.505 777.333,862.505 777.5,851.5C 802.833,838.167 828.167,824.833 853.5,811.5 Z M 768.5,842.5 C 760.217,845.975 752.217,849.975 744.5,854.5C 744.334,848.491 744.501,842.491 745,836.5C 752.667,832.167 760.333,827.833 768,823.5C 768.5,829.825 768.666,836.158 768.5,842.5 Z M 768.5,856.5 C 768.667,875.836 768.5,895.17 768,914.5C 767,916.5 766,918.5 765,920.5C 735.834,938.751 706.5,956.751 677,974.5C 676.194,968.916 676.361,963.416 677.5,958C 696.331,945.75 715.331,933.75 734.5,922C 739.579,918.01 742.745,912.843 744,906.5C 744.5,893.838 744.667,881.171 744.5,868.5C 752.527,864.487 760.527,860.487 768.5,856.5 Z"/></g>
<g><path style="opacity:0.931" fill="#00adee" d="M 533.5,544.5 C 550.397,554.533 566.897,565.2 583,576.5C 585.194,579.554 586.861,582.888 588,586.5C 588.5,596.494 588.666,606.494 588.5,616.5C 583.628,614.571 579.295,611.905 575.5,608.5C 575.884,601.411 575.384,594.411 574,587.5C 561.073,577.621 547.573,568.621 533.5,560.5C 533.5,555.167 533.5,549.833 533.5,544.5 Z"/></g>
<g><path style="opacity:0.974" fill="#02466a" d="M 863.5,806.5 C 859.698,807.32 856.364,808.986 853.5,811.5C 828.167,824.833 802.833,838.167 777.5,851.5C 777.565,851.062 777.399,850.728 777,850.5C 774.012,852.399 771.179,854.399 768.5,856.5C 760.527,860.487 752.527,864.487 744.5,868.5C 744.5,863.833 744.5,859.167 744.5,854.5C 752.217,849.975 760.217,845.975 768.5,842.5C 772.054,841.231 775.054,839.231 777.5,836.5C 802.807,823.513 828.14,810.513 853.5,797.5C 857.505,796.502 860.839,794.502 863.5,791.5C 882.168,782.75 900.335,773.083 918,762.5C 918.667,761.167 919.333,759.833 920,758.5C 920.5,741.17 920.667,723.837 920.5,706.5C 898.3,705.895 879.3,697.895 863.5,682.5C 860.406,677.978 857.073,673.644 853.5,669.5C 836.167,640.167 836.167,610.833 853.5,581.5C 856.826,577.172 860.16,572.839 863.5,568.5C 890.396,543.755 921.063,537.922 955.5,551C 991.453,570.069 1006.95,599.902 1002,640.5C 993.252,677.082 970.419,698.749 933.5,705.5C 933.667,722.837 933.5,740.17 933,757.5C 931.816,765.378 927.983,771.545 921.5,776C 901.982,785.925 882.649,796.091 863.5,806.5 Z"/></g>
<g><path style="opacity:1" fill="#fafbfc" d="M 410.5,563.5 C 414.846,563.334 419.179,563.501 423.5,564C 424,564.5 424.5,565 425,565.5C 425.667,583.167 425.667,600.833 425,618.5C 424.5,619 424,619.5 423.5,620C 419.5,620.667 415.5,620.667 411.5,620C 411,619.5 410.5,619 410,618.5C 409.193,600.123 409.36,581.79 410.5,563.5 Z"/></g>
<g><path style="opacity:1" fill="#f7f9fa" d="M 390.5,575.5 C 394.846,575.334 399.179,575.501 403.5,576C 404,576.5 404.5,577 405,577.5C 405.667,591.167 405.667,604.833 405,618.5C 404.5,619 404,619.5 403.5,620C 399.5,620.667 395.5,620.667 391.5,620C 391,619.5 390.5,619 390,618.5C 389.185,604.092 389.352,589.759 390.5,575.5 Z"/></g>
<g><path style="opacity:1" fill="#f7f9fa" d="M 897.5,576.5 C 913.837,576.333 930.17,576.5 946.5,577C 947.416,577.374 948.25,577.874 949,578.5C 950.651,609.081 950.984,639.747 950,670.5C 949.167,672 948,673.167 946.5,674C 930.167,674.667 913.833,674.667 897.5,674C 896.333,672.833 895.167,671.667 894,670.5C 893.333,640.5 893.333,610.5 894,580.5C 894.69,578.65 895.856,577.316 897.5,576.5 Z"/></g>
<g><path style="opacity:0.966" fill="#02466a" d="M 381.5,760.5 C 386.024,762.043 390.024,764.377 393.5,767.5C 393.333,797.502 393.5,827.502 394,857.5C 394.667,858.833 395.333,860.167 396,861.5C 440.805,889.816 485.972,917.483 531.5,944.5C 532.8,949.6 532.8,954.6 531.5,959.5C 484.528,931.011 437.528,902.511 390.5,874C 386.554,870.613 383.72,866.446 382,861.5C 381.832,852.814 381.332,844.148 380.5,835.5C 338.522,814.844 296.855,793.678 255.5,772C 252.15,768.468 249.984,764.301 249,759.5C 248.5,745.837 248.333,732.171 248.5,718.5C 220.139,715.632 199.972,701.298 188,675.5C 176.681,641.6 184.848,613.433 212.5,591C 242.09,573.353 270.757,574.686 298.5,595C 321.704,617.318 328.204,643.818 318,674.5C 306.444,700.875 286.277,715.542 257.5,718.5C 257.333,732.171 257.5,745.837 258,759.5C 259.061,762.562 260.894,765.062 263.5,767C 302.5,786.5 341.5,806 380.5,825.5C 381.5,803.844 381.833,782.177 381.5,760.5 Z"/></g>
<g><path style="opacity:1" fill="#eff3f5" d="M 652.5,587.5 C 665.688,585.383 675.521,590.05 682,601.5C 686.048,615.369 681.882,625.869 669.5,633C 650.006,637.656 638.673,630.156 635.5,610.5C 636.988,599.687 642.654,592.021 652.5,587.5 Z"/></g>
<g><path style="opacity:1" fill="#03466a" d="M 899.5,588.5 C 914.5,588.5 929.5,588.5 944.5,588.5C 944.5,609.167 944.5,629.833 944.5,650.5C 929.5,650.5 914.5,650.5 899.5,650.5C 899.5,629.833 899.5,609.167 899.5,588.5 Z"/></g>
<g><path style="opacity:1" fill="#0a496c" d="M 656.5,590.5 C 673.492,590.99 680.992,599.657 679,616.5C 674.994,627.501 667.161,632.335 655.5,631C 640.351,624.867 636.184,614.367 643,599.5C 646.528,594.834 651.028,591.834 656.5,590.5 Z"/></g>
<g><path style="opacity:1" fill="#f6f8f9" d="M 371.5,591.5 C 383.847,589.191 388.181,594.191 384.5,606.5C 384.466,611.254 383.799,615.754 382.5,620C 378.5,620.667 374.5,620.667 370.5,620C 369.874,619.25 369.374,618.416 369,617.5C 368.333,609.833 368.333,602.167 369,594.5C 370.045,593.627 370.878,592.627 371.5,591.5 Z"/></g>
<g><path style="opacity:1" fill="#e3eaee" d="M 656.5,597.5 C 657.822,597.33 658.989,597.663 660,598.5C 660.499,602.486 660.666,606.486 660.5,610.5C 663.518,610.335 666.518,610.502 669.5,611C 670.451,611.718 670.617,612.551 670,613.5C 665.599,614.467 661.099,614.8 656.5,614.5C 656.5,608.833 656.5,603.167 656.5,597.5 Z"/></g>
<g><path style="opacity:1" fill="#f9fbfb" d="M 350.5,606.5 C 354.846,606.334 359.179,606.501 363.5,607C 367.311,619.19 362.977,623.523 350.5,620C 347.867,615.501 347.867,611.001 350.5,606.5 Z"/></g>
<g><path style="opacity:1" fill="#e9eef2" d="M 905.5,605.5 C 916.833,605.5 928.167,605.5 939.5,605.5C 939.5,607.167 939.5,608.833 939.5,610.5C 927.833,610.5 916.167,610.5 904.5,610.5C 904.366,608.708 904.699,607.042 905.5,605.5 Z"/></g>
<g><path style="opacity:1" fill="#e8eef1" d="M 904.5,611.5 C 916.167,611.5 927.833,611.5 939.5,611.5C 939.5,613.167 939.5,614.833 939.5,616.5C 927.833,616.5 916.167,616.5 904.5,616.5C 904.5,614.833 904.5,613.167 904.5,611.5 Z"/></g>
<g><path style="opacity:1" fill="#f8fafb" d="M 233.5,615.5 C 246.504,615.333 259.504,615.5 272.5,616C 277.608,618.038 279.775,621.872 279,627.5C 296.955,641.702 301.122,659.202 291.5,680C 289.655,681.128 287.655,681.628 285.5,681.5C 286.694,676.767 288.194,672.101 290,667.5C 291.791,652.586 286.624,640.752 274.5,632C 260.167,631.333 245.833,631.333 231.5,632C 214.554,644.687 210.887,660.52 220.5,679.5C 218.685,681.694 216.518,682.028 214,680.5C 204.876,659.439 209.209,641.772 227,627.5C 226.022,621.593 228.188,617.593 233.5,615.5 Z"/></g>
<g><path style="opacity:0.958" fill="#569342" d="M 326.5,615.5 C 329.756,621.012 332.756,626.678 335.5,632.5C 335.033,661.55 335.533,690.55 337,719.5C 338.449,722.616 340.616,725.116 343.5,727C 356.056,734.395 368.722,741.561 381.5,748.5C 384.976,751.623 388.976,753.957 393.5,755.5C 421.868,772.503 450.535,789.169 479.5,805.5C 480.493,800.88 480.827,796.214 480.5,791.5C 438.707,786.539 413.207,763.539 404,722.5C 399.795,682.068 415.628,652.568 451.5,634C 492.946,619.155 527.113,628.988 554,663.5C 571.583,693.323 571.917,723.323 555,753.5C 539.596,776.293 518.096,788.96 490.5,791.5C 490.334,800.173 490.5,808.84 491,817.5C 500.558,795.464 517.391,785.298 541.5,787C 555.858,789.005 567.192,795.838 575.5,807.5C 576.719,811.24 578.219,814.907 580,818.5C 584.17,832.794 582.67,846.461 575.5,859.5C 567.147,871.85 555.48,878.85 540.5,880.5C 540.334,886.842 540.5,893.175 541,899.5C 546.569,904.035 552.403,908.201 558.5,912C 561.057,914.892 563.224,918.059 565,921.5C 566.434,936.442 566.934,951.442 566.5,966.5C 566.5,971.5 566.5,976.5 566.5,981.5C 566.5,1026.17 566.5,1070.83 566.5,1115.5C 563.167,1115.5 559.833,1115.5 556.5,1115.5C 556.5,1068.5 556.5,1021.5 556.5,974.5C 557.8,969.6 557.8,964.6 556.5,959.5C 556.667,948.162 556.5,936.828 556,925.5C 555.117,922.898 553.617,920.731 551.5,919C 547.722,916.888 544.222,914.388 541,911.5C 540.5,924.496 540.333,937.496 540.5,950.5C 540.5,955.5 540.5,960.5 540.5,965.5C 540.5,1015.5 540.5,1065.5 540.5,1115.5C 537.5,1115.5 534.5,1115.5 531.5,1115.5C 531.5,1063.5 531.5,1011.5 531.5,959.5C 532.8,954.6 532.8,949.6 531.5,944.5C 531.667,931.163 531.5,917.829 531,904.5C 515.132,893.899 499.799,882.565 485,870.5C 484,868.5 483,866.5 482,864.5C 480.713,848.9 480.046,833.234 480,817.5C 451.279,800.606 422.445,783.939 393.5,767.5C 390.024,764.377 386.024,762.043 381.5,760.5C 365.67,750.863 349.67,741.363 333.5,732C 331.273,729.436 329.439,726.603 328,723.5C 326.519,687.562 326.019,651.562 326.5,615.5 Z M 335.5,632.5 C 347.475,646.822 362.809,654.822 381.5,656.5C 381.5,687.167 381.5,717.833 381.5,748.5C 368.722,741.561 356.056,734.395 343.5,727C 340.616,725.116 338.449,722.616 337,719.5C 335.533,690.55 335.033,661.55 335.5,632.5 Z M 490.5,850.5 C 498.229,868.538 511.895,878.538 531.5,880.5C 531.666,884.514 531.499,888.514 531,892.5C 519.588,884.211 508.088,876.044 496.5,868C 491.111,863.388 489.111,857.555 490.5,850.5 Z M 556.5,959.5 C 550.87,957.019 545.537,954.019 540.5,950.5C 540.333,937.496 540.5,924.496 541,911.5C 544.222,914.388 547.722,916.888 551.5,919C 553.617,920.731 555.117,922.898 556,925.5C 556.5,936.828 556.667,948.162 556.5,959.5 Z"/></g>
<g><path style="opacity:1" fill="#e9eef1" d="M 904.5,617.5 C 916.167,617.5 927.833,617.5 939.5,617.5C 939.5,619.167 939.5,620.833 939.5,622.5C 928.162,622.667 916.828,622.5 905.5,622C 904.62,620.644 904.286,619.144 904.5,617.5 Z"/></g>
<g><path style="opacity:1" fill="#0c4b6e" d="M 252.5,620.5 C 257.123,619.408 258.956,621.075 258,625.5C 252.42,627.752 250.587,626.085 252.5,620.5 Z"/></g>
<g><path style="opacity:0.962" fill="#00adee" d="M 575.5,620.5 C 580.372,622.429 584.705,625.095 588.5,628.5C 588.5,745.5 588.5,862.5 588.5,979.5C 584.577,978.205 580.91,976.372 577.5,974C 576.619,973.292 575.953,972.458 575.5,971.5C 575.5,934.167 575.5,896.833 575.5,859.5C 582.67,846.461 584.17,832.794 580,818.5C 578.219,814.907 576.719,811.24 575.5,807.5C 575.5,745.167 575.5,682.833 575.5,620.5 Z"/></g>
<g><path style="opacity:1" fill="#02456a" d="M 247.5,622.5 C 249.337,622.639 249.67,623.306 248.5,624.5C 247.702,624.043 247.369,623.376 247.5,622.5 Z"/></g>
<g><path style="opacity:0.97" fill="#559242" d="M 676.5,645.5 C 676.5,649.167 676.5,652.833 676.5,656.5C 676.5,661.833 676.5,667.167 676.5,672.5C 676.5,744.833 676.5,817.167 676.5,889.5C 674.206,891.653 671.54,893.32 668.5,894.5C 668.5,822.5 668.5,750.5 668.5,678.5C 668.5,673.167 668.5,667.833 668.5,662.5C 668.5,657.833 668.5,653.167 668.5,648.5C 670.792,646.733 673.458,645.733 676.5,645.5 Z"/></g>
<g><path style="opacity:1" fill="#154e70" d="M 920.5,656.5 C 927.582,657.402 929.249,660.902 925.5,667C 919.07,669.219 916.237,667.053 917,660.5C 917.69,658.65 918.856,657.316 920.5,656.5 Z"/></g>
<g><path style="opacity:0.92" fill="#00aeef" d="M 668.5,662.5 C 668.5,667.833 668.5,673.167 668.5,678.5C 666.938,678.733 665.605,679.4 664.5,680.5C 664.5,674.833 664.5,669.167 664.5,663.5C 665.833,663.167 667.167,662.833 668.5,662.5 Z"/></g>
<g><path style="opacity:0.873" fill="#559242" d="M 853.5,669.5 C 857.073,673.644 860.406,677.978 863.5,682.5C 863.5,718.833 863.5,755.167 863.5,791.5C 860.839,794.502 857.505,796.502 853.5,797.5C 853.5,754.833 853.5,712.167 853.5,669.5 Z"/></g>
<g><path style="opacity:0.953" fill="#00adee" d="M 654.5,671.5 C 654.5,676.833 654.5,682.167 654.5,687.5C 650.222,689.977 645.888,692.477 641.5,695C 638.533,697.1 636.7,699.934 636,703.5C 635.5,744.832 635.333,786.165 635.5,827.5C 631.727,831.227 627.394,834.227 622.5,836.5C 622.333,791.165 622.5,745.832 623,700.5C 624.348,693.639 627.848,688.139 633.5,684C 640.404,679.58 647.404,675.413 654.5,671.5 Z"/></g>
<g><path style="opacity:1" fill="#f3f7f1" d="M 444.5,671.5 C 471.502,671.333 498.502,671.5 525.5,672C 528.196,672.69 530.363,674.19 532,676.5C 533.121,684.761 533.621,693.094 533.5,701.5C 533.333,708.833 533.167,716.167 533,723.5C 532.214,726.583 530.381,728.749 527.5,730C 515.171,730.5 502.838,730.667 490.5,730.5C 490.5,732.167 490.5,733.833 490.5,735.5C 494.603,734.769 498.103,735.769 501,738.5C 501.755,741.497 500.922,743.997 498.5,746C 489.833,746.667 481.167,746.667 472.5,746C 469.621,744.334 468.788,741.834 470,738.5C 470.308,737.692 470.808,737.025 471.5,736.5C 474.084,735.607 476.751,735.274 479.5,735.5C 479.5,733.833 479.5,732.167 479.5,730.5C 467.162,730.667 454.829,730.5 442.5,730C 441.333,728.833 440.167,727.667 439,726.5C 437.364,710.259 437.03,693.925 438,677.5C 439.494,674.686 441.66,672.686 444.5,671.5 Z"/></g>
<g><path style="opacity:1" fill="#569342" d="M 445.5,675.5 C 471.835,675.333 498.169,675.5 524.5,676C 525.667,677.167 526.833,678.333 528,679.5C 528.667,691.167 528.667,702.833 528,714.5C 527.167,716.667 525.667,718.167 523.5,719C 497.833,719.667 472.167,719.667 446.5,719C 444.667,718.5 443.5,717.333 443,715.5C 442.333,703.167 442.333,690.833 443,678.5C 444.045,677.627 444.878,676.627 445.5,675.5 Z"/></g>
<g><path style="opacity:1" fill="#f5f8f3" d="M 832.5,734.5 C 831.262,736.214 830.595,738.214 830.5,740.5C 829.17,743.094 827.837,745.761 826.5,748.5C 825.021,746.322 823.688,743.988 822.5,741.5C 821.719,742.729 821.219,744.062 821,745.5C 819.97,743.412 819.137,741.245 818.5,739C 819.646,738.241 820.646,737.574 821.5,737C 819.614,730.121 820.447,723.621 824,717.5C 825.049,716.483 826.216,716.316 827.5,717C 831.926,721.961 833.593,727.794 832.5,734.5 Z"/></g>
<g><path style="opacity:1" fill="#f4f8f3" d="M 714.5,724.5 C 731.262,724.029 747.928,724.529 764.5,726C 765,726.5 765.5,727 766,727.5C 766.5,738.828 766.667,750.162 766.5,761.5C 764.833,761.5 763.167,761.5 761.5,761.5C 761.5,750.833 761.5,740.167 761.5,729.5C 746.167,729.5 730.833,729.5 715.5,729.5C 715.667,740.172 715.5,750.839 715,761.5C 713.667,762.833 712.333,762.833 711,761.5C 710.333,750.5 710.333,739.5 711,728.5C 711.69,726.65 712.856,725.316 714.5,724.5 Z"/></g>
<g><path style="opacity:1" fill="#649b51" d="M 825.5,723.5 C 828.956,724.536 829.29,726.203 826.5,728.5C 824.296,727.218 823.962,725.551 825.5,723.5 Z"/></g>
<g><path style="opacity:1" fill="#b0cca6" d="M 823.5,729.5 C 825.288,729.215 826.955,729.548 828.5,730.5C 827.667,730.833 826.833,731.167 826,731.5C 824.624,731.316 823.791,730.649 823.5,729.5 Z"/></g>
<g><path style="opacity:1" fill="#fafcfa" d="M 834.5,737.5 C 834.174,740.311 833.341,742.978 832,745.5C 831.648,743.753 831.148,742.086 830.5,740.5C 831.236,738.771 832.57,737.771 834.5,737.5 Z"/></g>
<g><path style="opacity:1" fill="#9cc090" d="M 832.5,734.5 C 832.782,735.778 833.449,736.778 834.5,737.5C 832.57,737.771 831.236,738.771 830.5,740.5C 830.595,738.214 831.262,736.214 832.5,734.5 Z"/></g>
<g><path style="opacity:1" fill="#f0f5ee" d="M 721.5,742.5 C 732.838,742.333 744.172,742.5 755.5,743C 756.833,744.333 756.833,745.667 755.5,747C 744.167,747.667 732.833,747.667 721.5,747C 720.272,745.51 720.272,744.01 721.5,742.5 Z"/></g>
<g><path style="opacity:1" fill="#eff5ed" d="M 721.5,749.5 C 732.838,749.333 744.172,749.5 755.5,750C 756.38,751.356 756.714,752.856 756.5,754.5C 744.829,754.667 733.162,754.5 721.5,754C 720.272,752.51 720.272,751.01 721.5,749.5 Z"/></g>
<g><path style="opacity:1" fill="#fdfefd" d="M 701.5,766.5 C 726.169,766.333 750.836,766.5 775.5,767C 776.833,768.333 776.833,769.667 775.5,771C 750.836,771.5 726.169,771.667 701.5,771.5C 701.5,769.833 701.5,768.167 701.5,766.5 Z"/></g>
<g><path style="opacity:1" fill="#fdfefd" d="M 525.5,801.5 C 531.842,801.334 538.175,801.5 544.5,802C 545.337,803.011 545.67,804.178 545.5,805.5C 549.013,804.876 551.847,805.876 554,808.5C 554.667,826.833 554.667,845.167 554,863.5C 553.167,864.333 552.333,865.167 551.5,866C 540.833,866.667 530.167,866.667 519.5,866C 518.584,865.626 517.75,865.126 517,864.5C 516.333,845.5 516.333,826.5 517,807.5C 519.481,805.686 522.315,805.02 525.5,805.5C 525.5,804.167 525.5,802.833 525.5,801.5 Z"/></g>
<g><path style="opacity:1" fill="#5d9749" d="M 521.5,810.5 C 530.173,810.334 538.84,810.5 547.5,811C 548,811.5 548.5,812 549,812.5C 549.667,828.167 549.667,843.833 549,859.5C 548.5,860 548,860.5 547.5,861C 539.5,861.667 531.5,861.667 523.5,861C 523,860.5 522.5,860 522,859.5C 521.5,843.17 521.333,826.837 521.5,810.5 Z"/></g>
<g><path style="opacity:1" fill="#fbfcfb" d="M 525.5,818.5 C 531.509,818.334 537.509,818.501 543.5,819C 544,819.5 544.5,820 545,820.5C 545.821,832.742 545.654,844.909 544.5,857C 538.251,857.809 532.084,857.642 526,856.5C 525.5,843.838 525.333,831.171 525.5,818.5 Z"/></g>
<g><path style="opacity:0.962" fill="#00adee" d="M 635.5,840.5 C 635.5,864.167 635.5,887.833 635.5,911.5C 631.361,914.072 627.027,916.405 622.5,918.5C 622.5,895.5 622.5,872.5 622.5,849.5C 626.302,845.763 630.635,842.763 635.5,840.5 Z"/></g>
<g><path style="opacity:0.96" fill="#00adee" d="M 635.5,925.5 C 635.5,988.833 635.5,1052.17 635.5,1115.5C 631.167,1115.5 626.833,1115.5 622.5,1115.5C 622.5,1054.5 622.5,993.5 622.5,932.5C 626.347,929.407 630.68,927.074 635.5,925.5 Z"/></g>
<g><path style="opacity:0.917" fill="#044769" d="M 540.5,950.5 C 545.537,954.019 550.87,957.019 556.5,959.5C 557.8,964.6 557.8,969.6 556.5,974.5C 551.184,971.528 545.85,968.528 540.5,965.5C 540.5,960.5 540.5,955.5 540.5,950.5 Z"/></g>
<g><path style="opacity:0.958" fill="#00adee" d="M 575.5,986.5 C 580.009,988.919 584.342,991.586 588.5,994.5C 588.5,1034.83 588.5,1075.17 588.5,1115.5C 584.167,1115.5 579.833,1115.5 575.5,1115.5C 575.5,1072.5 575.5,1029.5 575.5,986.5 Z"/></g>
</svg>
