<?xml version="1.0" encoding="UTF-8"?>
<!DOCTYPE svg PUBLIC "-//W3C//DTD SVG 1.1//EN" "http://www.w3.org/Graphics/SVG/1.1/DTD/svg11.dtd">
<svg xmlns="http://www.w3.org/2000/svg" version="1.1" width="1200px" height="1200px" style="shape-rendering:geometricPrecision; text-rendering:geometricPrecision; image-rendering:optimizeQuality; fill-rule:evenodd; clip-rule:evenodd" xmlns:xlink="http://www.w3.org/1999/xlink">
<g><path style="opacity:0.988" fill="#f48245" d="M 590.5,162.5 C 637.134,161.227 672.634,180.227 697,219.5C 720.034,267.925 714.034,312.258 679,352.5C 644.259,384.25 604.426,392.75 559.5,378C 509.121,355.225 485.621,316.058 489,260.5C 499.482,203.516 533.316,170.849 590.5,162.5 Z"/></g>
<g><path style="opacity:1" fill="#fffdfc" d="M 555.5,212.5 C 559.833,212.5 564.167,212.5 568.5,212.5C 568.911,218.136 569.911,223.636 571.5,229C 572.609,229.638 573.775,230.138 575,230.5C 579.822,228.423 584.488,226.089 589,223.5C 592.101,225.674 594.768,228.341 597,231.5C 595.16,236.148 592.493,240.482 589,244.5C 588.82,246.488 588.986,248.488 589.5,250.5C 594.578,251.539 599.578,252.872 604.5,254.5C 604.936,258.756 604.936,263.089 604.5,267.5C 599.043,267.854 593.709,268.854 588.5,270.5C 587.833,271.833 587.167,273.167 586.5,274.5C 589.224,278.78 591.557,283.28 593.5,288C 591.226,292.303 587.893,294.969 583.5,296C 579.676,292.921 575.676,290.088 571.5,287.5C 569.941,288.074 568.441,288.74 567,289.5C 565.401,294.13 563.901,298.797 562.5,303.5C 558.541,304.66 554.541,304.827 550.5,304C 549.369,298.443 548.035,292.943 546.5,287.5C 545.167,286.833 543.833,286.167 542.5,285.5C 538.13,288.366 533.63,291.032 529,293.5C 525.796,290.631 522.963,287.465 520.5,284C 523.731,279.612 526.731,275.112 529.5,270.5C 529.363,268.893 528.696,267.559 527.5,266.5C 522.668,264.753 517.835,263.086 513,261.5C 512.737,257.165 512.903,252.832 513.5,248.5C 517.877,248.423 522.21,247.923 526.5,247C 529.658,245.862 531.158,243.695 531,240.5C 528.562,236.623 526.395,232.623 524.5,228.5C 526.564,225.929 528.897,223.429 531.5,221C 536.677,221.454 541.01,223.787 544.5,228C 546.847,228.334 549.181,228.167 551.5,227.5C 552.368,222.36 553.701,217.36 555.5,212.5 Z"/></g>
<g><path style="opacity:1" fill="#fffcfb" d="M 648.5,230.5 C 651.402,231.578 654.402,232.244 657.5,232.5C 657.334,237.179 657.501,241.845 658,246.5C 659.062,247.097 660.228,247.43 661.5,247.5C 664.5,246.833 667.5,246.167 670.5,245.5C 674.356,247.203 676.189,250.203 676,254.5C 673.521,257.069 670.854,259.402 668,261.5C 667.28,263.112 667.446,264.612 668.5,266C 671.667,267.833 674.833,269.667 678,271.5C 678.048,274.878 677.548,278.211 676.5,281.5C 672.204,280.537 667.871,280.371 663.5,281C 662.426,281.739 661.759,282.739 661.5,284C 662.422,287.522 663.422,291.022 664.5,294.5C 662.181,297.089 659.348,299.089 656,300.5C 653.618,297.573 651.118,294.739 648.5,292C 646.559,291.257 644.726,291.424 643,292.5C 641.069,296.04 638.902,299.374 636.5,302.5C 633.943,301.593 631.443,300.593 629,299.5C 628.667,295.167 628.333,290.833 628,286.5C 627.5,286 627,285.5 626.5,285C 622.507,285.474 618.507,286.307 614.5,287.5C 612.768,285.717 611.268,283.717 610,281.5C 611.016,277.119 613.683,273.786 618,271.5C 618.798,269.741 618.631,268.074 617.5,266.5C 613.498,264.69 610.165,262.19 607.5,259C 607.865,256.739 608.531,254.573 609.5,252.5C 614.383,251.809 619.216,251.143 624,250.5C 624.411,245.966 623.577,241.633 621.5,237.5C 623.938,235.196 626.771,233.53 630,232.5C 633.065,236.069 636.565,239.069 640.5,241.5C 641.442,241.392 642.275,241.059 643,240.5C 645.062,237.277 646.896,233.943 648.5,230.5 Z"/></g>
<g><path style="opacity:1" fill="#f48449" d="M 554.5,247.5 C 565.331,246.171 570.497,250.838 570,261.5C 567.193,267.777 562.36,270.277 555.5,269C 545.189,262.301 544.856,255.134 554.5,247.5 Z"/></g>
<g><path style="opacity:1" fill="#f4854a" d="M 640.5,259.5 C 648.587,259.251 651.253,262.918 648.5,270.5C 642.426,275.316 638.426,273.982 636.5,266.5C 636.577,263.335 637.91,261.001 640.5,259.5 Z"/></g>
<g><path style="opacity:0.97" fill="#a37275" d="M 813.5,272.5 C 839.884,269.262 857.717,279.929 867,304.5C 871.759,329.816 862.593,347.982 839.5,359C 811.752,366.099 792.252,356.599 781,330.5C 775.497,301.827 786.33,282.494 813.5,272.5 Z"/></g>
<g><path style="opacity:0.976" fill="#00aeef" d="M 314.5,288.5 C 341.808,285.417 362.642,295.417 377,318.5C 384.872,335.886 385.538,353.553 379,371.5C 365.098,397.869 343.265,409.036 313.5,405C 288.244,398.744 272.744,382.911 267,357.5C 264.058,321.338 279.892,298.338 314.5,288.5 Z"/></g>
<g><path style="opacity:1" fill="#fffbfa" d="M 599.5,289.5 C 600.496,289.414 601.329,289.748 602,290.5C 603.119,293.764 604.952,296.431 607.5,298.5C 610.743,296.765 613.577,294.432 616,291.5C 618.458,292.64 620.625,294.14 622.5,296C 621.162,299.133 620.329,302.299 620,305.5C 624,306.167 628,306.833 632,307.5C 632.422,309.355 632.922,311.189 633.5,313C 630.452,315.512 627.452,318.012 624.5,320.5C 625.995,323.358 628.162,325.692 631,327.5C 630.723,330.403 629.556,333.07 627.5,335.5C 624.239,334.018 620.905,333.185 617.5,333C 616.54,336.73 616.207,340.563 616.5,344.5C 614.213,344.724 612.047,345.391 610,346.5C 607.844,344.199 606.178,341.533 605,338.5C 604.275,337.941 603.442,337.608 602.5,337.5C 599.911,339.745 597.244,342.078 594.5,344.5C 591.865,343.527 589.865,341.86 588.5,339.5C 589.501,336.518 590.001,333.518 590,330.5C 586.333,329.833 582.667,329.167 579,328.5C 578.163,326.179 577.83,323.845 578,321.5C 580.087,320.206 582.254,319.039 584.5,318C 585.059,317.275 585.392,316.442 585.5,315.5C 583.714,312.542 581.714,309.709 579.5,307C 580.029,305.441 580.696,303.941 581.5,302.5C 585.525,302.377 589.525,302.377 593.5,302.5C 594.167,298.833 594.833,295.167 595.5,291.5C 597.026,291.006 598.359,290.339 599.5,289.5 Z"/></g>
<g><path style="opacity:1" fill="#fcfafa" d="M 821.5,292.5 C 832.386,290.186 839.553,294.186 843,304.5C 851.959,308.754 855.293,315.754 853,325.5C 850.573,331.587 846.073,335.087 839.5,336C 827.833,336.667 816.167,336.667 804.5,336C 793.373,330.952 790.873,323.119 797,312.5C 799.04,310.959 801.207,309.626 803.5,308.5C 805.256,303.912 808.589,301.412 813.5,301C 815.695,297.641 818.362,294.807 821.5,292.5 Z"/></g>
<g><path style="opacity:1" fill="#f8fdfe" d="M 305.5,305.5 C 318.171,305.333 330.838,305.5 343.5,306C 345.848,306.346 347.681,307.513 349,309.5C 349.667,334.167 349.667,358.833 349,383.5C 348.167,385.667 346.667,387.167 344.5,388C 331.5,388.667 318.5,388.667 305.5,388C 303.333,387.167 301.833,385.667 301,383.5C 300.333,359.167 300.333,334.833 301,310.5C 302.025,308.313 303.525,306.646 305.5,305.5 Z"/></g>
<g><path style="opacity:1" fill="#a8797c" d="M 818.5,307.5 C 826.652,306.163 833.652,308.33 839.5,314C 838.646,315.022 837.646,315.855 836.5,316.5C 828.405,311.283 820.405,311.283 812.5,316.5C 811.354,315.855 810.354,315.022 809.5,314C 812.214,311.322 815.214,309.155 818.5,307.5 Z"/></g>
<g><path style="opacity:1" fill="#00aeef" d="M 319.5,311.5 C 323.226,311.177 326.893,311.511 330.5,312.5C 328.667,312.833 326.833,313.167 325,313.5C 322.705,313.453 320.871,312.787 319.5,311.5 Z"/></g>
<g><path style="opacity:1" fill="#f4854a" d="M 602.5,311.5 C 608.679,310.858 611.846,313.525 612,319.5C 609.203,324.861 605.203,325.861 600,322.5C 597.428,317.889 598.261,314.222 602.5,311.5 Z"/></g>
<g><path style="opacity:1" fill="#4fc2f3" d="M 333.5,311.5 C 335.337,311.639 335.67,312.306 334.5,313.5C 333.702,313.043 333.369,312.376 333.5,311.5 Z"/></g>
<g><path style="opacity:1" fill="#a7797b" d="M 821.5,314.5 C 826.416,314.29 830.749,315.79 834.5,319C 833.601,320.236 832.434,321.07 831,321.5C 828.834,320.25 826.501,319.584 824,319.5C 821.433,320.139 818.933,320.639 816.5,321C 815.833,320.333 815.167,319.667 814.5,319C 816.592,316.964 818.926,315.464 821.5,314.5 Z"/></g>
<g><path style="opacity:1" fill="#00aeef" d="M 310.5,320.5 C 320.167,320.5 329.833,320.5 339.5,320.5C 339.5,337.5 339.5,354.5 339.5,371.5C 329.833,371.5 320.167,371.5 310.5,371.5C 310.5,354.5 310.5,337.5 310.5,320.5 Z"/></g>
<g><path style="opacity:1" fill="#a6777a" d="M 821.5,322.5 C 828.923,322.184 829.923,324.184 824.5,328.5C 821.479,327.227 820.479,325.227 821.5,322.5 Z"/></g>
<g><path style="opacity:0.982" fill="#3d8377" d="M 981.5,524.5 C 980.167,523.167 978.833,523.167 977.5,524.5C 944.063,522.373 919.896,506.373 905,476.5C 891.291,439.844 898.458,408.01 926.5,381C 954.004,360.316 983.67,356.65 1015.5,370C 1050.47,390.114 1064.97,420.281 1059,460.5C 1048.1,499.895 1022.27,521.229 981.5,524.5 Z"/></g>
<g><path style="opacity:1" fill="#2ab4f0" d="M 322.5,377.5 C 329.004,377.138 330.671,379.638 327.5,385C 320.745,385.756 319.078,383.256 322.5,377.5 Z"/></g>
<g><path style="opacity:0.736" fill="#a9aaa9" d="M 822.5,384.5 C 823.5,384.5 824.5,384.5 825.5,384.5C 825.666,391.175 825.5,397.842 825,404.5C 823.605,405.815 822.605,405.481 822,403.5C 821.21,397.085 821.376,390.752 822.5,384.5 Z"/></g>
<g><path style="opacity:0.889" fill="#73797b" d="M 763.5,388.5 C 781.858,386.053 794.358,393.386 801,410.5C 801.998,414.473 802.331,418.473 802,422.5C 799.822,426.065 797.156,426.399 794,423.5C 792.748,404.907 782.915,396.407 764.5,398C 749.291,404.985 745.124,416.152 752,431.5C 758.824,439.889 767.658,443.389 778.5,442C 781.399,445.156 781.065,447.822 777.5,450C 757.632,452.317 745.132,443.817 740,424.5C 738.606,406.251 746.439,394.251 763.5,388.5 Z"/></g>
<g><path style="opacity:0.917" fill="#73797b" d="M 487.5,396.5 C 504.543,394.461 519.543,398.961 532.5,410C 533.517,411.049 533.684,412.216 533,413.5C 530.333,416.167 527.667,418.833 525,421.5C 510.867,408.57 495.034,406.07 477.5,414C 474.061,416.139 470.894,418.639 468,421.5C 465.297,418.462 462.297,415.795 459,413.5C 458.333,412.833 458.333,412.167 459,411.5C 467.245,403.963 476.745,398.963 487.5,396.5 Z"/></g>
<g><path style="opacity:1" fill="#f7faf9" d="M 927.5,404.5 C 961.5,404.5 995.5,404.5 1029.5,404.5C 1029.83,429.741 1029.49,454.908 1028.5,480C 994.835,480.5 961.168,480.667 927.5,480.5C 927.5,455.167 927.5,429.833 927.5,404.5 Z"/></g>
<g><path style="opacity:0.907" fill="#73797b" d="M 771.5,406.5 C 774.365,406.055 776.865,406.722 779,408.5C 779.667,414.5 779.667,420.5 779,426.5C 778.5,427 778,427.5 777.5,428C 771.167,428.667 764.833,428.667 758.5,428C 755.833,425 755.833,422 758.5,419C 762.152,418.501 765.818,418.335 769.5,418.5C 768.99,414.187 769.657,410.187 771.5,406.5 Z"/></g>
<g><path style="opacity:0.691" fill="#a9aaa9" d="M 823.5,406.5 C 824.117,406.611 824.617,406.944 825,407.5C 825.498,410.817 825.665,414.15 825.5,417.5C 824.178,417.67 823.011,417.337 822,416.5C 821.037,412.851 821.537,409.518 823.5,406.5 Z"/></g>
<g><path style="opacity:1" fill="#3f8478" d="M 934.5,410.5 C 963.981,410.009 993.314,410.509 1022.5,412C 1009.17,425.333 995.833,438.667 982.5,452C 979.036,452.817 975.702,452.483 972.5,451C 960,438.5 947.5,426 935,413.5C 934.517,412.552 934.351,411.552 934.5,410.5 Z"/></g>
<g><path style="opacity:0.907" fill="#73797b" d="M 492.5,413.5 C 504.313,412.779 514.313,416.613 522.5,425C 519.62,428.217 516.453,431.05 513,433.5C 506.029,427.798 498.195,425.965 489.5,428C 486.497,429.166 483.83,430.833 481.5,433C 480.5,433.667 479.5,433.667 478.5,433C 475.833,430.333 473.167,427.667 470.5,425C 476.679,418.746 484.012,414.913 492.5,413.5 Z"/></g>
<g><path style="opacity:0.838" fill="#a9aaa9" d="M 323.5,415.5 C 324.5,415.5 325.5,415.5 326.5,415.5C 326.5,422.167 326.5,428.833 326.5,435.5C 325.5,435.5 324.5,435.5 323.5,435.5C 323.5,428.833 323.5,422.167 323.5,415.5 Z"/></g>
<g><path style="opacity:0.725" fill="#a9aaa9" d="M 822.5,420.5 C 823.5,420.5 824.5,420.5 825.5,420.5C 825.5,424.167 825.5,427.833 825.5,431.5C 824.178,431.67 823.011,431.337 822,430.5C 821.253,427.076 821.42,423.743 822.5,420.5 Z"/></g>
<g><path style="opacity:1" fill="#3f8478" d="M 934.5,423.5 C 942.619,429.785 949.952,436.951 956.5,445C 950.029,452.638 943.029,459.805 935.5,466.5C 934.501,452.182 934.167,437.849 934.5,423.5 Z"/></g>
<g><path style="opacity:1" fill="#3d8377" d="M 1020.5,423.5 C 1021.83,430.301 1022.5,437.467 1022.5,445C 1022.65,452.66 1022.15,460.16 1021,467.5C 1013.65,460.319 1006.49,452.986 999.5,445.5C 1006.52,438.146 1013.52,430.813 1020.5,423.5 Z"/></g>
<g><path style="opacity:0.892" fill="#73797b" d="M 789.5,426.5 C 791.604,426.201 793.604,426.534 795.5,427.5C 796.417,430.758 796.751,434.091 796.5,437.5C 800.06,436.891 802.06,438.391 802.5,442C 797.285,453.565 790.785,454.399 783,444.5C 781.287,439.801 782.787,437.468 787.5,437.5C 787.01,433.513 787.676,429.846 789.5,426.5 Z"/></g>
<g><path style="opacity:0.87" fill="#73797b" d="M 491.5,432.5 C 497.311,431.774 502.645,432.941 507.5,436C 508.022,436.561 508.355,437.228 508.5,438C 505.031,442.636 501.031,446.803 496.5,450.5C 492.015,446.515 487.682,442.349 483.5,438C 485.746,435.391 488.413,433.557 491.5,432.5 Z"/></g>
<g><path style="opacity:0.731" fill="#a9aaa9" d="M 822.5,434.5 C 823.5,434.5 824.5,434.5 825.5,434.5C 825.5,442.167 825.5,449.833 825.5,457.5C 824.178,457.67 823.011,457.337 822,456.5C 821.204,449.087 821.37,441.754 822.5,434.5 Z"/></g>
<g><path style="opacity:0.851" fill="#a9aaa9" d="M 323.5,436.5 C 324.5,436.5 325.5,436.5 326.5,436.5C 326.5,438.833 326.5,441.167 326.5,443.5C 325.5,443.5 324.5,443.5 323.5,443.5C 323.5,441.167 323.5,438.833 323.5,436.5 Z"/></g>
<g><path style="opacity:0.985" fill="#44525a" d="M 186.5,441.5 C 228.616,438.129 258.449,455.462 276,493.5C 287.703,530.526 279.203,562.026 250.5,588C 217.6,610.539 184.267,611.205 150.5,590C 118.687,563.591 109.52,530.757 123,491.5C 135.539,463.786 156.706,447.12 186.5,441.5 Z"/></g>
<g><path style="opacity:0.922" fill="#a9aaa9" d="M 323.5,444.5 C 324.5,444.5 325.5,444.5 326.5,444.5C 326.5,450.167 326.5,455.833 326.5,461.5C 325.5,461.5 324.5,461.5 323.5,461.5C 323.5,455.833 323.5,450.167 323.5,444.5 Z"/></g>
<g><path style="opacity:0.724" fill="#a9a8a8" d="M 613.5,404.5 C 614.496,404.414 615.329,404.748 616,405.5C 616.667,411.5 616.667,417.5 616,423.5C 615.308,424.025 614.808,424.692 614.5,425.5C 617.044,429.325 617.044,433.158 614.5,437C 617.116,441.21 617.116,445.377 614.5,449.5C 614.808,450.308 615.308,450.975 616,451.5C 616.167,455 616.333,458.5 616.5,462C 616.425,466.023 615.758,469.856 614.5,473.5C 617.114,477.285 617.114,481.118 614.5,485C 617.133,489.514 617.133,494.014 614.5,498.5C 614.808,499.308 615.308,499.975 616,500.5C 616.667,507.167 616.667,513.833 616,520.5C 615.5,521 615,521.5 614.5,522C 617.133,525.799 617.133,529.633 614.5,533.5C 617.167,537.833 617.167,542.167 614.5,546.5C 614.808,547.308 615.308,547.975 616,548.5C 616.5,557.16 616.666,565.827 616.5,574.5C 613.934,574.344 611.434,574.678 609,575.5C 607.72,575.387 606.887,574.72 606.5,573.5C 607.768,571.953 609.435,570.953 611.5,570.5C 612.196,562.473 612.862,554.473 613.5,546.5C 612.698,499.11 612.698,451.777 613.5,404.5 Z"/></g>
<g><path style="opacity:1" fill="#3f8478" d="M 961.5,450.5 C 965.905,453.396 969.905,456.896 973.5,461C 977.414,463.18 981.081,462.846 984.5,460C 987.682,456.651 991.015,453.484 994.5,450.5C 1002.17,457.5 1009.5,464.833 1016.5,472.5C 991.167,473.833 965.833,473.833 940.5,472.5C 947.521,465.146 954.521,457.813 961.5,450.5 Z"/></g>
<g><path style="opacity:0.739" fill="#a9aaa9" d="M 822.5,459.5 C 823.5,459.5 824.5,459.5 825.5,459.5C 825.905,463.048 825.405,466.381 824,469.5C 821.314,466.536 820.814,463.203 822.5,459.5 Z"/></g>
<g><path style="opacity:0.897" fill="#a9aaa9" d="M 323.5,463.5 C 324.5,463.5 325.5,463.5 326.5,463.5C 326.82,466.898 326.487,470.232 325.5,473.5C 324.914,473.291 324.414,472.957 324,472.5C 323.502,469.518 323.335,466.518 323.5,463.5 Z"/></g>
<g><path style="opacity:1" fill="#fafafa" d="M 194.5,466.5 C 211.785,466.217 223.951,473.884 231,489.5C 234.272,504.615 230.105,517.115 218.5,527C 234.395,535.237 243.729,548.237 246.5,566C 244.318,570.768 241.152,571.601 237,568.5C 231.818,542.481 215.985,530.981 189.5,534C 172.732,539.439 163.232,550.939 161,568.5C 158.333,571.167 155.667,571.167 153,568.5C 153.333,549.352 162.167,535.518 179.5,527C 167.895,517.115 163.728,504.615 167,489.5C 172.226,476.99 181.392,469.323 194.5,466.5 Z"/></g>
<g><path style="opacity:0.735" fill="#a9aaa9" d="M 822.5,471.5 C 823.5,471.5 824.5,471.5 825.5,471.5C 825.5,473.167 825.5,474.833 825.5,476.5C 821.952,476.905 818.619,476.405 815.5,475C 817.582,473.169 819.915,472.002 822.5,471.5 Z"/></g>
<g><path style="opacity:0.69" fill="#a9aaa9" d="M 695.5,472.5 C 697.144,472.286 698.644,472.62 700,473.5C 699.848,476.447 699.681,479.447 699.5,482.5C 698.167,482.5 696.833,482.5 695.5,482.5C 695.5,479.167 695.5,475.833 695.5,472.5 Z"/></g>
<g><path style="opacity:0.686" fill="#a9aaa9" d="M 704.5,472.5 C 707.187,472.336 709.854,472.503 712.5,473C 713.337,474.011 713.67,475.178 713.5,476.5C 710.167,476.5 706.833,476.5 703.5,476.5C 703.433,475.041 703.766,473.708 704.5,472.5 Z"/></g>
<g><path style="opacity:0.723" fill="#a9aaa9" d="M 716.5,472.5 C 722.176,472.334 727.843,472.501 733.5,473C 734.337,474.011 734.67,475.178 734.5,476.5C 728.167,476.5 721.833,476.5 715.5,476.5C 715.433,475.041 715.766,473.708 716.5,472.5 Z"/></g>
<g><path style="opacity:0.655" fill="#a9aaa9" d="M 736.5,472.5 C 738.857,472.337 741.19,472.503 743.5,473C 744.337,474.011 744.67,475.178 744.5,476.5C 741.5,476.5 738.5,476.5 735.5,476.5C 735.433,475.041 735.766,473.708 736.5,472.5 Z"/></g>
<g><path style="opacity:0.708" fill="#a9aaa9" d="M 746.5,472.5 C 748.527,472.338 750.527,472.505 752.5,473C 753.337,474.011 753.67,475.178 753.5,476.5C 751.143,476.663 748.81,476.497 746.5,476C 745.829,475.014 745.829,473.847 746.5,472.5 Z"/></g>
<g><path style="opacity:0.692" fill="#a9aaa9" d="M 755.5,472.5 C 760.844,472.334 766.177,472.501 771.5,473C 772.337,474.011 772.67,475.178 772.5,476.5C 766.5,476.5 760.5,476.5 754.5,476.5C 754.433,475.041 754.766,473.708 755.5,472.5 Z"/></g>
<g><path style="opacity:0.653" fill="#a9aaa9" d="M 774.5,472.5 C 776.857,472.337 779.19,472.503 781.5,473C 782.337,474.011 782.67,475.178 782.5,476.5C 779.5,476.5 776.5,476.5 773.5,476.5C 773.433,475.041 773.766,473.708 774.5,472.5 Z"/></g>
<g><path style="opacity:0.681" fill="#a9aaa9" d="M 784.5,472.5 C 786.527,472.338 788.527,472.505 790.5,473C 791.337,474.011 791.67,475.178 791.5,476.5C 789.143,476.663 786.81,476.497 784.5,476C 783.316,474.855 783.316,473.688 784.5,472.5 Z"/></g>
<g><path style="opacity:0.718" fill="#a9aaa9" d="M 793.5,472.5 C 799.842,472.334 806.175,472.5 812.5,473C 813.337,474.011 813.67,475.178 813.5,476.5C 806.5,476.5 799.5,476.5 792.5,476.5C 792.433,475.041 792.766,473.708 793.5,472.5 Z"/></g>
<g><path style="opacity:0.898" fill="#a9aaa9" d="M 323.5,475.5 C 326.336,476.776 329.336,477.442 332.5,477.5C 332.5,478.5 332.5,479.5 332.5,480.5C 329.5,480.5 326.5,480.5 323.5,480.5C 323.5,478.833 323.5,477.167 323.5,475.5 Z"/></g>
<g><path style="opacity:0.965" fill="#a9aaa9" d="M 335.5,477.5 C 343.167,477.5 350.833,477.5 358.5,477.5C 358.5,478.5 358.5,479.5 358.5,480.5C 350.833,480.5 343.167,480.5 335.5,480.5C 335.5,479.5 335.5,478.5 335.5,477.5 Z"/></g>
<g><path style="opacity:0.91" fill="#a9aaa9" d="M 360.5,477.5 C 364.167,477.5 367.833,477.5 371.5,477.5C 371.5,478.5 371.5,479.5 371.5,480.5C 368.15,480.665 364.817,480.498 361.5,480C 360.748,479.329 360.414,478.496 360.5,477.5 Z"/></g>
<g><path style="opacity:0.91" fill="#a9aaa9" d="M 375.5,477.5 C 379.5,477.5 383.5,477.5 387.5,477.5C 387.5,478.5 387.5,479.5 387.5,480.5C 383.5,480.5 379.5,480.5 375.5,480.5C 375.5,479.5 375.5,478.5 375.5,477.5 Z"/></g>
<g><path style="opacity:0.958" fill="#a9aaa9" d="M 390.5,477.5 C 398.833,477.5 407.167,477.5 415.5,477.5C 415.5,478.5 415.5,479.5 415.5,480.5C 407.167,480.5 398.833,480.5 390.5,480.5C 390.5,479.5 390.5,478.5 390.5,477.5 Z"/></g>
<g><path style="opacity:0.881" fill="#a9aaa9" d="M 417.5,477.5 C 421.167,477.5 424.833,477.5 428.5,477.5C 428.5,478.5 428.5,479.5 428.5,480.5C 424.833,480.5 421.167,480.5 417.5,480.5C 417.5,479.5 417.5,478.5 417.5,477.5 Z"/></g>
<g><path style="opacity:0.889" fill="#a9aaa9" d="M 431.5,477.5 C 436.032,477.069 440.365,477.569 444.5,479C 440.365,480.431 436.032,480.931 431.5,480.5C 431.5,479.5 431.5,478.5 431.5,477.5 Z"/></g>
<g><path style="opacity:0.923" fill="#a9aaa9" d="M 446.5,477.5 C 454.833,477.5 463.167,477.5 471.5,477.5C 471.5,478.5 471.5,479.5 471.5,480.5C 463.167,480.5 454.833,480.5 446.5,480.5C 446.5,479.5 446.5,478.5 446.5,477.5 Z"/></g>
<g><path style="opacity:0.926" fill="#a9aaa9" d="M 473.5,477.5 C 476.5,477.5 479.5,477.5 482.5,477.5C 482.5,478.5 482.5,479.5 482.5,480.5C 479.482,480.665 476.482,480.498 473.5,480C 472.402,479.23 472.402,478.397 473.5,477.5 Z"/></g>
<g><path style="opacity:0.763" fill="#a9aaa9" d="M 485.5,477.5 C 487.167,477.5 488.833,477.5 490.5,477.5C 490.5,480.5 490.5,483.5 490.5,486.5C 489.178,486.67 488.011,486.337 487,485.5C 486.433,482.832 485.933,480.166 485.5,477.5 Z"/></g>
<g><path style="opacity:1" fill="#46535b" d="M 195.5,477.5 C 213.377,477.875 222.211,486.875 222,504.5C 217.976,518.176 208.809,524.342 194.5,523C 177.346,516.867 172.179,505.367 179,488.5C 183.39,482.907 188.89,479.24 195.5,477.5 Z"/></g>
<g><path style="opacity:0.736" fill="#a9aaa9" d="M 695.5,485.5 C 696.833,485.5 698.167,485.5 699.5,485.5C 699.5,493.167 699.5,500.833 699.5,508.5C 698.167,508.5 696.833,508.5 695.5,508.5C 695.5,500.833 695.5,493.167 695.5,485.5 Z"/></g>
<g><path style="opacity:0.842" fill="#73797b" d="M 843.5,487.5 C 852.97,489.319 861.136,493.652 868,500.5C 870.039,498.126 872.372,496.126 875,494.5C 874.937,491.233 876.437,489.066 879.5,488C 897.474,485.567 902.141,492.567 893.5,509C 906.812,517.563 906.812,526.23 893.5,535C 897.447,541.077 898.114,547.41 895.5,554C 893.634,554.985 891.634,555.485 889.5,555.5C 885.963,555.064 882.297,554.898 878.5,555C 876.081,550.078 872.414,546.245 867.5,543.5C 862.314,548.594 856.314,552.427 849.5,555C 842.761,557.249 838.761,554.915 837.5,548C 838.373,542.715 840.039,537.715 842.5,533C 833.233,525.457 833.233,517.957 842.5,510.5C 838.541,504.218 837.375,497.552 839,490.5C 840.409,489.219 841.909,488.219 843.5,487.5 Z M 880.5,492.5 C 881.289,492.783 881.956,493.283 882.5,494C 881.184,494.528 880.517,494.028 880.5,492.5 Z M 843.5,493.5 C 851.392,494.613 858.059,498.113 863.5,504C 858.278,505.134 853.112,506.634 848,508.5C 844.587,504.092 843.087,499.092 843.5,493.5 Z M 886.5,493.5 C 888.199,493.34 889.866,493.506 891.5,494C 892.162,498.847 890.996,503.347 888,507.5C 882.64,505.855 877.14,504.688 871.5,504C 873.455,503.047 875.122,501.713 876.5,500C 879.623,499.794 882.623,499.127 885.5,498C 886.38,496.644 886.714,495.144 886.5,493.5 Z M 865.5,509.5 C 866.873,509.343 868.207,509.51 869.5,510C 872.833,514 876.167,518 879.5,522C 876.295,526.538 872.462,530.371 868,533.5C 867.167,533.333 866.333,533.167 865.5,533C 861.797,529.633 858.464,525.966 855.5,522C 859.047,517.959 862.38,513.792 865.5,509.5 Z M 877.5,511.5 C 880.134,510.468 882.801,510.801 885.5,512.5C 884.974,514.23 883.974,515.564 882.5,516.5C 881.145,514.479 879.479,512.812 877.5,511.5 Z M 854.5,511.5 C 855.239,511.369 855.906,511.536 856.5,512C 855.274,513.635 853.941,515.135 852.5,516.5C 851.713,515.758 851.047,514.925 850.5,514C 851.858,513.066 853.192,512.232 854.5,511.5 Z M 890.5,514.5 C 900.829,519.026 900.996,524.026 891,529.5C 889.247,526.995 887.747,524.329 886.5,521.5C 888.098,519.302 889.431,516.969 890.5,514.5 Z M 844.5,516.5 C 849.563,519.883 849.729,523.549 845,527.5C 840.528,523.991 840.361,520.324 844.5,516.5 Z M 882.5,526.5 C 883.601,527.848 884.601,529.348 885.5,531C 882.911,532.314 880.244,532.981 877.5,533C 879.539,531.074 881.206,528.907 882.5,526.5 Z M 851.5,527.5 C 854.323,528.148 855.823,529.814 856,532.5C 854.013,531.782 852.179,530.782 850.5,529.5C 850.863,528.817 851.196,528.15 851.5,527.5 Z M 846.5,535.5 C 852.115,536.82 857.782,537.986 863.5,539C 858.274,545.357 851.774,548.857 844,549.5C 843.668,544.65 844.502,539.984 846.5,535.5 Z M 886.5,536.5 C 887.496,536.414 888.329,536.748 889,537.5C 890.466,540.731 891.633,544.065 892.5,547.5C 891.383,550.313 889.55,550.98 887,549.5C 886.727,547.671 885.893,546.171 884.5,545C 879.113,545.28 874.78,543.28 871.5,539C 876.747,538.818 881.747,537.984 886.5,536.5 Z M 880.5,549.5 C 883.001,549.511 883.168,550.178 881,551.5C 880.536,550.906 880.369,550.239 880.5,549.5 Z"/></g>
<g><path style="opacity:0.731" fill="#a9aaa9" d="M 486.5,489.5 C 487.833,489.5 489.167,489.5 490.5,489.5C 490.5,497.167 490.5,504.833 490.5,512.5C 489.178,512.67 488.011,512.337 487,511.5C 486.5,504.174 486.334,496.841 486.5,489.5 Z"/></g>
<g><path style="opacity:0.698" fill="#a9aaa9" d="M 695.5,511.5 C 696.833,511.5 698.167,511.5 699.5,511.5C 699.5,515.167 699.5,518.833 699.5,522.5C 698.167,522.5 696.833,522.5 695.5,522.5C 695.5,518.833 695.5,515.167 695.5,511.5 Z"/></g>
<g><path style="opacity:0.69" fill="#a9aaa9" d="M 487.5,514.5 C 488.5,514.5 489.5,514.5 490.5,514.5C 490.5,518.167 490.5,521.833 490.5,525.5C 489.178,525.67 488.011,525.337 487,524.5C 486.253,521.076 486.42,517.743 487.5,514.5 Z"/></g>
<g><path style="opacity:0.81" fill="#73797b" d="M 864.5,517.5 C 871.716,516.688 873.716,519.355 870.5,525.5C 866.259,527.38 863.592,526.046 862.5,521.5C 863.18,520.14 863.847,518.807 864.5,517.5 Z"/></g>
<g><path style="opacity:0.716" fill="#a9aaa9" d="M 292.5,521.5 C 298.5,521.5 304.5,521.5 310.5,521.5C 310.67,522.822 310.337,523.989 309.5,525C 303.843,525.499 298.176,525.666 292.5,525.5C 292.5,524.167 292.5,522.833 292.5,521.5 Z"/></g>
<g><path style="opacity:0.673" fill="#a9aaa9" d="M 311.5,521.5 C 314.5,521.5 317.5,521.5 320.5,521.5C 320.5,522.833 320.5,524.167 320.5,525.5C 317.813,525.664 315.146,525.497 312.5,525C 311.663,523.989 311.33,522.822 311.5,521.5 Z"/></g>
<g><path style="opacity:0.693" fill="#a9aaa9" d="M 323.5,521.5 C 326.518,521.335 329.518,521.502 332.5,522C 333.833,523 333.833,524 332.5,525C 329.518,525.498 326.518,525.665 323.5,525.5C 323.5,524.167 323.5,522.833 323.5,521.5 Z"/></g>
<g><path style="opacity:0.719" fill="#a9aaa9" d="M 335.5,521.5 C 342.167,521.5 348.833,521.5 355.5,521.5C 355.67,522.822 355.337,523.989 354.5,525C 348.141,525.831 341.807,525.664 335.5,524.5C 334.209,523.473 334.209,522.473 335.5,521.5 Z"/></g>
<g><path style="opacity:0.688" fill="#a9aaa9" d="M 357.5,521.5 C 360.167,521.5 362.833,521.5 365.5,521.5C 365.5,522.833 365.5,524.167 365.5,525.5C 362.813,525.664 360.146,525.497 357.5,525C 356.316,523.855 356.316,522.688 357.5,521.5 Z"/></g>
<g><path style="opacity:0.692" fill="#a9aaa9" d="M 368.5,521.5 C 371.518,521.335 374.518,521.502 377.5,522C 378.833,523 378.833,524 377.5,525C 374.518,525.498 371.518,525.665 368.5,525.5C 368.5,524.167 368.5,522.833 368.5,521.5 Z"/></g>
<g><path style="opacity:0.718" fill="#a9aaa9" d="M 380.5,521.5 C 387.5,521.5 394.5,521.5 401.5,521.5C 401.67,522.822 401.337,523.989 400.5,525C 393.842,525.5 387.175,525.666 380.5,525.5C 380.5,524.167 380.5,522.833 380.5,521.5 Z"/></g>
<g><path style="opacity:0.684" fill="#a9aaa9" d="M 403.5,521.5 C 406.5,521.5 409.5,521.5 412.5,521.5C 412.5,522.833 412.5,524.167 412.5,525.5C 409.482,525.665 406.482,525.498 403.5,525C 402.316,523.855 402.316,522.688 403.5,521.5 Z"/></g>
<g><path style="opacity:0.713" fill="#a9aaa9" d="M 415.5,521.5 C 417.167,521.5 418.833,521.5 420.5,521.5C 420.665,524.518 420.498,527.518 420,530.5C 419,531.833 418,531.833 417,530.5C 416.498,527.487 415.998,524.487 415.5,521.5 Z"/></g>
<g><path style="opacity:0.674" fill="#a9a9a9" d="M 981.5,524.5 C 980.167,532.167 980.167,539.833 981.5,547.5C 980.167,547.5 978.833,547.5 977.5,547.5C 977.5,539.833 977.5,532.167 977.5,524.5C 978.833,523.167 980.167,523.167 981.5,524.5 Z"/></g>
<g><path style="opacity:0.691" fill="#a9aaa9" d="M 695.5,526.5 C 696.833,526.5 698.167,526.5 699.5,526.5C 699.666,530.514 699.499,534.514 699,538.5C 698,539.833 697,539.833 696,538.5C 695.501,534.514 695.334,530.514 695.5,526.5 Z"/></g>
<g><path style="opacity:0.707" fill="#a9aaa9" d="M 487.5,528.5 C 488.5,528.5 489.5,528.5 490.5,528.5C 490.5,532.5 490.5,536.5 490.5,540.5C 489.178,540.67 488.011,540.337 487,539.5C 486.245,535.745 486.411,532.078 487.5,528.5 Z"/></g>
<g><path style="opacity:0.693" fill="#a9aaa9" d="M 417.5,533.5 C 418.5,533.5 419.5,533.5 420.5,533.5C 420.341,542.994 420.341,552.327 420.5,561.5C 419.167,561.5 417.833,561.5 416.5,561.5C 416.56,552.425 416.893,543.092 417.5,533.5 Z"/></g>
<g><path style="opacity:0.736" fill="#a9aaa9" d="M 696.5,541.5 C 697.496,541.414 698.329,541.748 699,542.5C 699.237,553.199 699.737,563.866 700.5,574.5C 697.934,574.344 695.434,574.678 693,575.5C 691.72,575.387 690.887,574.72 690.5,573.5C 691.655,572.05 693.155,571.05 695,570.5C 695.192,560.756 695.692,551.09 696.5,541.5 Z"/></g>
<g><path style="opacity:0.741" fill="#a9aaa9" d="M 487.5,543.5 C 488.5,543.5 489.5,543.5 490.5,543.5C 490.267,553.865 490.6,564.198 491.5,574.5C 488.482,574.704 485.482,575.037 482.5,575.5C 482.5,574.167 482.5,572.833 482.5,571.5C 483.833,571.5 485.167,571.5 486.5,571.5C 486.195,562.083 486.528,552.75 487.5,543.5 Z"/></g>
<g><path style="opacity:0.68" fill="#a9aaa9" d="M 977.5,549.5 C 980.893,549.375 982.226,551.042 981.5,554.5C 982.226,557.958 980.893,559.625 977.5,559.5C 977.5,556.167 977.5,552.833 977.5,549.5 Z"/></g>
<g><path style="opacity:0.737" fill="#a9aaa9" d="M 416.5,562.5 C 417.833,562.5 419.167,562.5 420.5,562.5C 420.395,566.548 420.728,570.548 421.5,574.5C 418.934,574.344 416.434,574.678 414,575.5C 412.72,575.387 411.887,574.72 411.5,573.5C 412.655,572.05 414.155,571.05 416,570.5C 416.497,567.854 416.664,565.187 416.5,562.5 Z"/></g>
<g><path style="opacity:0.682" fill="#a9aaa9" d="M 977.5,562.5 C 978.833,562.5 980.167,562.5 981.5,562.5C 981.5,564.167 981.5,565.833 981.5,567.5C 978.482,567.665 975.482,567.498 972.5,567C 971.663,565.989 971.33,564.822 971.5,563.5C 973.735,563.795 975.735,563.461 977.5,562.5 Z"/></g>
<g><path style="opacity:0.714" fill="#a9aaa9" d="M 903.5,563.5 C 905.167,563.5 906.833,563.5 908.5,563.5C 908.002,566.487 907.502,569.487 907,572.5C 906,573.833 905,573.833 904,572.5C 903.502,569.518 903.335,566.518 903.5,563.5 Z"/></g>
<g><path style="opacity:0.686" fill="#a9aaa9" d="M 911.5,563.5 C 914.833,563.5 918.167,563.5 921.5,563.5C 921.625,566.893 919.958,568.226 916.5,567.5C 913.042,568.226 911.375,566.893 911.5,563.5 Z"/></g>
<g><path style="opacity:0.728" fill="#a9aaa9" d="M 923.5,563.5 C 928.167,563.5 932.833,563.5 937.5,563.5C 937.5,564.833 937.5,566.167 937.5,567.5C 932.786,567.827 928.12,567.493 923.5,566.5C 922.209,565.473 922.209,564.473 923.5,563.5 Z"/></g>
<g><path style="opacity:0.682" fill="#a9aaa9" d="M 938.5,563.5 C 948.174,563.819 958.174,563.986 968.5,564C 969.833,565 969.833,566 968.5,567C 958.231,567.021 948.231,567.188 938.5,567.5C 938.5,566.167 938.5,564.833 938.5,563.5 Z"/></g>
<g><path style="opacity:0.659" fill="#a9aaa9" d="M 430.5,579.5 C 426.5,578.833 424.167,576.5 423.5,572.5C 427.155,572.472 429.822,574.139 431.5,577.5C 431.137,578.183 430.804,578.85 430.5,579.5 Z"/></g>
<g><path style="opacity:0.695" fill="#a9aaa9" d="M 494.5,572.5 C 496.783,572.608 498.783,573.441 500.5,575C 501.93,576.88 501.596,578.38 499.5,579.5C 497.972,578.139 496.305,576.972 494.5,576C 493.316,574.855 493.316,573.688 494.5,572.5 Z"/></g>
<g><path style="opacity:0.699" fill="#a9aaa9" d="M 625.5,579.5 C 621.46,578.794 619.127,576.46 618.5,572.5C 623.212,572.545 625.545,574.878 625.5,579.5 Z"/></g>
<g><path style="opacity:0.701" fill="#a9aaa9" d="M 709.5,579.5 C 705.46,578.794 703.127,576.46 702.5,572.5C 707.212,572.545 709.545,574.878 709.5,579.5 Z"/></g>
<g><path style="opacity:0.982" fill="#7670b3" d="M 1046.5,572.5 C 1080.46,571.33 1104.62,585.997 1119,616.5C 1130.26,652.709 1120.43,681.542 1089.5,703C 1062.12,716.958 1035.79,715.292 1010.5,698C 986.118,676.308 978.618,649.808 988,618.5C 999.01,592.258 1018.51,576.925 1046.5,572.5 Z"/></g>
<g><path style="opacity:0.755" fill="#a9aaa9" d="M 406.5,593.5 C 405.504,593.586 404.671,593.252 404,592.5C 403.333,588.5 403.333,584.5 404,580.5C 405.216,578.032 406.883,576.032 409,574.5C 410.28,574.613 411.113,575.28 411.5,576.5C 407.174,581.486 405.507,587.153 406.5,593.5 Z"/></g>
<g><path style="opacity:0.722" fill="#a9aaa9" d="M 477.5,593.5 C 475.983,593.489 474.816,592.823 474,591.5C 472.081,584.52 473.915,578.853 479.5,574.5C 480.5,574.833 481.167,575.5 481.5,576.5C 480.533,578.63 479.366,580.63 478,582.5C 477.8,586.334 477.633,590.001 477.5,593.5 Z"/></g>
<g><path style="opacity:0.736" fill="#a9aaa9" d="M 601.5,593.5 C 600.504,593.586 599.671,593.252 599,592.5C 596.796,586.842 597.463,581.509 601,576.5C 602.11,574.963 603.61,574.297 605.5,574.5C 605.12,577.745 603.953,580.745 602,583.5C 601.984,586.941 601.817,590.274 601.5,593.5 Z"/></g>
<g><path style="opacity:0.745" fill="#a9aaa9" d="M 685.5,593.5 C 684.504,593.586 683.671,593.252 683,592.5C 681.062,586.894 681.729,581.561 685,576.5C 686.11,574.963 687.61,574.297 689.5,574.5C 689.12,577.745 687.953,580.745 686,583.5C 685.984,586.941 685.817,590.274 685.5,593.5 Z"/></g>
<g><path style="opacity:0.725" fill="#a9aaa9" d="M 903.5,575.5 C 904.833,575.5 906.167,575.5 907.5,575.5C 907.5,582.5 907.5,589.5 907.5,596.5C 906.167,596.5 904.833,596.5 903.5,596.5C 903.5,589.5 903.5,582.5 903.5,575.5 Z"/></g>
<g><path style="opacity:0.718" fill="#a9aaa9" d="M 430.5,579.5 C 432.411,579.574 433.578,580.574 434,582.5C 434.887,587.072 434.22,591.405 432,595.5C 430.736,597.607 428.903,598.607 426.5,598.5C 426.343,597.127 426.51,595.793 427,594.5C 428.385,593.449 429.385,592.116 430,590.5C 430.209,586.695 430.376,583.029 430.5,579.5 Z"/></g>
<g><path style="opacity:0.742" fill="#a9aaa9" d="M 501.5,579.5 C 502.75,579.577 503.583,580.244 504,581.5C 505.224,587.304 504.224,592.638 501,597.5C 499.12,598.93 497.62,598.596 496.5,596.5C 500.519,591.407 502.186,585.741 501.5,579.5 Z"/></g>
<g><path style="opacity:0.717" fill="#a9aaa9" d="M 625.5,579.5 C 626.496,579.414 627.329,579.748 628,580.5C 630.162,586.193 629.495,591.527 626,596.5C 624.89,598.037 623.39,598.703 621.5,598.5C 621.88,595.255 623.047,592.255 625,589.5C 625.016,586.059 625.183,582.726 625.5,579.5 Z"/></g>
<g><path style="opacity:0.727" fill="#a9aaa9" d="M 709.5,579.5 C 710.496,579.414 711.329,579.748 712,580.5C 714.162,586.193 713.495,591.527 710,596.5C 708.89,598.037 707.39,598.703 705.5,598.5C 705.918,595.235 707.085,592.235 709,589.5C 709.016,586.059 709.183,582.726 709.5,579.5 Z"/></g>
<g><path style="opacity:0.875" fill="#73797b" d="M 306.5,585.5 C 321.146,586.642 326.646,594.309 323,608.5C 319.835,614.834 316.169,620.834 312,626.5C 310,627.833 308,627.833 306,626.5C 299.559,619.118 295.393,610.618 293.5,601C 294.449,592.892 298.783,587.725 306.5,585.5 Z M 306.5,593.5 C 312.209,593.046 315.875,595.546 317.5,601C 315.316,606.536 312.483,611.703 309,616.5C 305.517,611.703 302.684,606.536 300.5,601C 301.608,597.732 303.608,595.232 306.5,593.5 Z"/></g>
<g><path style="opacity:0.657" fill="#a9aaa9" d="M 406.5,593.5 C 409.14,593.954 411.473,595.121 413.5,597C 414.841,598.826 414.341,599.993 412,600.5C 408.074,599.747 406.241,597.413 406.5,593.5 Z"/></g>
<g><path style="opacity:0.657" fill="#a9aaa9" d="M 477.5,593.5 C 481.5,594.167 483.833,596.5 484.5,600.5C 480.845,600.528 478.178,598.861 476.5,595.5C 476.863,594.817 477.196,594.15 477.5,593.5 Z"/></g>
<g><path style="opacity:0.693" fill="#a9aaa9" d="M 601.5,593.5 C 605.54,594.206 607.873,596.54 608.5,600.5C 603.788,600.455 601.455,598.122 601.5,593.5 Z"/></g>
<g><path style="opacity:0.699" fill="#a9aaa9" d="M 685.5,593.5 C 689.54,594.206 691.873,596.54 692.5,600.5C 687.788,600.455 685.455,598.122 685.5,593.5 Z"/></g>
<g><path style="opacity:0.84" fill="#73797b" d="M 305.5,596.5 C 313.605,595.56 315.938,598.727 312.5,606C 304.219,607.278 301.886,604.112 305.5,596.5 Z"/></g>
<g><path style="opacity:0.671" fill="#a9aaa9" d="M 421.5,597.5 C 422.833,597.5 424.167,597.5 425.5,597.5C 425.5,598.833 425.5,600.167 425.5,601.5C 422.507,602.135 419.507,602.301 416.5,602C 415.167,601 415.167,600 416.5,599C 418.382,598.802 420.048,598.302 421.5,597.5 Z"/></g>
<g><path style="opacity:0.701" fill="#a9aaa9" d="M 491.5,597.5 C 492.833,597.5 494.167,597.5 495.5,597.5C 495.5,598.833 495.5,600.167 495.5,601.5C 492.518,601.963 489.518,602.296 486.5,602.5C 486.5,601.167 486.5,599.833 486.5,598.5C 488.415,598.784 490.081,598.451 491.5,597.5 Z"/></g>
<g><path style="opacity:0.688" fill="#a9aaa9" d="M 616.5,597.5 C 618.346,597.222 619.68,597.889 620.5,599.5C 617.789,602.276 614.622,602.942 611,601.5C 610.517,600.552 610.351,599.552 610.5,598.5C 612.735,598.795 614.735,598.461 616.5,597.5 Z"/></g>
<g><path style="opacity:0.705" fill="#a9aaa9" d="M 700.5,597.5 C 703.694,597.176 704.694,598.342 703.5,601C 700.671,602.509 697.838,602.675 695,601.5C 694.383,600.551 694.549,599.718 695.5,599C 697.382,598.802 699.048,598.302 700.5,597.5 Z"/></g>
<g><path style="opacity:0.686" fill="#a9aaa9" d="M 903.5,598.5 C 904.833,598.5 906.167,598.5 907.5,598.5C 907.5,601.167 907.5,603.833 907.5,606.5C 906.167,606.5 904.833,606.5 903.5,606.5C 903.5,603.833 903.5,601.167 903.5,598.5 Z"/></g>
<g><path style="opacity:1" fill="#f9f9fb" d="M 1079.5,598.5 C 1090.15,597.656 1096.15,602.489 1097.5,613C 1096.97,620.053 1093.64,625.387 1087.5,629C 1083.38,629.514 1081.88,627.68 1083,623.5C 1086.72,620.793 1089.22,617.293 1090.5,613C 1089,607.18 1085.33,605.18 1079.5,607C 1077.5,609 1075.5,611 1073.5,613C 1071.53,613.495 1069.53,613.662 1067.5,613.5C 1067.34,611.473 1067.5,609.473 1068,607.5C 1071.18,603.462 1075.02,600.462 1079.5,598.5 Z"/></g>
<g><path style="opacity:0.681" fill="#a9aaa9" d="M 904.5,608.5 C 905.496,608.414 906.329,608.748 907,609.5C 907.667,612.167 907.667,614.833 907,617.5C 906,618.833 905,618.833 904,617.5C 903.264,614.408 903.431,611.408 904.5,608.5 Z"/></g>
<g><path style="opacity:0.961" fill="#272827" d="M 411.5,610.5 C 541.5,610.333 671.5,610.5 801.5,611C 817.213,613.713 826.713,622.879 830,638.5C 830.667,726.833 830.667,815.167 830,903.5C 826.609,917.225 818.109,926.058 804.5,930C 672.5,930.667 540.5,930.667 408.5,930C 394.481,925.98 385.981,916.813 383,902.5C 382.333,814.5 382.333,726.5 383,638.5C 386.465,622.867 395.965,613.534 411.5,610.5 Z M 814.5,657.5 C 814.667,733.501 814.5,809.501 814,885.5C 811.836,895.663 806.002,902.83 796.5,907C 782.239,908.449 767.906,908.949 753.5,908.5C 753.5,901.833 753.5,895.167 753.5,888.5C 655.5,888.5 557.5,888.5 459.5,888.5C 459.5,895.167 459.5,901.833 459.5,908.5C 445.094,908.949 430.761,908.449 416.5,907C 406.714,902.602 400.88,895.102 399,884.5C 398.5,808.834 398.333,733.167 398.5,657.5C 398.5,656.5 398.5,655.5 398.5,654.5C 537.167,654.5 675.833,654.5 814.5,654.5C 814.5,655.5 814.5,656.5 814.5,657.5 Z"/></g>
<g><path style="opacity:1" fill="#fafafc" d="M 1046.5,612.5 C 1068.33,611.005 1081,621.005 1084.5,642.5C 1079.86,667.656 1065.19,676.823 1040.5,670C 1027.63,662.433 1022.13,651.267 1024,636.5C 1027.24,624.424 1034.74,616.424 1046.5,612.5 Z"/></g>
<g><path style="opacity:0.894" fill="#73797b" d="M 288.5,613.5 C 294.662,612.156 296.662,614.322 294.5,620C 292.541,620.931 290.541,621.764 288.5,622.5C 287.336,629.142 287.169,635.808 288,642.5C 289.667,641.5 291.333,640.5 293,639.5C 293.333,634.5 293.667,629.5 294,624.5C 296,623.167 298,623.167 300,624.5C 300.333,629.5 300.667,634.5 301,639.5C 304.908,643.762 306.575,642.762 306,636.5C 311.544,634.364 313.877,636.364 313,642.5C 314.512,641.743 315.846,640.743 317,639.5C 317.333,634.5 317.667,629.5 318,624.5C 319.726,623.424 321.559,623.257 323.5,624C 324.307,629.083 324.807,634.25 325,639.5C 326.667,640.5 328.333,641.5 330,642.5C 330.831,635.808 330.664,629.142 329.5,622.5C 327.189,621.786 325.022,620.786 323,619.5C 321.739,613.92 323.906,612.087 329.5,614C 332.698,614.848 335.531,616.348 338,618.5C 338.811,629.547 338.644,640.547 337.5,651.5C 335.579,652.641 333.579,652.808 331.5,652C 327.921,650.294 324.421,648.461 321,646.5C 317.406,649.297 313.406,651.297 309,652.5C 304.594,651.297 300.594,649.297 297,646.5C 293.579,648.461 290.079,650.294 286.5,652C 284.421,652.808 282.421,652.641 280.5,651.5C 279.356,640.547 279.189,629.547 280,618.5C 282.682,616.415 285.516,614.748 288.5,613.5 Z"/></g>
<g><path style="opacity:0.713" fill="#a9aaa9" d="M 904.5,619.5 C 905.496,619.414 906.329,619.748 907,620.5C 907.667,626.833 907.667,633.167 907,639.5C 906,640.833 905,640.833 904,639.5C 903.208,632.753 903.374,626.086 904.5,619.5 Z"/></g>
<g><path style="opacity:1" fill="#7872b4" d="M 1048.5,621.5 C 1067.55,620.71 1076.05,629.71 1074,648.5C 1069.36,660.738 1060.53,665.572 1047.5,663C 1034.14,656.575 1029.97,646.408 1035,632.5C 1038.34,627.269 1042.84,623.602 1048.5,621.5 Z"/></g>
<g><path style="opacity:0.981" fill="#55c3ce" d="M 814.5,657.5 C 814.5,656.5 814.5,655.5 814.5,654.5C 675.833,654.5 537.167,654.5 398.5,654.5C 398.5,655.5 398.5,656.5 398.5,657.5C 398.005,643.109 404.671,633.276 418.5,628C 543.833,627.333 669.167,627.333 794.5,628C 808.337,633.282 815.004,643.115 814.5,657.5 Z"/></g>
<g><path style="opacity:1" fill="#f7f6fa" d="M 1059.5,629.5 C 1064.99,629.504 1066.82,632.171 1065,637.5C 1062.67,639.833 1060.33,642.167 1058,644.5C 1057.66,648.558 1056.99,652.558 1056,656.5C 1049.39,659.915 1046.55,657.748 1047.5,650C 1047.49,646.742 1047.99,643.575 1049,640.5C 1052.7,636.964 1056.2,633.298 1059.5,629.5 Z"/></g>
<g><path style="opacity:0.688" fill="#a9aaa9" d="M 904.5,641.5 C 905.496,641.414 906.329,641.748 907,642.5C 907.498,645.482 907.665,648.482 907.5,651.5C 906.167,651.5 904.833,651.5 903.5,651.5C 903.253,648.061 903.586,644.728 904.5,641.5 Z"/></g>
<g><path style="opacity:0.743" fill="#a9aaa9" d="M 856.5,642.5 C 859.5,642.5 862.5,642.5 865.5,642.5C 865.5,643.5 865.5,644.5 865.5,645.5C 862.167,645.833 858.833,646.167 855.5,646.5C 855.433,645.041 855.766,643.708 856.5,642.5 Z"/></g>
<g><path style="opacity:0.701" fill="#a9aaa9" d="M 867.5,643.5 C 871.945,643.863 874.279,646.197 874.5,650.5C 870.055,650.137 867.721,647.803 867.5,643.5 Z"/></g>
<g><path style="opacity:0.709" fill="#a9aaa9" d="M 851.5,645.5 C 853.252,645.418 854.252,646.251 854.5,648C 850.769,652.291 849.769,657.124 851.5,662.5C 850.68,664.111 849.346,664.778 847.5,664.5C 845.346,657.359 846.679,651.025 851.5,645.5 Z"/></g>
<g><path style="opacity:0.758" fill="#a9aaa9" d="M 873.5,651.5 C 874.833,651.5 876.167,651.5 877.5,651.5C 877.5,652.833 877.5,654.167 877.5,655.5C 883.176,655.334 888.843,655.501 894.5,656C 895.337,657.011 895.67,658.178 895.5,659.5C 889.5,659.5 883.5,659.5 877.5,659.5C 877.54,662.425 876.707,665.091 875,667.5C 873.89,669.037 872.39,669.703 870.5,669.5C 871.651,665.678 872.984,661.845 874.5,658C 873.923,655.863 873.59,653.696 873.5,651.5 Z"/></g>
<g><path style="opacity:0.698" fill="#a9aaa9" d="M 903.5,654.5 C 906.91,654.384 908.244,656.05 907.5,659.5C 904.167,659.5 900.833,659.5 897.5,659.5C 897.33,658.178 897.663,657.011 898.5,656C 900.382,655.802 902.048,655.302 903.5,654.5 Z"/></g>
<g><path style="opacity:0.695" fill="#a9aaa9" d="M 944.5,655.5 C 946.948,655.01 948.615,655.843 949.5,658C 948.873,660.135 948.373,662.302 948,664.5C 946.989,665.337 945.822,665.67 944.5,665.5C 944.5,662.167 944.5,658.833 944.5,655.5 Z"/></g>
<g><path style="opacity:0.686" fill="#a9aaa9" d="M 952.5,655.5 C 955.518,655.335 958.518,655.502 961.5,656C 962.833,657 962.833,658 961.5,659C 958.518,659.498 955.518,659.665 952.5,659.5C 952.5,658.167 952.5,656.833 952.5,655.5 Z"/></g>
<g><path style="opacity:0.723" fill="#a9aaa9" d="M 964.5,655.5 C 969.5,655.5 974.5,655.5 979.5,655.5C 979.5,656.833 979.5,658.167 979.5,659.5C 974.489,659.666 969.489,659.499 964.5,659C 963.316,657.855 963.316,656.688 964.5,655.5 Z"/></g>
<g><path style="opacity:1" fill="#f8f8fb" d="M 1019.5,655.5 C 1022.86,654.873 1024.86,656.206 1025.5,659.5C 1023.6,662.911 1021.1,665.911 1018,668.5C 1016.72,676.89 1020.22,680.057 1028.5,678C 1030.5,676 1032.5,674 1034.5,672C 1039.67,670.5 1041.5,672.333 1040,677.5C 1033.07,687.134 1024.57,688.968 1014.5,683C 1010.68,677.795 1009.51,671.962 1011,665.5C 1013.67,662 1016.5,658.667 1019.5,655.5 Z"/></g>
<g><path style="opacity:0.721" fill="#a9aaa9" d="M 851.5,664.5 C 854.971,665.633 856.971,667.967 857.5,671.5C 854.215,671.731 851.715,670.397 850,667.5C 849.761,666.212 850.261,665.212 851.5,664.5 Z"/></g>
<g><path style="opacity:0.72" fill="#a9aaa9" d="M 945.5,667.5 C 946.496,667.414 947.329,667.748 948,668.5C 948.499,674.491 948.666,680.491 948.5,686.5C 947.167,686.5 945.833,686.5 944.5,686.5C 944.209,680.077 944.542,673.744 945.5,667.5 Z"/></g>
<g><path style="opacity:0.651" fill="#a9aaa9" d="M 865.5,668.5 C 868.694,668.176 869.694,669.342 868.5,672C 865.649,673.289 862.649,673.789 859.5,673.5C 859.5,672.167 859.5,670.833 859.5,669.5C 861.735,669.795 863.735,669.461 865.5,668.5 Z"/></g>
<g><path style="opacity:0.982" fill="#ffca0a" d="M 158.5,669.5 C 198.753,669.926 222.253,689.926 229,729.5C 229.997,760.024 216.831,781.858 189.5,795C 157.334,805.838 130.834,798.005 110,771.5C 99.7912,755.115 96.7912,737.448 101,718.5C 109.839,689.858 129.005,673.525 158.5,669.5 Z"/></g>
<g><path style="opacity:0.965" fill="#f4928b" d="M 428.5,674.5 C 477.5,674.5 526.5,674.5 575.5,674.5C 575.5,677.167 575.5,679.833 575.5,682.5C 526.5,682.5 477.5,682.5 428.5,682.5C 428.5,679.833 428.5,677.167 428.5,674.5 Z"/></g>
<g><path style="opacity:0.974" fill="#3d8376" d="M 579.5,674.5 C 602.833,674.5 626.167,674.5 649.5,674.5C 649.5,694.833 649.5,715.167 649.5,735.5C 626.167,735.5 602.833,735.5 579.5,735.5C 579.5,715.167 579.5,694.833 579.5,674.5 Z"/></g>
<g><path style="opacity:0.955" fill="#435259" d="M 653.5,674.5 C 668.5,674.5 683.5,674.5 698.5,674.5C 698.5,694.833 698.5,715.167 698.5,735.5C 683.5,735.5 668.5,735.5 653.5,735.5C 653.5,715.167 653.5,694.833 653.5,674.5 Z"/></g>
<g><path style="opacity:0.976" fill="#435259" d="M 700.5,674.5 C 728.167,674.5 755.833,674.5 783.5,674.5C 783.5,694.833 783.5,715.167 783.5,735.5C 755.833,735.5 728.167,735.5 700.5,735.5C 700.5,715.167 700.5,694.833 700.5,674.5 Z"/></g>
<g><path style="opacity:0.886" fill="#f4928b" d="M 428.5,686.5 C 477.5,686.5 526.5,686.5 575.5,686.5C 575.5,689.5 575.5,692.5 575.5,695.5C 526.5,695.5 477.5,695.5 428.5,695.5C 428.5,692.5 428.5,689.5 428.5,686.5 Z"/></g>
<g><path style="opacity:0.644" fill="#a9aaa9" d="M 944.5,687.5 C 945.833,687.5 947.167,687.5 948.5,687.5C 948.5,689.167 948.5,690.833 948.5,692.5C 947.167,692.5 945.833,692.5 944.5,692.5C 944.5,690.833 944.5,689.167 944.5,687.5 Z"/></g>
<g><path style="opacity:0.719" fill="#a9aaa9" d="M 944.5,693.5 C 945.833,693.5 947.167,693.5 948.5,693.5C 948.5,695.167 948.5,696.833 948.5,698.5C 947.167,698.5 945.833,698.5 944.5,698.5C 944.5,696.833 944.5,695.167 944.5,693.5 Z"/></g>
<g><path style="opacity:1" fill="#fffdf8" d="M 150.5,694.5 C 155.006,693.527 157.172,695.194 157,699.5C 133.898,709.035 125.898,725.701 133,749.5C 138.394,759.21 146.394,765.877 157,769.5C 157.692,772.771 156.359,774.771 153,775.5C 129.82,766.942 119.82,750.275 123,725.5C 127.126,710.549 136.293,700.215 150.5,694.5 Z"/></g>
<g><path style="opacity:1" fill="#fffdfa" d="M 171.5,694.5 C 188.73,697.556 199.897,707.556 205,724.5C 208.678,750.51 198.178,767.51 173.5,775.5C 172.558,775.392 171.725,775.059 171,774.5C 170.333,772.833 170.333,771.167 171,769.5C 191.089,762.661 200.089,748.661 198,727.5C 193.833,714 185,705.167 171.5,701C 170.232,698.837 170.232,696.67 171.5,694.5 Z"/></g>
<g><path style="opacity:0.997" fill="#f4928b" d="M 428.5,699.5 C 477.5,699.5 526.5,699.5 575.5,699.5C 575.5,702.167 575.5,704.833 575.5,707.5C 526.5,707.5 477.5,707.5 428.5,707.5C 428.5,704.833 428.5,702.167 428.5,699.5 Z"/></g>
<g><path style="opacity:0.708" fill="#a9aaa9" d="M 944.5,699.5 C 945.833,699.5 947.167,699.5 948.5,699.5C 948.666,704.179 948.499,708.845 948,713.5C 946.989,714.337 945.822,714.67 944.5,714.5C 944.5,709.5 944.5,704.5 944.5,699.5 Z"/></g>
<g><path style="opacity:0.878" fill="#73797b" d="M 982.5,703.5 C 985.724,703.203 988.724,703.87 991.5,705.5C 993.059,708.132 994.726,710.632 996.5,713C 999,713.833 1001.5,714.667 1004,715.5C 1010.38,711.947 1015.38,713.28 1019,719.5C 1019.94,727.239 1016.44,731.405 1008.5,732C 1004.08,735.541 1001.75,740.041 1001.5,745.5C 1004.69,746.338 1007.85,747.338 1011,748.5C 1023.2,744.037 1027.86,748.037 1025,760.5C 1020.97,765.061 1016.47,765.561 1011.5,762C 1010.46,759.443 1009.12,757.11 1007.5,755C 1004.59,753.963 1001.76,752.796 999,751.5C 995.817,753.523 992.317,754.023 988.5,753C 984.329,749.146 983.496,744.646 986,739.5C 988.674,737.129 991.841,735.963 995.5,736C 998.237,732.933 1000.57,729.599 1002.5,726C 1002.1,724.527 1001.43,723.194 1000.5,722C 997.488,721.22 994.655,720.053 992,718.5C 987.715,722.459 983.382,722.459 979,718.5C 975.342,712.318 976.509,707.318 982.5,703.5 Z M 984.5,710.5 C 988.31,711.754 988.31,712.754 984.5,713.5C 984.5,712.5 984.5,711.5 984.5,710.5 Z M 1009.5,720.5 C 1012.57,720.963 1013.07,722.296 1011,724.5C 1009.81,723.437 1009.31,722.103 1009.5,720.5 Z M 992.5,743.5 C 994.048,743.821 994.715,744.821 994.5,746.5C 991.752,746.598 991.086,745.598 992.5,743.5 Z M 1016.5,753.5 C 1019.57,753.963 1020.07,755.296 1018,757.5C 1016.81,756.437 1016.31,755.103 1016.5,753.5 Z"/></g>
<g><path style="opacity:0.858" fill="#f4928b" d="M 428.5,711.5 C 477.5,711.5 526.5,711.5 575.5,711.5C 575.5,714.5 575.5,717.5 575.5,720.5C 526.5,720.5 477.5,720.5 428.5,720.5C 428.5,717.5 428.5,714.5 428.5,711.5 Z"/></g>
<g><path style="opacity:1" fill="#fffefa" d="M 181.5,715.5 C 185.487,715.652 186.987,717.652 186,721.5C 181.667,728.5 177.333,735.5 173,742.5C 164.744,747.713 156.244,752.546 147.5,757C 142.917,757.934 141.417,756.1 143,751.5C 147.333,744.5 151.667,737.5 156,730.5C 164.481,725.348 172.981,720.348 181.5,715.5 Z"/></g>
<g><path style="opacity:0.665" fill="#a9aaa9" d="M 857.5,716.5 C 859.857,716.337 862.19,716.503 864.5,717C 865.833,718 865.833,719 864.5,720C 862.109,720.287 859.776,720.787 857.5,721.5C 854.839,719.828 854.839,718.161 857.5,716.5 Z"/></g>
<g><path style="opacity:0.686" fill="#a9aaa9" d="M 944.5,716.5 C 947.893,716.375 949.226,718.042 948.5,721.5C 949.226,724.958 947.893,726.625 944.5,726.5C 944.5,723.167 944.5,719.833 944.5,716.5 Z"/></g>
<g><path style="opacity:0.75" fill="#a9aaa9" d="M 867.5,718.5 C 871.693,718.362 874.027,720.362 874.5,724.5C 870.307,724.638 867.973,722.638 867.5,718.5 Z"/></g>
<g><path style="opacity:0.75" fill="#a9aaa9" d="M 851.5,720.5 C 852.5,720.5 853.5,720.5 854.5,720.5C 853.648,723.223 852.481,725.89 851,728.5C 850.457,731.868 850.624,735.201 851.5,738.5C 850.167,738.5 848.833,738.5 847.5,738.5C 845.422,731.686 846.755,725.686 851.5,720.5 Z"/></g>
<g><path style="opacity:0.758" fill="#a9aaa9" d="M 352.5,721.5 C 355.167,721.5 357.833,721.5 360.5,721.5C 360.688,723.103 360.188,724.437 359,725.5C 356.712,725.263 354.212,725.263 351.5,725.5C 351.433,724.041 351.766,722.708 352.5,721.5 Z"/></g>
<g><path style="opacity:0.648" fill="#a9aaa9" d="M 363.5,722.5 C 367.537,723.204 369.87,725.537 370.5,729.5C 367.579,729.854 365.246,728.854 363.5,726.5C 362.374,725.192 362.374,723.858 363.5,722.5 Z"/></g>
<g><path style="opacity:0.965" fill="#f4928b" d="M 428.5,724.5 C 477.5,724.5 526.5,724.5 575.5,724.5C 575.5,727.167 575.5,729.833 575.5,732.5C 526.5,732.5 477.5,732.5 428.5,732.5C 428.5,729.833 428.5,727.167 428.5,724.5 Z"/></g>
<g><path style="opacity:0.751" fill="#a9aaa9" d="M 346.5,725.5 C 347.833,725.5 349.167,725.5 350.5,725.5C 350.046,728.14 348.879,730.473 347,732.5C 346.501,736.152 346.335,739.818 346.5,743.5C 343.53,743.254 342.197,741.588 342.5,738.5C 337.833,738.5 333.167,738.5 328.5,738.5C 328.5,737.167 328.5,735.833 328.5,734.5C 333.099,734.2 337.599,734.533 342,735.5C 342.836,731.809 344.336,728.476 346.5,725.5 Z"/></g>
<g><path style="opacity:0.763" fill="#a9aaa9" d="M 873.5,725.5 C 876.91,725.384 878.244,727.05 877.5,730.5C 883.5,730.5 889.5,730.5 895.5,730.5C 895.67,731.822 895.337,732.989 894.5,734C 888.843,734.499 883.176,734.666 877.5,734.5C 877.511,738.81 875.677,742.143 872,744.5C 871.667,744.167 871.333,743.833 871,743.5C 872.015,739.741 873.181,735.908 874.5,732C 873.923,729.863 873.59,727.696 873.5,725.5 Z"/></g>
<g><path style="opacity:0.671" fill="#a9aaa9" d="M 945.5,728.5 C 947.913,729.68 948.913,731.68 948.5,734.5C 945.482,734.665 942.482,734.498 939.5,734C 938.663,732.989 938.33,731.822 938.5,730.5C 940.527,730.662 942.527,730.495 944.5,730C 945.056,729.617 945.389,729.117 945.5,728.5 Z"/></g>
<g><path style="opacity:0.735" fill="#a9aaa9" d="M 369.5,730.5 C 370.822,730.33 371.989,730.663 373,731.5C 374.451,737.639 373.284,743.139 369.5,748C 368.207,748.49 366.873,748.657 365.5,748.5C 367.541,744.91 369.207,741.076 370.5,737C 369.577,734.959 369.244,732.792 369.5,730.5 Z"/></g>
<g><path style="opacity:0.648" fill="#a9aaa9" d="M 897.5,730.5 C 900.167,730.5 902.833,730.5 905.5,730.5C 905.763,733.734 904.263,735.068 901,734.5C 897.289,734.973 896.122,733.639 897.5,730.5 Z"/></g>
<g><path style="opacity:0.638" fill="#a9aaa9" d="M 906.5,730.5 C 909.167,730.5 911.833,730.5 914.5,730.5C 914.845,733.488 913.512,734.821 910.5,734.5C 907.488,734.821 906.155,733.488 906.5,730.5 Z"/></g>
<g><path style="opacity:0.731" fill="#a9aaa9" d="M 915.5,730.5 C 922.175,730.334 928.842,730.5 935.5,731C 936.815,732.395 936.481,733.395 934.5,734C 928.5,734.667 922.5,734.667 916.5,734C 915.663,732.989 915.33,731.822 915.5,730.5 Z"/></g>
<g><path style="opacity:0.846" fill="#a9aaa9" d="M 239.5,732.5 C 246.799,733.35 254.132,733.683 261.5,733.5C 261.915,735.948 260.915,737.281 258.5,737.5C 251.872,736.576 245.206,736.243 238.5,736.5C 238.433,735.041 238.766,733.708 239.5,732.5 Z"/></g>
<g><path style="opacity:0.668" fill="#a9aaa9" d="M 263.5,733.5 C 266.518,733.335 269.518,733.502 272.5,734C 273.833,735 273.833,736 272.5,737C 269.833,737.667 267.167,737.667 264.5,737C 263.663,735.989 263.33,734.822 263.5,733.5 Z"/></g>
<g><path style="opacity:0.688" fill="#a9aaa9" d="M 275.5,733.5 C 278.167,733.5 280.833,733.5 283.5,733.5C 283.5,734.833 283.5,736.167 283.5,737.5C 280.833,737.5 278.167,737.5 275.5,737.5C 275.5,736.167 275.5,734.833 275.5,733.5 Z"/></g>
<g><path style="opacity:0.85" fill="#a9aaa9" d="M 285.5,733.5 C 291.815,734.11 298.149,734.443 304.5,734.5C 304.5,735.5 304.5,736.5 304.5,737.5C 298.167,737.5 291.833,737.5 285.5,737.5C 285.5,736.167 285.5,734.833 285.5,733.5 Z"/></g>
<g><path style="opacity:0.695" fill="#a9aaa9" d="M 306.5,734.5 C 310.048,734.095 313.381,734.595 316.5,736C 313.986,738.376 310.986,739.043 307.5,738C 306.663,736.989 306.33,735.822 306.5,734.5 Z"/></g>
<g><path style="opacity:0.694" fill="#a9aaa9" d="M 318.5,734.5 C 321.167,734.5 323.833,734.5 326.5,734.5C 326.5,735.833 326.5,737.167 326.5,738.5C 323.833,738.5 321.167,738.5 318.5,738.5C 318.5,737.167 318.5,735.833 318.5,734.5 Z"/></g>
<g><path style="opacity:1" fill="#ffcf2d" d="M 161.5,735.5 C 163.384,735.712 164.717,736.712 165.5,738.5C 157.08,744.643 155.746,743.643 161.5,735.5 Z"/></g>
<g><path style="opacity:0.886" fill="#f4928b" d="M 428.5,736.5 C 477.5,736.5 526.5,736.5 575.5,736.5C 575.5,739.5 575.5,742.5 575.5,745.5C 526.5,745.5 477.5,745.5 428.5,745.5C 428.5,742.5 428.5,739.5 428.5,736.5 Z"/></g>
<g><path style="opacity:0.877" fill="#3d8376" d="M 579.5,738.5 C 602.833,738.5 626.167,738.5 649.5,738.5C 649.5,741.5 649.5,744.5 649.5,747.5C 626.167,747.5 602.833,747.5 579.5,747.5C 579.5,744.5 579.5,741.5 579.5,738.5 Z"/></g>
<g><path style="opacity:0.972" fill="#feca04" d="M 653.5,738.5 C 696.833,738.5 740.167,738.5 783.5,738.5C 783.5,753.833 783.5,769.167 783.5,784.5C 740.167,784.5 696.833,784.5 653.5,784.5C 653.5,769.167 653.5,753.833 653.5,738.5 Z"/></g>
<g><path style="opacity:0.664" fill="#a9aaa9" d="M 850.5,739.5 C 854.54,740.206 856.873,742.54 857.5,746.5C 852.56,746.233 850.226,743.9 850.5,739.5 Z"/></g>
<g><path style="opacity:0.775" fill="#a9aaa9" d="M 863.5,743.5 C 865.199,743.34 866.866,743.506 868.5,744C 869.711,744.893 869.711,745.726 868.5,746.5C 865.579,747.407 862.579,747.74 859.5,747.5C 859.5,746.5 859.5,745.5 859.5,744.5C 861.099,744.768 862.432,744.434 863.5,743.5 Z"/></g>
<g><path style="opacity:0.682" fill="#a9aaa9" d="M 345.5,744.5 C 349.76,744.614 352.26,746.614 353,750.5C 352.586,750.957 352.086,751.291 351.5,751.5C 348.005,750.345 346.005,748.012 345.5,744.5 Z"/></g>
<g><path style="opacity:0.723" fill="#a9aaa9" d="M 362.5,747.5 C 364.476,748.427 364.809,749.76 363.5,751.5C 360.916,752.393 358.249,752.726 355.5,752.5C 355.5,751.167 355.5,749.833 355.5,748.5C 358.059,748.802 360.393,748.468 362.5,747.5 Z"/></g>
<g><path style="opacity:0.886" fill="#f4928b" d="M 428.5,748.5 C 477.5,748.5 526.5,748.5 575.5,748.5C 575.5,751.5 575.5,754.5 575.5,757.5C 526.5,757.5 477.5,757.5 428.5,757.5C 428.5,754.5 428.5,751.5 428.5,748.5 Z"/></g>
<g><path style="opacity:0.955" fill="#3d8376" d="M 579.5,751.5 C 602.833,751.5 626.167,751.5 649.5,751.5C 649.5,754.167 649.5,756.833 649.5,759.5C 626.167,759.5 602.833,759.5 579.5,759.5C 579.5,756.833 579.5,754.167 579.5,751.5 Z"/></g>
<g><path style="opacity:0.965" fill="#f4928b" d="M 428.5,761.5 C 477.5,761.5 526.5,761.5 575.5,761.5C 575.5,764.167 575.5,766.833 575.5,769.5C 526.5,769.5 477.5,769.5 428.5,769.5C 428.5,766.833 428.5,764.167 428.5,761.5 Z"/></g>
<g><path style="opacity:0.876" fill="#3d8376" d="M 579.5,763.5 C 602.833,763.5 626.167,763.5 649.5,763.5C 649.5,766.5 649.5,769.5 649.5,772.5C 626.167,772.5 602.833,772.5 579.5,772.5C 579.5,769.5 579.5,766.5 579.5,763.5 Z"/></g>
<g><path style="opacity:0.685" fill="#a9aaa9" d="M 858.5,764.5 C 860.527,764.338 862.527,764.505 864.5,765C 865.833,766 865.833,767 864.5,768C 862.109,768.287 859.776,768.787 857.5,769.5C 855.889,768.68 855.222,767.346 855.5,765.5C 856.791,765.737 857.791,765.404 858.5,764.5 Z"/></g>
<g><path style="opacity:0.721" fill="#a9aaa9" d="M 873.5,773.5 C 870.054,772.388 868.054,770.055 867.5,766.5C 872.556,766.538 874.556,768.872 873.5,773.5 Z"/></g>
<g><path style="opacity:0.735" fill="#a9aaa9" d="M 851.5,768.5 C 852.5,768.5 853.5,768.5 854.5,768.5C 854.159,771.516 852.993,774.182 851,776.5C 850.457,779.868 850.624,783.201 851.5,786.5C 847.519,786.573 845.853,784.573 846.5,780.5C 846.619,775.796 848.286,771.796 851.5,768.5 Z"/></g>
<g><path style="opacity:0.886" fill="#f4928b" d="M 428.5,773.5 C 477.5,773.5 526.5,773.5 575.5,773.5C 575.5,776.5 575.5,779.5 575.5,782.5C 526.5,782.5 477.5,782.5 428.5,782.5C 428.5,779.5 428.5,776.5 428.5,773.5 Z"/></g>
<g><path style="opacity:0.741" fill="#a9aaa9" d="M 873.5,773.5 C 876.91,773.384 878.244,775.05 877.5,778.5C 885.167,778.5 892.833,778.5 900.5,778.5C 900.67,779.822 900.337,780.989 899.5,782C 892.174,782.5 884.841,782.666 877.5,782.5C 877.543,787.083 875.543,790.417 871.5,792.5C 871.167,791.833 870.833,791.167 870.5,790.5C 872.279,787.373 873.613,784.04 874.5,780.5C 873.777,778.218 873.443,775.884 873.5,773.5 Z"/></g>
<g><path style="opacity:0.876" fill="#3d8376" d="M 579.5,775.5 C 602.833,775.5 626.167,775.5 649.5,775.5C 649.5,778.5 649.5,781.5 649.5,784.5C 626.167,784.5 602.833,784.5 579.5,784.5C 579.5,781.5 579.5,778.5 579.5,775.5 Z"/></g>
<g><path style="opacity:0.702" fill="#a9aaa9" d="M 902.5,778.5 C 905.833,778.5 909.167,778.5 912.5,778.5C 912.625,781.893 910.958,783.226 907.5,782.5C 904.042,783.226 902.375,781.893 902.5,778.5 Z"/></g>
<g><path style="opacity:0.695" fill="#a9aaa9" d="M 914.5,778.5 C 917.5,778.5 920.5,778.5 923.5,778.5C 923.763,781.734 922.263,783.068 919,782.5C 915.737,783.068 914.237,781.734 914.5,778.5 Z"/></g>
<g><path style="opacity:0.737" fill="#a9aaa9" d="M 925.5,778.5 C 932.167,778.5 938.833,778.5 945.5,778.5C 945.5,779.833 945.5,781.167 945.5,782.5C 939.158,782.666 932.825,782.5 926.5,782C 925.663,780.989 925.33,779.822 925.5,778.5 Z"/></g>
<g><path style="opacity:0.697" fill="#a9aaa9" d="M 948.5,778.5 C 951.5,778.5 954.5,778.5 957.5,778.5C 957.5,779.833 957.5,781.167 957.5,782.5C 954.482,782.665 951.482,782.498 948.5,782C 947.316,780.855 947.316,779.688 948.5,778.5 Z"/></g>
<g><path style="opacity:0.697" fill="#a9aaa9" d="M 960.5,778.5 C 963.5,778.5 966.5,778.5 969.5,778.5C 969.763,781.734 968.263,783.068 965,782.5C 961.737,783.068 960.237,781.734 960.5,778.5 Z"/></g>
<g><path style="opacity:0.731" fill="#a9aaa9" d="M 971.5,778.5 C 978.5,778.5 985.5,778.5 992.5,778.5C 992.67,779.822 992.337,780.989 991.5,782C 984.833,782.667 978.167,782.667 971.5,782C 970.316,780.855 970.316,779.688 971.5,778.5 Z"/></g>
<g><path style="opacity:0.766" fill="#a9aaa9" d="M 995.5,778.5 C 998.5,778.5 1001.5,778.5 1004.5,778.5C 1004.5,780.167 1004.5,781.833 1004.5,783.5C 1001.83,783.067 999.168,782.567 996.5,782C 995.663,780.989 995.33,779.822 995.5,778.5 Z"/></g>
<g><path style="opacity:0.997" fill="#f4928b" d="M 428.5,786.5 C 477.5,786.5 526.5,786.5 575.5,786.5C 575.5,789.167 575.5,791.833 575.5,794.5C 526.5,794.5 477.5,794.5 428.5,794.5C 428.5,791.833 428.5,789.167 428.5,786.5 Z"/></g>
<g><path style="opacity:0.928" fill="#a9aaa9" d="M 1001.5,786.5 C 1002.5,786.5 1003.5,786.5 1004.5,786.5C 1004.91,790.048 1004.41,793.381 1003,796.5C 1001.59,793.381 1001.09,790.048 1001.5,786.5 Z"/></g>
<g><path style="opacity:0.663" fill="#a9aaa9" d="M 850.5,787.5 C 854.54,788.206 856.873,790.54 857.5,794.5C 852.56,794.233 850.226,791.9 850.5,787.5 Z"/></g>
<g><path style="opacity:0.955" fill="#3d8376" d="M 579.5,788.5 C 602.833,788.5 626.167,788.5 649.5,788.5C 649.5,791.167 649.5,793.833 649.5,796.5C 626.167,796.5 602.833,796.5 579.5,796.5C 579.5,793.833 579.5,791.167 579.5,788.5 Z"/></g>
<g><path style="opacity:0.957" fill="#f38244" d="M 653.5,788.5 C 696.833,788.5 740.167,788.5 783.5,788.5C 783.5,791.167 783.5,793.833 783.5,796.5C 740.167,796.5 696.833,796.5 653.5,796.5C 653.5,793.833 653.5,791.167 653.5,788.5 Z"/></g>
<g><path style="opacity:0.722" fill="#a9aaa9" d="M 353.5,789.5 C 355.833,789.5 358.167,789.5 360.5,789.5C 360.5,790.833 360.5,792.167 360.5,793.5C 357.881,793.232 355.381,793.565 353,794.5C 350.99,792.604 351.157,790.937 353.5,789.5 Z"/></g>
<g><path style="opacity:0.65" fill="#a9aaa9" d="M 363.5,790.5 C 367.537,791.204 369.87,793.537 370.5,797.5C 367.579,797.854 365.246,796.854 363.5,794.5C 362.374,793.192 362.374,791.858 363.5,790.5 Z"/></g>
<g><path style="opacity:0.769" fill="#a9aaa9" d="M 864.5,791.5 C 865.873,791.343 867.207,791.51 868.5,792C 869.833,793 869.833,794 868.5,795C 865.518,795.498 862.518,795.665 859.5,795.5C 859.5,794.5 859.5,793.5 859.5,792.5C 861.415,792.784 863.081,792.451 864.5,791.5 Z"/></g>
<g><path style="opacity:0.749" fill="#a9aaa9" d="M 346.5,793.5 C 347.833,793.5 349.167,793.5 350.5,793.5C 350.046,796.14 348.879,798.473 347,800.5C 346.501,804.152 346.335,807.818 346.5,811.5C 343.53,811.254 342.197,809.588 342.5,806.5C 334.833,806.5 327.167,806.5 319.5,806.5C 319.5,805.167 319.5,803.833 319.5,802.5C 327.196,802.831 334.862,802.497 342.5,801.5C 343.424,798.591 344.757,795.924 346.5,793.5 Z"/></g>
<g><path style="opacity:0.882" fill="#a9aaa9" d="M 1001.5,797.5 C 1002.5,797.5 1003.5,797.5 1004.5,797.5C 1004.5,801.5 1004.5,805.5 1004.5,809.5C 1003.5,809.5 1002.5,809.5 1001.5,809.5C 1001.5,805.5 1001.5,801.5 1001.5,797.5 Z"/></g>
<g><path style="opacity:0.743" fill="#a9aaa9" d="M 369.5,798.5 C 370.822,798.33 371.989,798.663 373,799.5C 374.451,805.639 373.284,811.139 369.5,816C 368.207,816.49 366.873,816.657 365.5,816.5C 367.389,813.046 369.056,809.379 370.5,805.5C 369.626,803.253 369.292,800.92 369.5,798.5 Z"/></g>
<g><path style="opacity:0.858" fill="#f4928b" d="M 428.5,798.5 C 477.5,798.5 526.5,798.5 575.5,798.5C 575.5,801.5 575.5,804.5 575.5,807.5C 526.5,807.5 477.5,807.5 428.5,807.5C 428.5,804.5 428.5,801.5 428.5,798.5 Z"/></g>
<g><path style="opacity:0.849" fill="#3d8376" d="M 579.5,800.5 C 602.833,800.5 626.167,800.5 649.5,800.5C 649.5,803.5 649.5,806.5 649.5,809.5C 626.167,809.5 602.833,809.5 579.5,809.5C 579.5,806.5 579.5,803.5 579.5,800.5 Z"/></g>
<g><path style="opacity:0.852" fill="#f38244" d="M 653.5,800.5 C 696.833,800.5 740.167,800.5 783.5,800.5C 783.5,803.5 783.5,806.5 783.5,809.5C 740.167,809.5 696.833,809.5 653.5,809.5C 653.5,806.5 653.5,803.5 653.5,800.5 Z"/></g>
<g><path style="opacity:0.696" fill="#a9aaa9" d="M 209.5,802.5 C 212.518,802.335 215.518,802.502 218.5,803C 219.833,804 219.833,805 218.5,806C 215.522,806.696 212.522,807.196 209.5,807.5C 209.5,805.833 209.5,804.167 209.5,802.5 Z"/></g>
<g><path style="opacity:0.713" fill="#a9aaa9" d="M 222.5,802.5 C 229.508,802.334 236.508,802.5 243.5,803C 244.833,804 244.833,805 243.5,806C 236.174,806.5 228.841,806.666 221.5,806.5C 221.433,805.041 221.766,803.708 222.5,802.5 Z"/></g>
<g><path style="opacity:0.701" fill="#a9aaa9" d="M 246.5,802.5 C 249.187,802.336 251.854,802.503 254.5,803C 255.833,804 255.833,805 254.5,806C 251.833,806.667 249.167,806.667 246.5,806C 245.316,804.855 245.316,803.688 246.5,802.5 Z"/></g>
<g><path style="opacity:0.673" fill="#a9aaa9" d="M 258.5,802.5 C 261.833,802.5 265.167,802.5 268.5,802.5C 268.5,803.833 268.5,805.167 268.5,806.5C 265.15,806.665 261.817,806.498 258.5,806C 257.316,804.855 257.316,803.688 258.5,802.5 Z"/></g>
<g><path style="opacity:0.721" fill="#a9aaa9" d="M 271.5,802.5 C 278.5,802.5 285.5,802.5 292.5,802.5C 292.5,803.833 292.5,805.167 292.5,806.5C 285.492,806.666 278.492,806.5 271.5,806C 270.316,804.855 270.316,803.688 271.5,802.5 Z"/></g>
<g><path style="opacity:0.7" fill="#a9aaa9" d="M 294.5,802.5 C 297.5,802.5 300.5,802.5 303.5,802.5C 303.5,803.833 303.5,805.167 303.5,806.5C 300.5,806.5 297.5,806.5 294.5,806.5C 294.5,805.167 294.5,803.833 294.5,802.5 Z"/></g>
<g><path style="opacity:0.673" fill="#a9aaa9" d="M 306.5,802.5 C 309.85,802.335 313.183,802.502 316.5,803C 317.833,804 317.833,805 316.5,806C 313.183,806.498 309.85,806.665 306.5,806.5C 306.5,805.167 306.5,803.833 306.5,802.5 Z"/></g>
<g><path style="opacity:0.687" fill="#a9aaa9" d="M 209.5,810.5 C 210.833,810.5 212.167,810.5 213.5,810.5C 213.665,813.518 213.498,816.518 213,819.5C 212,820.833 211,820.833 210,819.5C 209.502,816.518 209.335,813.518 209.5,810.5 Z"/></g>
<g><path style="opacity:0.984" fill="#435259" d="M 428.5,810.5 C 477.5,810.5 526.5,810.5 575.5,810.5C 575.5,830.833 575.5,851.167 575.5,871.5C 526.5,871.5 477.5,871.5 428.5,871.5C 428.5,851.167 428.5,830.833 428.5,810.5 Z"/></g>
<g><path style="opacity:0.648" fill="#a9aaa9" d="M 345.5,812.5 C 349.76,812.614 352.26,814.614 353,818.5C 348.711,819.069 346.211,817.069 345.5,812.5 Z"/></g>
<g><path style="opacity:0.986" fill="#3d8376" d="M 579.5,813.5 C 602.833,813.5 626.167,813.5 649.5,813.5C 649.5,816.167 649.5,818.833 649.5,821.5C 626.167,821.5 602.833,821.5 579.5,821.5C 579.5,818.833 579.5,816.167 579.5,813.5 Z"/></g>
<g><path style="opacity:0.988" fill="#f38244" d="M 653.5,813.5 C 696.833,813.5 740.167,813.5 783.5,813.5C 783.5,816.167 783.5,818.833 783.5,821.5C 740.167,821.5 696.833,821.5 653.5,821.5C 653.5,818.833 653.5,816.167 653.5,813.5 Z"/></g>
<g><path style="opacity:0.785" fill="#a9aaa9" d="M 358.5,816.5 C 360.5,816.5 362.5,816.5 364.5,816.5C 364.67,817.822 364.337,818.989 363.5,820C 360.854,820.497 358.187,820.664 355.5,820.5C 355.5,819.5 355.5,818.5 355.5,817.5C 356.791,817.737 357.791,817.404 358.5,816.5 Z"/></g>
<g><path style="opacity:0.989" fill="#f5928c" d="M 995.5,818.5 C 1044.83,817.9 1080.99,839.234 1104,882.5C 1121.8,926.218 1116.13,966.551 1087,1003.5C 1051.15,1040 1008.98,1049.84 960.5,1033C 916.884,1012.68 893.884,978.345 891.5,930C 893.152,886.673 912.485,854.006 949.5,832C 964.141,824.678 979.474,820.178 995.5,818.5 Z"/></g>
<g><path style="opacity:0.649" fill="#a9aaa9" d="M 209.5,822.5 C 210.833,822.5 212.167,822.5 213.5,822.5C 213.5,830.5 213.5,838.5 213.5,846.5C 212.167,846.5 210.833,846.5 209.5,846.5C 209.5,838.5 209.5,830.5 209.5,822.5 Z"/></g>
<g><path style="opacity:0.849" fill="#feca04" d="M 579.5,825.5 C 602.833,825.5 626.167,825.5 649.5,825.5C 649.5,828.5 649.5,831.5 649.5,834.5C 626.167,834.5 602.833,834.5 579.5,834.5C 579.5,831.5 579.5,828.5 579.5,825.5 Z"/></g>
<g><path style="opacity:0.852" fill="#f38244" d="M 653.5,825.5 C 696.833,825.5 740.167,825.5 783.5,825.5C 783.5,828.5 783.5,831.5 783.5,834.5C 740.167,834.5 696.833,834.5 653.5,834.5C 653.5,831.5 653.5,828.5 653.5,825.5 Z"/></g>
<g><path style="opacity:0.905" fill="#73797b" d="M 324.5,832.5 C 343.111,831.719 355.611,840.052 362,857.5C 364.847,882.147 354.013,896.147 329.5,899.5C 304.027,895.553 293.527,880.887 298,855.5C 302.718,842.94 311.551,835.274 324.5,832.5 Z M 324.5,842.5 C 341.176,841.675 350.843,849.509 353.5,866C 351.039,882.134 341.706,889.8 325.5,889C 310.88,884.612 304.713,874.779 307,859.5C 310.084,850.915 315.917,845.248 324.5,842.5 Z"/></g>
<g><path style="opacity:0.978" fill="#feca04" d="M 579.5,838.5 C 602.833,838.5 626.167,838.5 649.5,838.5C 649.5,849.5 649.5,860.5 649.5,871.5C 626.167,871.5 602.833,871.5 579.5,871.5C 579.5,860.5 579.5,849.5 579.5,838.5 Z"/></g>
<g><path style="opacity:0.981" fill="#f38244" d="M 653.5,838.5 C 696.833,838.5 740.167,838.5 783.5,838.5C 783.5,849.5 783.5,860.5 783.5,871.5C 740.167,871.5 696.833,871.5 653.5,871.5C 653.5,860.5 653.5,849.5 653.5,838.5 Z"/></g>
<g><path style="opacity:0.912" fill="#73797b" d="M 329.5,847.5 C 331.993,847.329 333.826,848.329 335,850.5C 335.5,858.827 335.666,867.16 335.5,875.5C 328.825,875.666 322.158,875.5 315.5,875C 312.833,872.333 312.833,869.667 315.5,867C 318.817,866.502 322.15,866.335 325.5,866.5C 325.334,861.489 325.501,856.489 326,851.5C 326.69,849.65 327.856,848.316 329.5,847.5 Z"/></g>
<g><path style="opacity:0.988" fill="#a37275" d="M 199.5,854.5 C 238.883,851.612 269.717,866.278 292,898.5C 312.237,935.544 310.571,971.544 287,1006.5C 260.122,1038.24 226.288,1049.4 185.5,1040C 142.092,1025.25 119.092,994.912 116.5,949C 118.472,907.702 138.139,878.369 175.5,861C 183.463,858.178 191.463,856.012 199.5,854.5 Z"/></g>
<g><path style="opacity:1" fill="#fefcfc" d="M 984.5,869.5 C 1017.59,869.929 1035.59,886.596 1038.5,919.5C 1037.73,927.99 1035.06,935.823 1030.5,943C 1040.67,953.167 1050.83,963.333 1061,973.5C 1065.11,982.281 1062.44,987.947 1053,990.5C 1050.68,990.091 1048.51,989.257 1046.5,988C 1036.33,977.833 1026.17,967.667 1016,957.5C 1004.74,964.198 992.573,966.365 979.5,964C 954.53,956.014 942.363,938.847 943,912.5C 947.231,888.771 961.064,874.438 984.5,869.5 Z"/></g>
<g><path style="opacity:1" fill="#fdfcfd" d="M 207.5,875.5 C 215.019,875.177 220.186,878.51 223,885.5C 236.826,910.814 238.159,936.814 227,963.5C 223.922,969.991 220.588,976.325 217,982.5C 213,983.833 209,983.833 205,982.5C 191.176,961.869 185.509,939.202 188,914.5C 190.848,899.471 197.348,886.471 207.5,875.5 Z"/></g>
<g><path style="opacity:1" fill="#f5928c" d="M 983.5,885.5 C 1002.66,883.49 1015.49,891.49 1022,909.5C 1024.73,930.076 1016.23,943.242 996.5,949C 982.285,951.141 971.118,946.308 963,934.5C 953.368,911.112 960.202,894.778 983.5,885.5 Z"/></g>
<g><path style="opacity:0.96" fill="#55c3ce" d="M 753.5,908.5 C 655.5,909.833 557.5,909.833 459.5,908.5C 459.5,901.833 459.5,895.167 459.5,888.5C 557.5,888.5 655.5,888.5 753.5,888.5C 753.5,895.167 753.5,901.833 753.5,908.5 Z"/></g>
<g><path style="opacity:1" fill="#a67679" d="M 207.5,893.5 C 217.791,893.136 221.625,897.803 219,907.5C 211.709,914.897 206.042,913.897 202,904.5C 201.176,899.482 203.009,895.815 207.5,893.5 Z"/></g>
<g><path style="opacity:1" fill="#a6777a" d="M 199.5,918.5 C 206.841,918.334 214.174,918.5 221.5,919C 223.658,920.312 223.991,921.978 222.5,924C 214.833,924.667 207.167,924.667 199.5,924C 198.248,922.172 198.248,920.339 199.5,918.5 Z"/></g>
<g><path style="opacity:0.978" fill="#888988" d="M 534.5,934.5 C 582.833,934.5 631.167,934.5 679.5,934.5C 679.5,950.833 679.5,967.167 679.5,983.5C 708.169,983.333 736.835,983.5 765.5,984C 773.52,987.207 776.353,993.041 774,1001.5C 772.542,1003.96 770.709,1006.13 768.5,1008C 714.557,1009.16 660.557,1009.66 606.5,1009.5C 552.443,1009.66 498.443,1009.16 444.5,1008C 436.5,1000.33 436.5,992.667 444.5,985C 445.5,984.667 446.5,984.333 447.5,984C 476.498,983.5 505.498,983.333 534.5,983.5C 534.5,967.167 534.5,950.833 534.5,934.5 Z"/></g>
<g><path style="opacity:1" fill="#fcfafb" d="M 182.5,955.5 C 184.833,955.5 187.167,955.5 189.5,955.5C 190.65,960.806 192.65,965.806 195.5,970.5C 194.139,972.028 192.972,973.695 192,975.5C 191.501,979.486 191.334,983.486 191.5,987.5C 190.167,987.5 188.833,987.5 187.5,987.5C 185.323,978.46 182.99,969.46 180.5,960.5C 180.437,958.486 181.103,956.819 182.5,955.5 Z"/></g>
<g><path style="opacity:1" fill="#fcfafa" d="M 233.5,955.5 C 236.271,955.421 238.937,955.921 241.5,957C 242.097,958.062 242.43,959.228 242.5,960.5C 239.956,969.462 237.622,978.462 235.5,987.5C 234.167,987.5 232.833,987.5 231.5,987.5C 231.329,982.804 230.829,978.137 230,973.5C 228.978,972.646 228.145,971.646 227.5,970.5C 229.901,965.624 231.901,960.624 233.5,955.5 Z"/></g>
<g><path style="opacity:1" fill="#fbf9f9" d="M 209.5,986.5 C 211.722,986.178 213.556,986.845 215,988.5C 220.366,1000.4 219.366,1011.74 212,1022.5C 205.963,1014.12 203.963,1004.79 206,994.5C 206.906,991.69 208.073,989.024 209.5,986.5 Z"/></g>
</svg>
