<?xml version="1.0" encoding="UTF-8"?>
<!DOCTYPE svg PUBLIC "-//W3C//DTD SVG 1.1//EN" "http://www.w3.org/Graphics/SVG/1.1/DTD/svg11.dtd">
<svg xmlns="http://www.w3.org/2000/svg" version="1.1" width="1000px" height="1000px" style="shape-rendering:geometricPrecision; text-rendering:geometricPrecision; image-rendering:optimizeQuality; fill-rule:evenodd; clip-rule:evenodd" xmlns:xlink="http://www.w3.org/1999/xlink">
<g><path style="opacity:0.985" fill="#fdfdfd" d="M 709.5,88.5 C 714.828,89.8281 720.161,89.8281 725.5,88.5C 729.823,88.4364 733.99,89.103 738,90.5C 739.799,90.2795 741.632,89.9461 743.5,89.5C 746.034,90.7764 748.534,91.1097 751,90.5C 752.079,92.3937 753.413,92.727 755,91.5C 758.614,93.3749 762.447,94.8749 766.5,96C 778.212,101.818 788.545,109.984 797.5,120.5C 802.283,128.808 807.283,136.975 812.5,145C 816.532,153.095 819.365,161.595 821,170.5C 845.49,277.45 869.656,384.45 893.5,491.5C 893.565,520.054 883.232,545.554 862.5,568C 849.192,578.152 834.858,586.486 819.5,593C 800.717,598.446 781.717,603.112 762.5,607C 788.885,617.298 815.551,627.631 842.5,638C 848.877,642.189 855.544,645.855 862.5,649C 881.111,664.197 887.444,683.197 881.5,706C 881.833,706.333 882.167,706.667 882.5,707C 858.109,769.503 833.276,833.003 808,897.5C 787.231,926.685 759.898,934.352 726,920.5C 676.195,901.873 626.862,882.54 578,862.5C 577.667,862.833 577.333,863.167 577,863.5C 528.336,843.267 479.17,823.767 429.5,805C 420.575,800.399 411.908,795.399 403.5,790C 390.989,779.68 384.989,767.014 385.5,752C 385.938,747.836 385.938,743.836 385.5,740C 390.219,723.007 396.219,706.507 403.5,690.5C 402.833,690.167 402.167,689.833 401.5,689.5C 355.17,700.297 309.004,710.631 263,720.5C 256.687,720.125 250.187,720.125 243.5,720.5C 241.618,721.093 239.785,721.76 238,722.5C 233.942,721.443 229.942,721.443 226,722.5C 217.845,720.419 209.678,718.252 201.5,716C 195.998,712.415 190.331,709.081 184.5,706C 168.917,691.376 157.417,673.876 150,653.5C 124.636,542.511 99.4697,431.511 74.5,320.5C 74.8988,317.565 74.8988,314.731 74.5,312C 75.1667,309.667 75.8333,307.333 76.5,305C 76.0426,304.586 75.7093,304.086 75.5,303.5C 76.1062,301.291 76.7728,299.124 77.5,297C 77.0426,296.586 76.7093,296.086 76.5,295.5C 80.6407,283.873 84.8074,272.206 89,260.5C 100.31,242.69 115.81,230.19 135.5,223C 143.244,221.786 150.577,219.452 157.5,216C 331.5,176.333 505.5,136.667 679.5,97C 689.484,93.7535 699.484,90.9202 709.5,88.5 Z"/></g>
<g><path style="opacity:1" fill="#95a6c7" d="M 441.5,420.5 C 438.794,418.497 435.794,416.83 432.5,415.5C 431.893,415.624 431.56,415.957 431.5,416.5C 428.46,415.32 425.794,413.653 423.5,411.5C 421.526,410.094 419.526,408.594 417.5,407C 415.934,406.235 414.601,406.402 413.5,407.5C 410.46,406.32 407.794,404.653 405.5,402.5C 403.163,400.604 400.496,399.27 397.5,398.5C 376.279,389.223 355.612,378.89 335.5,367.5C 333.915,365.018 331.915,364.352 329.5,365.5C 268.132,334.483 206.799,303.483 145.5,272.5C 146.738,272.19 146.738,271.69 145.5,271C 144.128,270.598 142.795,270.098 141.5,269.5C 140.893,269.624 140.56,269.957 140.5,270.5C 134.925,267.214 129.259,264.214 123.5,261.5C 124.833,260.833 124.833,260.167 123.5,259.5C 138.949,245.946 156.949,237.446 177.5,234C 353.525,193.895 529.525,153.729 705.5,113.5C 713.5,113.5 721.5,113.5 729.5,113.5C 735.851,114.855 741.851,116.355 747.5,118C 667.271,222.215 587.105,326.381 507,430.5C 497.41,439.611 486.577,442.111 474.5,438C 462.855,433.141 451.855,427.308 441.5,420.5 Z"/></g>
<g><path style="opacity:1" fill="#95a5c7" d="M 825.5,509.5 C 822.774,507.464 819.774,505.797 816.5,504.5C 815.893,504.624 815.56,504.957 815.5,505.5C 810.973,503.405 806.639,501.072 802.5,498.5C 803.738,498.19 803.738,497.69 802.5,497C 801.128,496.598 799.795,496.098 798.5,495.5C 797.893,495.624 797.56,495.957 797.5,496.5C 794.132,494.816 790.799,493.15 787.5,491.5C 787.938,491.565 788.272,491.399 788.5,491C 785.225,488.302 781.558,486.469 777.5,485.5C 774.794,485.312 772.461,484.312 770.5,482.5C 769.426,481.115 768.093,479.949 766.5,479C 765.563,478.308 764.897,478.475 764.5,479.5C 761.563,478.528 758.897,477.195 756.5,475.5C 754.388,472.937 751.721,471.104 748.5,470C 747.251,469.26 746.251,469.427 745.5,470.5C 738,466.678 730.667,462.678 723.5,458.5C 719.286,455.418 714.619,453.085 709.5,451.5C 707.62,451.771 706.287,451.104 705.5,449.5C 703.526,448.094 701.526,446.594 699.5,445C 697.934,444.235 696.601,444.402 695.5,445.5C 655.732,425.449 616.065,405.115 576.5,384.5C 640.808,300.358 705.308,216.358 770,132.5C 771.388,131.446 772.888,131.28 774.5,132C 783.977,140.108 791.143,149.941 796,161.5C 821.002,270.841 846.002,380.174 871,489.5C 872.718,503.814 870.051,517.147 863,529.5C 852.065,523.616 840.898,518.116 829.5,513C 827.907,512.051 826.574,510.885 825.5,509.5 Z"/></g>
<g><path style="opacity:1" fill="#201e1f" d="M 123.5,259.5 C 124.833,260.167 124.833,260.833 123.5,261.5C 122.761,261.631 122.094,261.464 121.5,261C 122.416,260.722 123.082,260.222 123.5,259.5 Z"/></g>
<g><path style="opacity:1" fill="#52545d" d="M 140.5,270.5 C 140.56,269.957 140.893,269.624 141.5,269.5C 142.795,270.098 144.128,270.598 145.5,271C 146.738,271.69 146.738,272.19 145.5,272.5C 143.833,271.833 142.167,271.167 140.5,270.5 Z"/></g>
<g><path style="opacity:1" fill="#95a5c7" d="M 125.5,293.5 C 130.43,297.733 136.097,300.733 142.5,302.5C 147.086,303.46 151.086,305.46 154.5,308.5C 158.992,311.782 163.992,314.115 169.5,315.5C 229.205,345.186 288.872,375.186 348.5,405.5C 347.262,405.81 347.262,406.31 348.5,407C 352.756,408.419 356.589,410.585 360,413.5C 360.333,413.167 360.667,412.833 361,412.5C 363.7,414.269 366.534,415.602 369.5,416.5C 375.968,418.653 381.968,421.653 387.5,425.5C 388.473,427.068 388.64,428.735 388,430.5C 386.053,432.063 384.886,434.063 384.5,436.5C 322.137,518.575 259.304,600.241 196,681.5C 184.224,673.716 176.224,663.049 172,649.5C 147.016,539.408 121.85,429.408 96.5,319.5C 96.2189,307.114 98.8856,295.281 104.5,284C 111.95,286.056 118.95,289.223 125.5,293.5 Z"/></g>
<g><path style="opacity:1" fill="#797f90" d="M 125.5,293.5 C 131.681,295.755 137.348,298.755 142.5,302.5C 136.097,300.733 130.43,297.733 125.5,293.5 Z"/></g>
<g><path style="opacity:1" fill="#6b6f7b" d="M 154.5,308.5 C 159.786,310.26 164.786,312.593 169.5,315.5C 163.992,314.115 158.992,311.782 154.5,308.5 Z"/></g>
<g><path style="opacity:1" fill="#53535a" d="M 329.5,365.5 C 331.915,364.352 333.915,365.018 335.5,367.5C 333.5,366.833 331.5,366.167 329.5,365.5 Z"/></g>
<g><path style="opacity:1" fill="#54545a" d="M 397.5,398.5 C 400.496,399.27 403.163,400.604 405.5,402.5C 402.246,402.206 399.579,400.873 397.5,398.5 Z"/></g>
<g><path style="opacity:1" fill="#585962" d="M 413.5,407.5 C 414.601,406.402 415.934,406.235 417.5,407C 419.526,408.594 421.526,410.094 423.5,411.5C 419.967,410.626 416.634,409.293 413.5,407.5 Z"/></g>
<g><path style="opacity:1" fill="#95a5c7" d="M 612.5,434.5 C 611.262,434.81 611.262,435.31 612.5,436C 615.572,437.858 618.905,439.024 622.5,439.5C 653.515,454.341 684.182,469.674 714.5,485.5C 713.262,485.81 713.262,486.31 714.5,487C 718.173,489.335 722.173,490.835 726.5,491.5C 728.75,492.13 730.75,493.13 732.5,494.5C 731.262,494.81 731.262,495.31 732.5,496C 735.531,498.015 738.864,499.181 742.5,499.5C 777.06,516.78 811.727,534.113 846.5,551.5C 837.286,559.27 827.286,565.77 816.5,571C 786.545,578.793 756.379,585.96 726,592.5C 663.843,568.679 602.01,544.513 540.5,520C 533.514,518.132 526.514,516.132 519.5,514C 513.5,513.333 507.5,513.333 501.5,514C 480.206,520.274 465.373,534.107 457,555.5C 444.933,585.704 433.267,616.037 422,646.5C 419.57,652.356 416.904,658.022 414,663.5C 363.882,675.238 313.715,686.738 263.5,698C 254.993,698.423 246.659,698.59 238.5,698.5C 233.987,697.77 229.654,696.77 225.5,695.5C 226.239,695.631 226.906,695.464 227.5,695C 225.548,694.634 223.882,693.801 222.5,692.5C 286.587,608.567 350.92,524.734 415.5,441C 416.833,440.333 418.167,440.333 419.5,441C 432.167,447.333 444.833,453.667 457.5,460C 462.286,461.522 466.952,463.022 471.5,464.5C 475.36,466.249 479.36,466.582 483.5,465.5C 485.343,465.54 487.343,465.874 489.5,466.5C 491.919,466.086 493.919,465.086 495.5,463.5C 506.676,461.079 516.676,456.245 525.5,449C 537.452,435.547 548.786,421.714 559.5,407.5C 577.628,415.73 595.295,424.73 612.5,434.5 Z"/></g>
<g><path style="opacity:1" fill="#6f7381" d="M 348.5,405.5 C 356.008,408.418 363.008,412.085 369.5,416.5C 366.534,415.602 363.7,414.269 361,412.5C 360.667,412.833 360.333,413.167 360,413.5C 356.589,410.585 352.756,408.419 348.5,407C 347.262,406.31 347.262,405.81 348.5,405.5 Z"/></g>
<g><path style="opacity:1" fill="#47474f" d="M 431.5,416.5 C 431.56,415.957 431.893,415.624 432.5,415.5C 435.794,416.83 438.794,418.497 441.5,420.5C 437.964,419.621 434.631,418.287 431.5,416.5 Z"/></g>
<g><path style="opacity:1" fill="#626570" d="M 387.5,425.5 C 389.09,425.628 390.423,426.295 391.5,427.5C 389.494,430.829 387.161,433.829 384.5,436.5C 384.886,434.063 386.053,432.063 388,430.5C 388.64,428.735 388.473,427.068 387.5,425.5 Z"/></g>
<g><path style="opacity:1" fill="#666770" d="M 612.5,434.5 C 616.183,435.675 619.516,437.341 622.5,439.5C 618.905,439.024 615.572,437.858 612.5,436C 611.262,435.31 611.262,434.81 612.5,434.5 Z"/></g>
<g><path style="opacity:1" fill="#50525d" d="M 695.5,445.5 C 696.601,444.402 697.934,444.235 699.5,445C 701.526,446.594 703.526,448.094 705.5,449.5C 701.967,448.626 698.634,447.293 695.5,445.5 Z"/></g>
<g><path style="opacity:1" fill="#5f616c" d="M 709.5,451.5 C 714.619,453.085 719.286,455.418 723.5,458.5C 718.416,456.922 713.75,454.588 709.5,451.5 Z"/></g>
<g><path style="opacity:1" fill="#65666e" d="M 471.5,464.5 C 475.702,464.183 479.702,464.517 483.5,465.5C 479.36,466.582 475.36,466.249 471.5,464.5 Z"/></g>
<g><path style="opacity:1" fill="#676c7a" d="M 495.5,463.5 C 493.919,465.086 491.919,466.086 489.5,466.5C 487.343,465.874 485.343,465.54 483.5,465.5C 487.439,464.673 491.439,464.006 495.5,463.5 Z"/></g>
<g><path style="opacity:1" fill="#52535c" d="M 745.5,470.5 C 746.251,469.427 747.251,469.26 748.5,470C 751.721,471.104 754.388,472.937 756.5,475.5C 752.749,474.027 749.083,472.36 745.5,470.5 Z"/></g>
<g><path style="opacity:1" fill="#44444b" d="M 770.5,482.5 C 768.181,482.008 766.181,481.008 764.5,479.5C 764.897,478.475 765.563,478.308 766.5,479C 768.093,479.949 769.426,481.115 770.5,482.5 Z"/></g>
<g><path style="opacity:1" fill="#5e616e" d="M 714.5,485.5 C 718.767,487.133 722.767,489.133 726.5,491.5C 722.173,490.835 718.173,489.335 714.5,487C 713.262,486.31 713.262,485.81 714.5,485.5 Z"/></g>
<g><path style="opacity:1" fill="#626673" d="M 777.5,485.5 C 781.558,486.469 785.225,488.302 788.5,491C 788.272,491.399 787.938,491.565 787.5,491.5C 783.799,489.988 780.466,487.988 777.5,485.5 Z"/></g>
<g><path style="opacity:1" fill="#3a383d" d="M 797.5,496.5 C 797.56,495.957 797.893,495.624 798.5,495.5C 799.795,496.098 801.128,496.598 802.5,497C 803.738,497.69 803.738,498.19 802.5,498.5C 800.833,497.833 799.167,497.167 797.5,496.5 Z"/></g>
<g><path style="opacity:1" fill="#5d606b" d="M 732.5,494.5 C 736.178,495.672 739.511,497.339 742.5,499.5C 738.864,499.181 735.531,498.015 732.5,496C 731.262,495.31 731.262,494.81 732.5,494.5 Z"/></g>
<g><path style="opacity:1" fill="#424148" d="M 815.5,505.5 C 815.56,504.957 815.893,504.624 816.5,504.5C 819.774,505.797 822.774,507.464 825.5,509.5C 821.964,508.621 818.631,507.287 815.5,505.5 Z"/></g>
<g><path style="opacity:1" fill="#94a5c6" d="M 794.5,689.5 C 794.631,688.761 794.464,688.094 794,687.5C 791.942,688.229 790.109,689.229 788.5,690.5C 780.313,693.675 771.979,696.675 763.5,699.5C 763.38,698.414 762.713,697.747 761.5,697.5C 758.276,698.997 755.276,700.664 752.5,702.5C 714.701,715.213 676.701,727.713 638.5,740C 630.622,741.818 624.122,739.652 619,733.5C 581.293,665.253 543.46,597.086 505.5,529C 514.213,528.202 522.88,528.536 531.5,530C 635.167,571 738.833,612 842.5,653C 849.256,656.256 854.589,661.089 858.5,667.5C 837.195,674.814 815.862,682.148 794.5,689.5 Z"/></g>
<g><path style="opacity:1" fill="#94a5c6" d="M 490.5,535.5 C 521.28,590.222 551.947,645.055 582.5,700C 571.807,704.588 560.807,708.088 549.5,710.5C 545.371,710.655 541.371,711.488 537.5,713C 532.968,714.417 529.302,716.25 526.5,718.5C 526.158,719.338 525.492,719.672 524.5,719.5C 524.083,718.876 523.416,718.543 522.5,718.5C 517.416,718.841 512.749,720.341 508.5,723C 507.262,723.69 507.262,724.19 508.5,724.5C 508.158,725.338 507.492,725.672 506.5,725.5C 506.265,724.903 505.765,724.57 505,724.5C 498.366,725.983 492.199,728.317 486.5,731.5C 474.323,735.743 461.99,739.743 449.5,743.5C 449.44,742.957 449.107,742.624 448.5,742.5C 443.019,744.7 437.352,746.366 431.5,747.5C 429.07,748.847 426.736,750.18 424.5,751.5C 420.286,753.238 415.952,754.572 411.5,755.5C 408.169,755.018 405.503,756.018 403.5,758.5C 402.811,759.774 401.977,759.774 401,758.5C 398.032,751.075 397.866,743.742 400.5,736.5C 402.806,734.222 404.473,730.889 405.5,726.5C 405.03,725.537 404.363,725.537 403.5,726.5C 412.886,702.727 422.553,679.06 432.5,655.5C 433.999,652.953 435.499,650.286 437,647.5C 437.494,645.866 437.66,644.199 437.5,642.5C 437.263,641.209 437.596,640.209 438.5,639.5C 440.043,638.264 441.043,636.598 441.5,634.5C 441.376,633.893 441.043,633.56 440.5,633.5C 441.843,630.457 443.177,627.457 444.5,624.5C 446.48,622.105 447.813,619.271 448.5,616C 448.43,615.235 448.097,614.735 447.5,614.5C 456.249,593.325 464.749,571.992 473,550.5C 474.371,547.734 476.204,545.401 478.5,543.5C 482.205,540.474 486.205,537.808 490.5,535.5 Z"/></g>
<g><path style="opacity:1" fill="#5a5c66" d="M 490.5,535.5 C 486.205,537.808 482.205,540.474 478.5,543.5C 481.205,539.632 484.705,536.632 489,534.5C 489.765,534.57 490.265,534.903 490.5,535.5 Z"/></g>
<g><path style="opacity:1" fill="#434246" d="M 447.5,614.5 C 448.097,614.735 448.43,615.235 448.5,616C 447.813,619.271 446.48,622.105 444.5,624.5C 445.192,621.064 446.192,617.73 447.5,614.5 Z"/></g>
<g><path style="opacity:1" fill="#414045" d="M 440.5,633.5 C 441.043,633.56 441.376,633.893 441.5,634.5C 441.043,636.598 440.043,638.264 438.5,639.5C 438.971,637.421 439.637,635.421 440.5,633.5 Z"/></g>
<g><path style="opacity:1" fill="#5f6472" d="M 437.5,642.5 C 437.66,644.199 437.494,645.866 437,647.5C 435.499,650.286 433.999,652.953 432.5,655.5C 433.213,650.676 434.88,646.343 437.5,642.5 Z"/></g>
<g><path style="opacity:1" fill="#94a5c6" d="M 864.5,714.5 C 862.517,718.061 860.517,721.727 858.5,725.5C 857.207,727.636 857.207,729.636 858.5,731.5C 845.793,763.919 832.793,796.253 819.5,828.5C 816.813,833.383 814.48,838.55 812.5,844C 813.094,844.464 813.761,844.631 814.5,844.5C 807.823,861.694 800.657,878.694 793,895.5C 789.345,900.664 784.678,904.664 779,907.5C 747.997,852.831 717.497,797.831 687.5,742.5C 689.42,741.935 691.087,740.935 692.5,739.5C 701.809,735.414 711.476,732.081 721.5,729.5C 724.748,730.541 727.748,729.874 730.5,727.5C 734.188,726.828 737.855,725.995 741.5,725C 742.056,724.617 742.389,724.117 742.5,723.5C 761.152,716.413 780.152,710.08 799.5,704.5C 799.56,705.043 799.893,705.376 800.5,705.5C 802.604,704.481 804.604,703.481 806.5,702.5C 811.731,702.038 816.398,700.371 820.5,697.5C 826.018,695.313 831.684,693.646 837.5,692.5C 844.39,691.156 851.39,688.989 858.5,686C 858.272,685.601 857.938,685.435 857.5,685.5C 860.057,684.515 862.724,683.515 865.5,682.5C 866.442,682.608 867.275,682.941 868,683.5C 870.778,694.408 869.612,704.741 864.5,714.5 Z"/></g>
<g><path style="opacity:1" fill="#3c3a3e" d="M 794.5,689.5 C 792.5,689.833 790.5,690.167 788.5,690.5C 790.109,689.229 791.942,688.229 794,687.5C 794.464,688.094 794.631,688.761 794.5,689.5 Z"/></g>
<g><path style="opacity:1" fill="#707482" d="M 857.5,685.5 C 857.938,685.435 858.272,685.601 858.5,686C 851.39,688.989 844.39,691.156 837.5,692.5C 843.822,689.574 850.488,687.241 857.5,685.5 Z"/></g>
<g><path style="opacity:1" fill="#393639" d="M 222.5,692.5 C 223.882,693.801 225.548,694.634 227.5,695C 226.906,695.464 226.239,695.631 225.5,695.5C 223.821,695.108 222.154,694.608 220.5,694C 221.044,693.283 221.711,692.783 222.5,692.5 Z"/></g>
<g><path style="opacity:1" fill="#626674" d="M 763.5,699.5 C 759.777,700.297 756.11,701.297 752.5,702.5C 755.276,700.664 758.276,698.997 761.5,697.5C 762.713,697.747 763.38,698.414 763.5,699.5 Z"/></g>
<g><path style="opacity:1" fill="#676b78" d="M 820.5,697.5 C 816.398,700.371 811.731,702.038 806.5,702.5C 810.761,699.958 815.427,698.292 820.5,697.5 Z"/></g>
<g><path style="opacity:1" fill="#404047" d="M 806.5,702.5 C 804.604,703.481 802.604,704.481 800.5,705.5C 799.893,705.376 799.56,705.043 799.5,704.5C 801.588,703.061 803.921,702.394 806.5,702.5 Z"/></g>
<g><path style="opacity:1" fill="#676b79" d="M 549.5,710.5 C 542.148,713.656 534.482,716.323 526.5,718.5C 529.302,716.25 532.968,714.417 537.5,713C 541.371,711.488 545.371,710.655 549.5,710.5 Z"/></g>
<g><path style="opacity:1" fill="#94a5c6" d="M 660.5,749.5 C 660.735,750.097 661.235,750.43 662,750.5C 665.026,749.128 668.193,748.462 671.5,748.5C 702.045,802.578 732.378,856.911 762.5,911.5C 762.291,912.086 761.957,912.586 761.5,913C 748.963,914.244 736.963,912.244 725.5,907C 628.992,868.608 532.325,830.608 435.5,793C 425.017,789.098 416.351,782.764 409.5,774C 445.885,761.238 482.552,749.405 519.5,738.5C 523.416,737.249 527.416,736.249 531.5,735.5C 532.713,735.253 533.38,734.586 533.5,733.5C 533.5,732.833 533.833,732.5 534.5,732.5C 534.735,733.097 535.235,733.43 536,733.5C 539.443,732.431 542.943,731.598 546.5,731C 545.944,730.617 545.611,730.117 545.5,729.5C 546.391,728.89 547.391,728.557 548.5,728.5C 548.56,729.043 548.893,729.376 549.5,729.5C 553.056,728.122 556.723,727.122 560.5,726.5C 561.647,726.182 562.481,725.516 563,724.5C 563.333,724.833 563.667,725.167 564,725.5C 568.439,723.927 572.606,721.927 576.5,719.5C 580.936,717.299 585.603,715.799 590.5,715C 595.141,723.118 599.641,731.285 604,739.5C 614.144,752.321 627.311,757.487 643.5,755C 649.28,753.31 654.946,751.476 660.5,749.5 Z"/></g>
<g><path style="opacity:1" fill="#5e6372" d="M 524.5,719.5 C 519.019,720.772 513.686,722.439 508.5,724.5C 507.262,724.19 507.262,723.69 508.5,723C 512.749,720.341 517.416,718.841 522.5,718.5C 523.416,718.543 524.083,718.876 524.5,719.5 Z"/></g>
<g><path style="opacity:1" fill="#696f7f" d="M 576.5,719.5 C 572.606,721.927 568.439,723.927 564,725.5C 563.667,725.167 563.333,724.833 563,724.5C 562.481,725.516 561.647,726.182 560.5,726.5C 556.723,727.122 553.056,728.122 549.5,729.5C 548.893,729.376 548.56,729.043 548.5,728.5C 557.695,725.102 567.028,722.102 576.5,719.5 Z"/></g>
<g><path style="opacity:1" fill="#585b66" d="M 742.5,723.5 C 742.389,724.117 742.056,724.617 741.5,725C 737.855,725.995 734.188,726.828 730.5,727.5C 734.213,725.565 738.213,724.232 742.5,723.5 Z"/></g>
<g><path style="opacity:1" fill="#656a79" d="M 864.5,714.5 C 862.786,720.263 860.786,725.93 858.5,731.5C 857.207,729.636 857.207,727.636 858.5,725.5C 860.517,721.727 862.517,718.061 864.5,714.5 Z"/></g>
<g><path style="opacity:1" fill="#484951" d="M 730.5,727.5 C 727.748,729.874 724.748,730.541 721.5,729.5C 724.37,728.366 727.37,727.7 730.5,727.5 Z"/></g>
<g><path style="opacity:1" fill="#676973" d="M 506.5,725.5 C 499.763,727.302 493.096,729.302 486.5,731.5C 492.199,728.317 498.366,725.983 505,724.5C 505.765,724.57 506.265,724.903 506.5,725.5 Z"/></g>
<g><path style="opacity:1" fill="#666a78" d="M 400.5,736.5 C 401.5,733.167 402.5,729.833 403.5,726.5C 404.363,725.537 405.03,725.537 405.5,726.5C 404.473,730.889 402.806,734.222 400.5,736.5 Z"/></g>
<g><path style="opacity:1" fill="#63656f" d="M 545.5,729.5 C 545.611,730.117 545.944,730.617 546.5,731C 542.943,731.598 539.443,732.431 536,733.5C 535.235,733.43 534.735,733.097 534.5,732.5C 538.123,731.344 541.789,730.344 545.5,729.5 Z"/></g>
<g><path style="opacity:1" fill="#696c77" d="M 533.5,733.5 C 533.38,734.586 532.713,735.253 531.5,735.5C 527.416,736.249 523.416,737.249 519.5,738.5C 519.611,737.883 519.944,737.383 520.5,737C 524.808,735.673 529.141,734.507 533.5,733.5 Z"/></g>
<g><path style="opacity:1" fill="#282728" d="M 692.5,739.5 C 691.087,740.935 689.42,741.935 687.5,742.5C 686.957,742.44 686.624,742.107 686.5,741.5C 688.411,740.523 690.411,739.857 692.5,739.5 Z"/></g>
<g><path style="opacity:1" fill="#686d7d" d="M 449.5,743.5 C 441.305,746.565 432.972,749.232 424.5,751.5C 426.736,750.18 429.07,748.847 431.5,747.5C 437.352,746.366 443.019,744.7 448.5,742.5C 449.107,742.624 449.44,742.957 449.5,743.5 Z"/></g>
<g><path style="opacity:1" fill="#47474b" d="M 671.5,748.5 C 668.193,748.462 665.026,749.128 662,750.5C 661.235,750.43 660.735,750.097 660.5,749.5C 663.655,748.584 666.822,747.584 670,746.5C 671.03,746.836 671.53,747.503 671.5,748.5 Z"/></g>
<g><path style="opacity:1" fill="#515157" d="M 411.5,755.5 C 409.152,757.097 406.486,758.097 403.5,758.5C 405.503,756.018 408.169,755.018 411.5,755.5 Z"/></g>
<g><path style="opacity:1" fill="#696d79" d="M 819.5,828.5 C 817.833,833.833 816.167,839.167 814.5,844.5C 813.761,844.631 813.094,844.464 812.5,844C 814.48,838.55 816.813,833.383 819.5,828.5 Z"/></g>
</svg>
