<?xml version="1.0" encoding="UTF-8"?>
<!DOCTYPE svg PUBLIC "-//W3C//DTD SVG 1.1//EN" "http://www.w3.org/Graphics/SVG/1.1/DTD/svg11.dtd">
<svg xmlns="http://www.w3.org/2000/svg" version="1.1" width="1500px" height="400px" style="shape-rendering:geometricPrecision; text-rendering:geometricPrecision; image-rendering:optimizeQuality; fill-rule:evenodd; clip-rule:evenodd" xmlns:xlink="http://www.w3.org/1999/xlink">
<g><path style="opacity:1" fill="#000000" d="M -0.5,32.5 C 232.833,32.5 466.167,32.5 699.5,32.5C 699.5,140.833 699.5,249.167 699.5,357.5C 466.167,357.5 232.833,357.5 -0.5,357.5C -0.5,249.167 -0.5,140.833 -0.5,32.5 Z"/></g>
<g><path style="opacity:1" fill="#fefefe" d="M 59.5,90.5 C 59.5,153.833 59.5,217.167 59.5,280.5C 88.5,280.5 117.5,280.5 146.5,280.5C 146.5,285.833 146.5,291.167 146.5,296.5C 111.5,296.5 76.5,296.5 41.5,296.5C 41.5,227.833 41.5,159.167 41.5,90.5C 47.5,90.5 53.5,90.5 59.5,90.5 Z"/></g>
<g><path style="opacity:1" fill="#626262" d="M 59.5,90.5 C 60.4991,153.331 60.8324,216.331 60.5,279.5C 89.3382,279.169 118.005,279.502 146.5,280.5C 117.5,280.5 88.5,280.5 59.5,280.5C 59.5,217.167 59.5,153.833 59.5,90.5 Z"/></g>
<g><path style="opacity:0.91" fill="#000000" d="M 757.5,119.5 C 770.991,117.49 776.491,123.157 774,136.5C 767.772,144.877 760.772,145.543 753,138.5C 749.838,130.837 751.338,124.503 757.5,119.5 Z"/></g>
<g><path style="opacity:0.959" fill="#000000" d="M 943.5,163.5 C 972.483,164.07 988.65,178.737 992,207.5C 992.5,237.165 992.667,266.831 992.5,296.5C 986.5,296.5 980.5,296.5 974.5,296.5C 974.667,270.831 974.5,245.165 974,219.5C 972.4,187.226 955.9,174.726 924.5,182C 912.958,187.233 905.792,196.066 903,208.5C 901.549,237.797 901.049,267.13 901.5,296.5C 895.5,296.5 889.5,296.5 883.5,296.5C 883.5,253.833 883.5,211.167 883.5,168.5C 889.5,168.5 895.5,168.5 901.5,168.5C 901.334,174.509 901.501,180.509 902,186.5C 911.731,171.385 925.564,163.719 943.5,163.5 Z"/></g>
<g><path style="opacity:1" fill="#f9f9f9" d="M 472.5,168.5 C 472.334,175.175 472.5,181.842 473,188.5C 473.717,187.956 474.217,187.289 474.5,186.5C 487.18,167.43 504.847,160.597 527.5,166C 540.492,170.492 549.825,178.992 555.5,191.5C 572.3,164.404 595.3,157.571 624.5,171C 635.986,179.178 642.486,190.344 644,204.5C 644.5,235.165 644.667,265.832 644.5,296.5C 638.5,296.5 632.5,296.5 626.5,296.5C 626.667,268.165 626.5,239.831 626,211.5C 622.264,186.109 607.764,175.942 582.5,181C 567.896,187.363 560.062,198.53 559,214.5C 558.5,241.831 558.333,269.165 558.5,296.5C 552.5,296.5 546.5,296.5 540.5,296.5C 540.667,266.831 540.5,237.165 540,207.5C 537.496,189.162 526.996,179.829 508.5,179.5C 488.996,180.834 477.496,191.167 474,210.5C 473.5,239.165 473.333,267.831 473.5,296.5C 467.5,296.5 461.5,296.5 455.5,296.5C 455.5,253.833 455.5,211.167 455.5,168.5C 461.167,168.5 466.833,168.5 472.5,168.5 Z"/></g>
<g><path style="opacity:0.945" fill="#000000" d="M 1144.5,164.5 C 1171.45,161.189 1192.62,170.523 1208,192.5C 1208.5,184.507 1208.67,176.507 1208.5,168.5C 1214.5,168.5 1220.5,168.5 1226.5,168.5C 1226.5,211.167 1226.5,253.833 1226.5,296.5C 1220.5,296.5 1214.5,296.5 1208.5,296.5C 1208.67,288.493 1208.5,280.493 1208,272.5C 1188.19,299.431 1162.36,307.265 1130.5,296C 1104.82,282.777 1092.15,261.611 1092.5,232.5C 1092.15,203.389 1104.82,182.223 1130.5,169C 1135.25,167.358 1139.92,165.858 1144.5,164.5 Z M 1151.5,180.5 C 1183.99,178.645 1203.16,193.645 1209,225.5C 1211.18,247.666 1203.35,265.166 1185.5,278C 1159.12,290.362 1136.96,285.196 1119,262.5C 1109,242.5 1109,222.5 1119,202.5C 1127.08,190.892 1137.91,183.559 1151.5,180.5 Z"/></g>
<g><path style="opacity:0.934" fill="#000000" d="M 1383.5,164.5 C 1417.4,161.026 1441.9,174.359 1457,204.5C 1460.89,214.129 1462.39,224.129 1461.5,234.5C 1422.83,234.5 1384.17,234.5 1345.5,234.5C 1348.42,266.752 1366.09,283.752 1398.5,285.5C 1417.77,284.866 1433.11,276.866 1444.5,261.5C 1448.37,263.868 1452.37,266.034 1456.5,268C 1457.45,268.718 1457.62,269.551 1457,270.5C 1442.49,291.093 1422.49,301.426 1397,301.5C 1360.02,299.867 1337.02,281.2 1328,245.5C 1323.53,211.271 1336.36,186.104 1366.5,170C 1372.14,167.682 1377.8,165.849 1383.5,164.5 Z M 1386.5,178.5 C 1418.63,177.046 1437.63,192.046 1443.5,223.5C 1411.17,223.5 1378.83,223.5 1346.5,223.5C 1350,199.67 1363.33,184.67 1386.5,178.5 Z"/></g>
<g><path style="opacity:1" fill="#f9f9f9" d="M 238.5,168.5 C 244.5,168.5 250.5,168.5 256.5,168.5C 256.333,195.502 256.5,222.502 257,249.5C 259.675,278.933 275.509,290.433 304.5,284C 315.307,281.193 322.14,274.36 325,263.5C 326.65,256.933 327.65,250.267 328,243.5C 328.5,218.502 328.667,193.502 328.5,168.5C 334.5,168.5 340.5,168.5 346.5,168.5C 346.667,195.502 346.5,222.502 346,249.5C 343.664,283.839 325.33,300.839 291,300.5C 260.388,300.89 243.055,285.89 239,255.5C 238.5,226.502 238.333,197.502 238.5,168.5 Z"/></g>
<g><path style="opacity:1" fill="#a1a1a1" d="M 472.5,168.5 C 473.167,174.5 473.833,180.5 474.5,186.5C 474.217,187.289 473.717,187.956 473,188.5C 472.5,181.842 472.334,175.175 472.5,168.5 Z"/></g>
<g><path style="opacity:0.972" fill="#000000" d="M 754.5,168.5 C 760.5,168.5 766.5,168.5 772.5,168.5C 772.5,211.167 772.5,253.833 772.5,296.5C 766.5,296.5 760.5,296.5 754.5,296.5C 754.5,253.833 754.5,211.167 754.5,168.5 Z"/></g>
</svg>
