<?xml version="1.0" encoding="UTF-8"?>
<!DOCTYPE svg PUBLIC "-//W3C//DTD SVG 1.1//EN" "http://www.w3.org/Graphics/SVG/1.1/DTD/svg11.dtd">
<svg xmlns="http://www.w3.org/2000/svg" version="1.1" width="1000px" height="1000px" style="shape-rendering:geometricPrecision; text-rendering:geometricPrecision; image-rendering:optimizeQuality; fill-rule:evenodd; clip-rule:evenodd" xmlns:xlink="http://www.w3.org/1999/xlink">
<g><path style="opacity:0.995" fill="#943dab" d="M 562.5,185.5 C 562.631,186.376 562.298,187.043 561.5,187.5C 551.705,192.8 542.038,198.3 532.5,204C 531.663,205.011 531.33,206.178 531.5,207.5C 530.167,207.5 528.833,207.5 527.5,207.5C 531.298,205.264 531.464,202.598 528,199.5C 509.011,178.169 486.511,173.336 460.5,185C 433.386,203.189 426.386,227.356 439.5,257.5C 429.167,263.5 418.833,269.5 408.5,275.5C 407.778,275.082 407.278,274.416 407,273.5C 406.333,245.167 406.333,216.833 407,188.5C 409.883,183.95 413.716,180.45 418.5,178C 438.33,166.919 457.997,155.586 477.5,144C 484.501,141.545 491.168,142.212 497.5,146C 517.003,157.586 536.67,168.919 556.5,180C 558.996,181.331 560.996,183.164 562.5,185.5 Z"/></g>
<g><path style="opacity:0.998" fill="#1c65c0" d="M 201.5,163.5 C 214.927,162.991 228.26,163.824 241.5,166C 247.382,167.405 253.049,169.405 258.5,172C 261.333,173.5 263.5,175.667 265,178.5C 265.667,213.5 265.667,248.5 265,283.5C 261.613,287.446 257.446,290.28 252.5,292C 227.506,299.311 202.506,299.311 177.5,292C 172.087,290.387 167.92,287.22 165,282.5C 164.333,247.833 164.333,213.167 165,178.5C 167.596,174.61 171.096,171.777 175.5,170C 184.064,166.862 192.731,164.695 201.5,163.5 Z"/></g>
<g><path style="opacity:0.999" fill="#07b0ce" d="M 857.5,195.5 C 859.017,195.489 860.184,194.823 861,193.5C 862.188,194.563 862.688,195.897 862.5,197.5C 855.076,216.223 841.409,227.39 821.5,231C 802.848,233.753 785.848,229.753 770.5,219C 763.803,211.968 756.803,205.302 749.5,199C 729.469,186.492 712.302,189.659 698,208.5C 700.747,189.542 710.914,176.042 728.5,168C 753.621,159.021 776.621,162.687 797.5,179C 803.86,185.36 810.194,191.694 816.5,198C 830.81,205.984 844.477,205.151 857.5,195.5 Z"/></g>
<g><path style="opacity:1" fill="#f9fafd" d="M 201.5,171.5 C 220.327,169.601 238.327,172.434 255.5,180C 256.687,181.019 257.687,182.186 258.5,183.5C 256.909,186.256 254.576,188.089 251.5,189C 231.202,195.84 210.535,197.173 189.5,193C 184.172,191.837 179.172,189.837 174.5,187C 172.671,185.887 171.837,184.387 172,182.5C 173.938,179.894 176.438,178.061 179.5,177C 186.763,174.321 194.097,172.487 201.5,171.5 Z"/></g>
<g><path style="opacity:1" fill="#fcfbfc" d="M 527.5,207.5 C 521.5,210.833 515.5,214.167 509.5,217.5C 506.403,214.584 503.069,211.75 499.5,209C 480.586,200.876 467.419,206.376 460,225.5C 458.813,232.379 459.979,238.713 463.5,244.5C 473.185,258.169 485.518,261.003 500.5,253C 503.835,250.471 506.835,247.637 509.5,244.5C 516.329,248.749 523.329,252.749 530.5,256.5C 530.611,257.117 530.944,257.617 531.5,258C 516.649,279.582 496.316,287.582 470.5,282C 457.29,277.27 446.956,269.104 439.5,257.5C 426.386,227.356 433.386,203.189 460.5,185C 486.511,173.336 509.011,178.169 528,199.5C 531.464,202.598 531.298,205.264 527.5,207.5 Z"/></g>
<g><path style="opacity:0.997" fill="#822d98" d="M 562.5,185.5 C 563.222,185.918 563.722,186.584 564,187.5C 564.83,217.003 564.664,246.336 563.5,275.5C 552.309,269.408 541.309,263.074 530.5,256.5C 523.329,252.749 516.329,248.749 509.5,244.5C 501.828,240.333 494.495,235.666 487.5,230.5C 494.536,225.649 501.869,221.316 509.5,217.5C 515.5,214.167 521.5,210.833 527.5,207.5C 528.833,207.5 530.167,207.5 531.5,207.5C 531.33,206.178 531.663,205.011 532.5,204C 542.038,198.3 551.705,192.8 561.5,187.5C 562.298,187.043 562.631,186.376 562.5,185.5 Z"/></g>
<g><path style="opacity:1" fill="#07839a" d="M 862.5,197.5 C 862.688,195.897 862.188,194.563 861,193.5C 860.184,194.823 859.017,195.489 857.5,195.5C 860.144,192.52 862.811,189.52 865.5,186.5C 865.952,190.488 864.952,194.155 862.5,197.5 Z"/></g>
<g><path style="opacity:1" fill="#f8fafd" d="M 173.5,195.5 C 186.039,201.007 199.205,203.34 213,202.5C 228.019,203.093 242.519,200.76 256.5,195.5C 257.485,199.634 257.818,203.968 257.5,208.5C 251.277,212.97 244.277,215.803 236.5,217C 218.672,219.615 201.005,218.949 183.5,215C 179.142,213.828 175.475,211.661 172.5,208.5C 172.182,203.968 172.515,199.634 173.5,195.5 Z"/></g>
<g><path style="opacity:1" fill="#a3c2e5" d="M 173.5,195.5 C 172.515,199.634 172.182,203.968 172.5,208.5C 171.188,203.985 171.188,199.318 172.5,194.5C 173.107,194.624 173.44,194.957 173.5,195.5 Z"/></g>
<g><path style="opacity:1" fill="#b0cae8" d="M 256.5,195.5 C 256.56,194.957 256.893,194.624 257.5,194.5C 258.812,199.318 258.812,203.985 257.5,208.5C 257.818,203.968 257.485,199.634 256.5,195.5 Z"/></g>
<g><path style="opacity:1" fill="#953eab" d="M 509.5,217.5 C 501.869,221.316 494.536,225.649 487.5,230.5C 479.164,234.665 471.164,239.332 463.5,244.5C 459.979,238.713 458.813,232.379 460,225.5C 467.419,206.376 480.586,200.876 499.5,209C 503.069,211.75 506.403,214.584 509.5,217.5 Z"/></g>
<g><path style="opacity:1" fill="#f7f2f9" d="M 539.5,239.5 C 540.404,238.791 540.737,237.791 540.5,236.5C 537.941,236.198 535.607,236.532 533.5,237.5C 532.539,239.265 532.205,241.265 532.5,243.5C 530.833,243.5 529.167,243.5 527.5,243.5C 527.833,241.5 528.167,239.5 528.5,237.5C 527.791,236.596 526.791,236.263 525.5,236.5C 525.5,235.167 525.5,233.833 525.5,232.5C 526.833,232.5 528.167,232.5 529.5,232.5C 529.674,230.139 530.007,227.806 530.5,225.5C 529.167,225.5 527.833,225.5 526.5,225.5C 526.5,223.833 526.5,222.167 526.5,220.5C 528.167,220.5 529.833,220.5 531.5,220.5C 531.833,218.5 532.167,216.5 532.5,214.5C 533.833,214.5 535.167,214.5 536.5,214.5C 536.5,216.5 536.5,218.5 536.5,220.5C 538.833,220.5 541.167,220.5 543.5,220.5C 543.338,218.473 543.505,216.473 544,214.5C 545.356,213.62 546.856,213.286 548.5,213.5C 548.5,215.833 548.5,218.167 548.5,220.5C 549.5,220.5 550.5,220.5 551.5,220.5C 551.5,222.167 551.5,223.833 551.5,225.5C 549.833,225.5 548.167,225.5 546.5,225.5C 546.682,227.591 546.348,229.591 545.5,231.5C 546.689,232.429 548.022,232.762 549.5,232.5C 549.5,233.833 549.5,235.167 549.5,236.5C 547.833,236.5 546.167,236.5 544.5,236.5C 544.326,238.861 543.993,241.194 543.5,243.5C 542.167,243.5 540.833,243.5 539.5,243.5C 539.5,242.167 539.5,240.833 539.5,239.5 Z"/></g>
<g><path style="opacity:1" fill="#f9fafd" d="M 171.5,218.5 C 184.215,224.11 197.548,226.776 211.5,226.5C 227.454,227.08 242.787,224.413 257.5,218.5C 261.045,227.622 258.378,233.789 249.5,237C 226.14,244.203 202.807,244.203 179.5,237C 176.734,235.533 174.234,233.7 172,231.5C 171.501,227.179 171.334,222.846 171.5,218.5 Z"/></g>
<g><path style="opacity:1" fill="#c298cd" d="M 535.5,225.5 C 537.607,224.532 539.941,224.198 542.5,224.5C 542.784,226.415 542.451,228.081 541.5,229.5C 541.5,228.167 541.5,226.833 541.5,225.5C 539.5,225.5 537.5,225.5 535.5,225.5 Z"/></g>
<g><path style="opacity:1" fill="#84319a" d="M 535.5,225.5 C 537.5,225.5 539.5,225.5 541.5,225.5C 541.5,226.833 541.5,228.167 541.5,229.5C 541.5,230.5 541.5,231.5 541.5,232.5C 539.167,232.5 536.833,232.5 534.5,232.5C 534.198,229.941 534.532,227.607 535.5,225.5 Z"/></g>
<g><path style="opacity:1" fill="#68227a" d="M 487.5,230.5 C 494.495,235.666 501.828,240.333 509.5,244.5C 506.835,247.637 503.835,250.471 500.5,253C 485.518,261.003 473.185,258.169 463.5,244.5C 471.164,239.332 479.164,234.665 487.5,230.5 Z"/></g>
<g><path style="opacity:0.999" fill="#07afcd" d="M 688.5,230.5 C 709.002,228.282 727.002,233.782 742.5,247C 748.5,253 754.5,259 760.5,265C 780.242,274.973 796.742,271.139 810,253.5C 803.562,283.085 785.062,298.419 754.5,299.5C 741.105,298.979 728.772,295.145 717.5,288C 709.5,280.667 701.5,273.333 693.5,266C 673.555,253.471 656.555,256.637 642.5,275.5C 644.064,262.219 650.064,251.052 660.5,242C 668.997,235.896 678.331,232.063 688.5,230.5 Z"/></g>
<g><path style="opacity:1" fill="#bd90c8" d="M 525.5,232.5 C 525.5,233.833 525.5,235.167 525.5,236.5C 526.791,236.263 527.791,236.596 528.5,237.5C 527.167,237.5 525.833,237.5 524.5,237.5C 524.216,235.585 524.549,233.919 525.5,232.5 Z"/></g>
<g><path style="opacity:1" fill="#bc8fc8" d="M 533.5,237.5 C 535.607,236.532 537.941,236.198 540.5,236.5C 540.737,237.791 540.404,238.791 539.5,239.5C 538.082,237.692 536.082,237.025 533.5,237.5 Z"/></g>
<g><path style="opacity:1" fill="#fafcfd" d="M 173.5,242.5 C 186.203,248.006 199.536,250.673 213.5,250.5C 228.408,250.516 242.742,247.849 256.5,242.5C 257.485,246.634 257.818,250.968 257.5,255.5C 251.715,260.13 245.048,262.963 237.5,264C 221.833,266 206.167,266 190.5,264C 183.525,262.966 177.525,260.133 172.5,255.5C 172.182,250.968 172.515,246.634 173.5,242.5 Z"/></g>
<g><path style="opacity:1" fill="#a2c1e4" d="M 173.5,242.5 C 172.515,246.634 172.182,250.968 172.5,255.5C 171.188,250.985 171.188,246.318 172.5,241.5C 173.107,241.624 173.44,241.957 173.5,242.5 Z"/></g>
<g><path style="opacity:1" fill="#b0c9e8" d="M 256.5,242.5 C 256.56,241.957 256.893,241.624 257.5,241.5C 258.812,246.318 258.812,250.985 257.5,255.5C 257.818,250.968 257.485,246.634 256.5,242.5 Z"/></g>
<g><path style="opacity:0.989" fill="#672179" d="M 530.5,256.5 C 541.309,263.074 552.309,269.408 563.5,275.5C 562.046,278.123 560.046,280.289 557.5,282C 537.004,293.414 516.67,305.081 496.5,317C 490.846,320.739 484.846,321.406 478.5,319C 456.167,306 433.833,293 411.5,280C 409.859,278.871 408.859,277.371 408.5,275.5C 418.833,269.5 429.167,263.5 439.5,257.5C 446.956,269.104 457.29,277.27 470.5,282C 496.316,287.582 516.649,279.582 531.5,258C 530.944,257.617 530.611,257.117 530.5,256.5 Z"/></g>
<g><path style="opacity:1" fill="#7fdce9" d="M 171.5,265.5 C 184.626,271.54 198.459,274.207 213,273.5C 228.5,274.27 243.333,271.604 257.5,265.5C 258.661,269.795 258.828,274.129 258,278.5C 256.457,280.378 254.624,281.878 252.5,283C 231.553,289.96 210.22,291.294 188.5,287C 182.077,285.866 176.577,283.032 172,278.5C 171.501,274.179 171.334,269.846 171.5,265.5 Z"/></g>
<g><path style="opacity:1" fill="#000000" d="M 648.5,356.5 C 649.833,356.5 651.167,356.5 652.5,356.5C 652.833,373.846 652.5,391.179 651.5,408.5C 635.109,417.023 619.109,426.023 603.5,435.5C 622.88,447.858 642.88,459.192 663.5,469.5C 682.96,459.201 702.293,448.701 721.5,438C 722.357,437.311 723.023,436.478 723.5,435.5C 707.5,426.5 691.5,417.5 675.5,408.5C 674.5,391.179 674.167,373.846 674.5,356.5C 675.873,356.343 677.207,356.51 678.5,357C 717.037,378.768 755.704,400.268 794.5,421.5C 795.667,466.83 795.833,512.163 795,557.5C 779.829,548.58 764.495,539.913 749,531.5C 748.667,513.5 748.333,495.5 748,477.5C 747.586,477.043 747.086,476.709 746.5,476.5C 726.757,487.12 707.257,498.12 688,509.5C 687.333,531.5 687.333,553.5 688,575.5C 689.507,576.535 691.007,576.368 692.5,575C 707.586,566.373 722.753,557.873 738,549.5C 752.799,558.209 767.799,566.543 783,574.5C 784.257,574.85 784.591,575.517 784,576.5C 745.419,597.873 706.919,619.373 668.5,641C 665.167,643 661.833,643 658.5,641C 620.672,620.254 583.005,599.254 545.5,578C 544.552,577.517 543.552,577.351 542.5,577.5C 542.281,576.325 542.614,575.325 543.5,574.5C 558.747,566.294 573.914,557.96 589,549.5C 605.247,558.373 621.414,567.373 637.5,576.5C 638.086,576.291 638.586,575.957 639,575.5C 639.667,553.5 639.667,531.5 639,509.5C 619.743,498.12 600.243,487.12 580.5,476.5C 579.914,476.709 579.414,477.043 579,477.5C 578.833,495.509 578.333,513.509 577.5,531.5C 562.661,540.087 547.661,548.42 532.5,556.5C 531.167,511.5 531.167,466.5 532.5,421.5C 571.52,400.327 610.187,378.66 648.5,356.5 Z"/></g>
<g><path style="opacity:0.998" fill="#417eb0" d="M 290.5,371.5 C 303.471,370.327 316.471,370.994 329.5,373.5C 329.291,374.922 328.791,376.255 328,377.5C 313.715,393.907 299.548,410.407 285.5,427C 290.351,427.174 295.018,427.674 299.5,428.5C 293.167,428.5 286.833,428.5 280.5,428.5C 270.341,427.67 260.008,427.17 249.5,427C 252.934,422.81 256.6,418.81 260.5,415C 263.5,414.667 266.5,414.333 269.5,414C 268.552,413.517 267.552,413.351 266.5,413.5C 274.006,411.533 277.339,406.533 276.5,398.5C 277.309,400.292 277.809,402.292 278,404.5C 278.369,401.123 278.369,397.79 278,394.5C 283.697,387.475 289.363,380.475 295,373.5C 296.067,372.809 297.234,372.309 298.5,372C 295.854,371.503 293.187,371.336 290.5,371.5 Z"/></g>
<g><path style="opacity:1" fill="#4786b9" d="M 290.5,371.5 C 293.187,371.336 295.854,371.503 298.5,372C 297.234,372.309 296.067,372.809 295,373.5C 289.363,380.475 283.697,387.475 278,394.5C 278.369,397.79 278.369,401.123 278,404.5C 277.809,402.292 277.309,400.292 276.5,398.5C 271.212,388.8 264.379,387.467 256,394.5C 251.64,405.11 255.14,411.443 266.5,413.5C 267.552,413.351 268.552,413.517 269.5,414C 266.5,414.333 263.5,414.667 260.5,415C 256.6,418.81 252.934,422.81 249.5,427C 260.008,427.17 270.341,427.67 280.5,428.5C 266.5,428.5 252.5,428.5 238.5,428.5C 238.333,417.162 238.5,405.828 239,394.5C 241.807,385.026 247.974,378.86 257.5,376C 268.306,373.051 279.306,371.551 290.5,371.5 Z"/></g>
<g><path style="opacity:1" fill="#3974a4" d="M 329.5,373.5 C 343.798,375.15 353.798,382.484 359.5,395.5C 359.631,396.239 359.464,396.906 359,397.5C 357.731,392.556 355.731,392.222 353,396.5C 325.5,428.667 298,460.833 270.5,493C 276.681,493.172 282.681,493.672 288.5,494.5C 280.981,494.175 273.648,494.508 266.5,495.5C 246.997,498.837 235.164,510.17 231,529.5C 230.5,540.161 230.333,550.828 230.5,561.5C 220.828,561.666 211.161,561.5 201.5,561C 198.562,560.304 195.896,559.138 193.5,557.5C 194.598,556.603 194.598,555.77 193.5,555C 226.737,516.519 259.737,477.853 292.5,439C 295.167,438.667 297.833,438.333 300.5,438C 291.173,437.5 281.839,437.334 272.5,437.5C 251.5,437.5 230.5,437.5 209.5,437.5C 239.329,436.502 269.329,436.169 299.5,436.5C 300.833,433.833 300.833,431.167 299.5,428.5C 295.018,427.674 290.351,427.174 285.5,427C 299.548,410.407 313.715,393.907 328,377.5C 328.791,376.255 329.291,374.922 329.5,373.5 Z"/></g>
<g><path style="opacity:1" fill="#356f9f" d="M 359.5,395.5 C 360.434,396.568 360.768,397.901 360.5,399.5C 360.666,408.839 360.5,418.173 360,427.5C 359.667,424.5 359.333,421.5 359,418.5C 337.458,443.039 316.292,467.873 295.5,493C 299.167,493.333 302.833,493.667 306.5,494C 300.509,494.499 294.509,494.666 288.5,494.5C 282.681,493.672 276.681,493.172 270.5,493C 298,460.833 325.5,428.667 353,396.5C 355.731,392.222 357.731,392.556 359,397.5C 359.464,396.906 359.631,396.239 359.5,395.5 Z"/></g>
<g><path style="opacity:0.061" fill="#1c384f" d="M 238.5,428.5 C 252.5,428.5 266.5,428.5 280.5,428.5C 286.833,428.5 293.167,428.5 299.5,428.5C 300.833,431.167 300.833,433.833 299.5,436.5C 299.5,434.167 299.5,431.833 299.5,429.5C 278.993,429.83 258.66,429.497 238.5,428.5 Z"/></g>
<g><path style="opacity:0.999" fill="#306998" d="M 360.5,399.5 C 361.663,422.996 361.83,446.663 361,470.5C 357.5,483.333 349.333,491.5 336.5,495C 313.169,495.5 289.836,495.667 266.5,495.5C 273.648,494.508 280.981,494.175 288.5,494.5C 294.509,494.666 300.509,494.499 306.5,494C 302.833,493.667 299.167,493.333 295.5,493C 316.292,467.873 337.458,443.039 359,418.5C 359.333,421.5 359.667,424.5 360,427.5C 360.5,418.173 360.666,408.839 360.5,399.5 Z"/></g>
<g><path style="opacity:0.51" fill="#27849f" d="M 884.5,435.5 C 899.837,435.333 915.17,435.5 930.5,436C 932.141,437.129 933.141,438.629 933.5,440.5C 932.038,439.542 930.705,438.376 929.5,437C 914.994,436.173 900.661,436.339 886.5,437.5C 885.5,437.167 884.833,436.5 884.5,435.5 Z"/></g>
<g><path style="opacity:0.999" fill="#4786b8" d="M 209.5,437.5 C 230.5,437.5 251.5,437.5 272.5,437.5C 271.432,438.434 270.099,438.768 268.5,438.5C 258.828,438.334 249.161,438.5 239.5,439C 218.215,463.74 197.048,488.574 176,513.5C 175.809,515.708 175.309,517.708 174.5,519.5C 170.829,499.492 172.329,479.825 179,460.5C 184.765,446.891 194.931,439.225 209.5,437.5 Z"/></g>
<g><path style="opacity:0.999" fill="#417fb1" d="M 268.5,438.5 C 239.482,472.845 210.149,506.845 180.5,540.5C 177.252,533.97 175.252,526.97 174.5,519.5C 175.309,517.708 175.809,515.708 176,513.5C 197.048,488.574 218.215,463.74 239.5,439C 249.161,438.5 258.828,438.334 268.5,438.5 Z"/></g>
<g><path style="opacity:1" fill="#3d7aab" d="M 272.5,437.5 C 281.839,437.334 291.173,437.5 300.5,438C 297.833,438.333 295.167,438.667 292.5,439C 259.737,477.853 226.737,516.519 193.5,555C 194.598,555.77 194.598,556.603 193.5,557.5C 187.281,553.28 182.948,547.614 180.5,540.5C 210.149,506.845 239.482,472.845 268.5,438.5C 270.099,438.768 271.432,438.434 272.5,437.5 Z"/></g>
<g><path style="opacity:0.996" fill="#a7be46" d="M 55.5,433.5 C 56.8221,433.33 57.9887,433.663 59,434.5C 60.2889,438.108 62.2889,441.108 65,443.5C 74.3333,439.5 83.6667,439.5 93,443.5C 95.7333,441.046 97.7333,438.046 99,434.5C 100.011,433.663 101.178,433.33 102.5,433.5C 101.404,437.697 99.7376,441.697 97.5,445.5C 106.498,451.335 112.165,459.502 114.5,470C 114.167,470.833 113.833,471.667 113.5,472.5C 102.044,473.157 90.544,473.49 79,473.5C 67.456,473.49 55.956,473.157 44.5,472.5C 43.5729,468.731 44.0729,465.064 46,461.5C 49.2556,454.744 54.0889,449.411 60.5,445.5C 58.2624,441.697 56.5957,437.697 55.5,433.5 Z"/></g>
<g><path style="opacity:1" fill="#3ac5f1" d="M 933.5,440.5 C 934.899,443.699 935.899,447.032 936.5,450.5C 933.823,453.169 930.823,455.502 927.5,457.5C 919.647,460.586 911.647,463.419 903.5,466C 901.635,466.964 899.968,468.131 898.5,469.5C 895.08,458.567 891.08,447.901 886.5,437.5C 900.661,436.339 914.994,436.173 929.5,437C 930.705,438.376 932.038,439.542 933.5,440.5 Z"/></g>
<g><path style="opacity:1" fill="#f6df6b" d="M 414.5,448.5 C 413.504,448.586 412.671,448.252 412,447.5C 397.833,457.667 383.667,467.833 369.5,478C 368.552,478.483 367.552,478.649 366.5,478.5C 366.995,476.518 367.495,474.518 368,472.5C 368.178,460.591 368.678,448.758 369.5,437C 380.226,436.097 390.893,436.431 401.5,438C 407.444,439.623 411.777,443.123 414.5,448.5 Z"/></g>
<g><path style="opacity:1" fill="#0f4885" d="M 884.5,435.5 C 884.833,436.5 885.5,437.167 886.5,437.5C 891.08,447.901 895.08,458.567 898.5,469.5C 901.572,477.717 904.239,486.05 906.5,494.5C 905.768,493.192 904.934,491.858 904,490.5C 903.275,493.79 902.108,496.79 900.5,499.5C 899.828,496.29 898.828,493.124 897.5,490C 897.892,488.989 898.559,488.489 899.5,488.5C 894.072,476.277 888.072,464.444 881.5,453C 879.608,452.027 877.608,451.36 875.5,451C 874.95,448.842 873.95,448.342 872.5,449.5C 873.447,444.479 875.447,439.979 878.5,436C 880.473,435.505 882.473,435.338 884.5,435.5 Z"/></g>
<g><path style="opacity:0.999" fill="#fde266" d="M 414.5,448.5 C 417.258,451.678 419.258,455.345 420.5,459.5C 419.265,459.279 418.265,458.612 417.5,457.5C 359.028,498.806 300.694,540.306 242.5,582C 241.299,582.903 240.465,584.069 240,585.5C 239.501,590.489 239.334,595.489 239.5,600.5C 238.506,590.013 238.172,579.346 238.5,568.5C 239.29,569.609 239.79,570.942 240,572.5C 240.309,571.234 240.809,570.067 241.5,569C 273.516,545.957 305.182,523.79 336.5,502.5C 350.354,499.312 360.354,491.312 366.5,478.5C 367.552,478.649 368.552,478.483 369.5,478C 383.667,467.833 397.833,457.667 412,447.5C 412.671,448.252 413.504,448.586 414.5,448.5 Z"/></g>
<g><path style="opacity:1" fill="#0a0b03" d="M 60.5,455.5 C 64.1378,454.737 65.6378,456.07 65,459.5C 60.4155,461.413 58.9155,460.079 60.5,455.5 Z"/></g>
<g><path style="opacity:1" fill="#0a0b03" d="M 93.5,455.5 C 97.1378,454.737 98.6378,456.07 98,459.5C 93.4155,461.413 91.9155,460.079 93.5,455.5 Z"/></g>
<g><path style="opacity:1" fill="#fee160" d="M 420.5,459.5 C 422.106,462.986 423.106,466.653 423.5,470.5C 422.15,469.517 421.15,468.184 420.5,466.5C 360.833,509.167 301.167,551.833 241.5,594.5C 240.707,598.12 240.707,601.787 241.5,605.5C 240.069,604.22 239.402,602.553 239.5,600.5C 239.334,595.489 239.501,590.489 240,585.5C 240.465,584.069 241.299,582.903 242.5,582C 300.694,540.306 359.028,498.806 417.5,457.5C 418.265,458.612 419.265,459.279 420.5,459.5 Z"/></g>
<g><path style="opacity:1" fill="#fddd56" d="M 423.5,470.5 C 426.003,478.522 427.336,486.855 427.5,495.5C 426.037,492.797 425.204,489.797 425,486.5C 391.079,510.544 357.245,534.711 323.5,559C 315.425,560.103 307.425,560.937 299.5,561.5C 299.194,564.385 299.527,567.052 300.5,569.5C 321.007,569.17 341.34,569.503 361.5,570.5C 361.167,570.5 360.833,570.5 360.5,570.5C 340.164,570.333 319.831,570.5 299.5,571C 305.167,571.333 310.833,571.667 316.5,572C 295.833,586.667 275.167,601.333 254.5,616C 256.063,616.759 257.063,617.926 257.5,619.5C 250.604,616.603 245.271,611.936 241.5,605.5C 240.707,601.787 240.707,598.12 241.5,594.5C 301.167,551.833 360.833,509.167 420.5,466.5C 421.15,468.184 422.15,469.517 423.5,470.5 Z"/></g>
<g><path style="opacity:0.999" fill="#0d5297" d="M 900.5,499.5 C 900.074,503.902 898.74,507.902 896.5,511.5C 896.671,508.203 896.005,507.869 894.5,510.5C 882.336,505.662 870.169,500.995 858,496.5C 857.392,498.066 856.558,499.4 855.5,500.5C 860.89,483.392 866.556,466.392 872.5,449.5C 873.95,448.342 874.95,448.842 875.5,451C 877.608,451.36 879.608,452.027 881.5,453C 888.072,464.444 894.072,476.277 899.5,488.5C 898.559,488.489 897.892,488.989 897.5,490C 898.828,493.124 899.828,496.29 900.5,499.5 Z"/></g>
<g><path style="opacity:0.62" fill="#1f6884" d="M 940.5,462.5 C 942.074,464.102 942.741,466.102 942.5,468.5C 940.926,466.898 940.259,464.898 940.5,462.5 Z"/></g>
<g><path style="opacity:1" fill="#36b9ed" d="M 936.5,450.5 C 938.405,454.216 939.739,458.216 940.5,462.5C 940.259,464.898 940.926,466.898 942.5,468.5C 942.336,471.187 942.503,473.854 943,476.5C 943.889,475.112 944.389,475.278 944.5,477C 944.355,477.772 944.022,478.439 943.5,479C 932.378,483.895 921.045,488.228 909.5,492C 908.922,493.417 907.922,494.25 906.5,494.5C 904.239,486.05 901.572,477.717 898.5,469.5C 899.968,468.131 901.635,466.964 903.5,466C 911.647,463.419 919.647,460.586 927.5,457.5C 930.823,455.502 933.823,453.169 936.5,450.5 Z"/></g>
<g><path style="opacity:0.952" fill="#a9c047" d="M 28.5,476.5 C 34.0858,475.271 37.9191,477.271 40,482.5C 40.6667,494.5 40.6667,506.5 40,518.5C 39.015,522.666 36.3484,524.666 32,524.5C 29.1861,524.592 26.8527,523.592 25,521.5C 24.3333,507.833 24.3333,494.167 25,480.5C 26.3756,479.295 27.5423,477.962 28.5,476.5 Z"/></g>
<g><path style="opacity:0.978" fill="#a9c047" d="M 44.5,476.5 C 67.8785,476.177 91.2119,476.51 114.5,477.5C 115.666,497.158 115.833,516.825 115,536.5C 114.5,537 114,537.5 113.5,538C 109.179,538.499 104.846,538.666 100.5,538.5C 100.666,545.508 100.5,552.508 100,559.5C 97.4586,564.069 93.6253,565.569 88.5,564C 87.3333,562.833 86.1667,561.667 85,560.5C 84.5003,553.174 84.3337,545.841 84.5,538.5C 80.8333,538.5 77.1667,538.5 73.5,538.5C 73.6663,545.841 73.4997,553.174 73,560.5C 69.5796,564.753 65.4129,565.587 60.5,563C 59.2986,562.097 58.4652,560.931 58,559.5C 57.5004,552.508 57.3337,545.508 57.5,538.5C 53.4862,538.666 49.4862,538.499 45.5,538C 44.5838,537.626 43.7504,537.126 43,536.5C 42.3333,517.167 42.3333,497.833 43,478.5C 43.7172,477.956 44.2172,477.289 44.5,476.5 Z"/></g>
<g><path style="opacity:0.919" fill="#a9c047" d="M 123.5,476.5 C 128.28,475.641 131.78,477.308 134,481.5C 134.667,494.167 134.667,506.833 134,519.5C 130.49,524.789 125.99,525.789 120.5,522.5C 119.416,521.335 118.583,520.002 118,518.5C 117.333,506.5 117.333,494.5 118,482.5C 119.36,479.977 121.193,477.977 123.5,476.5 Z"/></g>
<g><path style="opacity:1" fill="#32aee5" d="M 942.5,468.5 C 945.408,474.106 947.408,480.106 948.5,486.5C 949.054,489.562 949.554,492.562 950,495.5C 949.667,494.833 949.333,494.167 949,493.5C 936.33,498.418 923.83,503.751 911.5,509.5C 909.081,504.853 907.414,499.853 906.5,494.5C 907.922,494.25 908.922,493.417 909.5,492C 921.045,488.228 932.378,483.895 943.5,479C 944.022,478.439 944.355,477.772 944.5,477C 944.389,475.278 943.889,475.112 943,476.5C 942.503,473.854 942.336,471.187 942.5,468.5 Z"/></g>
<g><path style="opacity:1" fill="#fdd849" d="M 427.5,495.5 C 428.624,502.335 428.291,509.002 426.5,515.5C 425.71,514.391 425.21,513.058 425,511.5C 402.254,527.79 379.421,543.956 356.5,560C 369.673,560.169 382.673,560.669 395.5,561.5C 363.5,561.5 331.5,561.5 299.5,561.5C 307.425,560.937 315.425,560.103 323.5,559C 357.245,534.711 391.079,510.544 425,486.5C 425.204,489.797 426.037,492.797 427.5,495.5 Z"/></g>
<g><path style="opacity:0.999" fill="#f9e36f" d="M 336.5,502.5 C 305.182,523.79 273.516,545.957 241.5,569C 240.809,570.067 240.309,571.234 240,572.5C 239.79,570.942 239.29,569.609 238.5,568.5C 238.333,554.829 238.5,541.163 239,527.5C 242.933,512.903 252.433,504.736 267.5,503C 290.498,502.5 313.498,502.333 336.5,502.5 Z"/></g>
<g><path style="opacity:1" fill="#2fa5e4" d="M 948.5,486.5 C 952.098,494.858 955.098,503.525 957.5,512.5C 957.56,515.341 958.226,518.007 959.5,520.5C 946.975,523.968 933.975,528.634 920.5,534.5C 918.697,529.089 916.697,523.756 914.5,518.5C 914.737,517.209 914.404,516.209 913.5,515.5C 912.262,513.786 911.595,511.786 911.5,509.5C 923.83,503.751 936.33,498.418 949,493.5C 949.333,494.167 949.667,494.833 950,495.5C 949.554,492.562 949.054,489.562 948.5,486.5 Z"/></g>
<g><path style="opacity:1" fill="#fcd33e" d="M 426.5,515.5 C 424.822,528.367 420.655,540.367 414,551.5C 409.44,557.863 403.273,561.196 395.5,561.5C 382.673,560.669 369.673,560.169 356.5,560C 379.421,543.956 402.254,527.79 425,511.5C 425.21,513.058 425.71,514.391 426.5,515.5 Z"/></g>
<g><path style="opacity:1" fill="#0a5ca7" d="M 896.5,511.5 C 896.567,512.959 896.234,514.292 895.5,515.5C 894.596,516.209 894.263,517.209 894.5,518.5C 887.825,518.334 881.158,518.5 874.5,519C 873.978,519.561 873.645,520.228 873.5,521C 878.403,526.73 883.403,532.23 888.5,537.5C 887.87,539.75 886.87,541.75 885.5,543.5C 885.439,541.408 884.439,539.908 882.5,539C 871.223,535.183 859.889,531.683 848.5,528.5C 848.649,527.448 848.483,526.448 848,525.5C 847.8,527.32 846.966,528.653 845.5,529.5C 848.463,519.609 851.796,509.943 855.5,500.5C 856.558,499.4 857.392,498.066 858,496.5C 870.169,500.995 882.336,505.662 894.5,510.5C 896.005,507.869 896.671,508.203 896.5,511.5 Z"/></g>
<g><path style="opacity:0.765" fill="#195578" d="M 957.5,512.5 C 958.871,514.936 959.871,517.603 960.5,520.5C 960.167,520.5 959.833,520.5 959.5,520.5C 958.226,518.007 957.56,515.341 957.5,512.5 Z"/></g>
<g><path style="opacity:0.196" fill="#012038" d="M 895.5,515.5 C 898.087,516.816 901.087,517.483 904.5,517.5C 907.913,517.483 910.913,516.816 913.5,515.5C 914.404,516.209 914.737,517.209 914.5,518.5C 913.5,518.5 912.5,518.5 911.5,518.5C 905.833,518.5 900.167,518.5 894.5,518.5C 894.263,517.209 894.596,516.209 895.5,515.5 Z"/></g>
<g><path style="opacity:1" fill="#0075cf" d="M 894.5,518.5 C 900.167,518.5 905.833,518.5 911.5,518.5C 914.756,532.946 919.756,546.613 926.5,559.5C 926.047,560.458 925.381,561.292 924.5,562C 921.854,562.497 919.187,562.664 916.5,562.5C 909.536,557.203 903.202,551.203 897.5,544.5C 896.415,542.413 894.749,541.08 892.5,540.5C 891.167,539.5 889.833,538.5 888.5,537.5C 883.403,532.23 878.403,526.73 873.5,521C 873.645,520.228 873.978,519.561 874.5,519C 881.158,518.5 887.825,518.334 894.5,518.5 Z"/></g>
<g><path style="opacity:1" fill="#2c9ee2" d="M 959.5,520.5 C 959.833,520.5 960.167,520.5 960.5,520.5C 961.566,522.701 962.233,525.035 962.5,527.5C 962.366,529.292 962.699,530.958 963.5,532.5C 951.372,536.734 939.372,541.234 927.5,546C 926.915,547.302 926.249,548.469 925.5,549.5C 923.636,544.574 921.969,539.574 920.5,534.5C 933.975,528.634 946.975,523.968 959.5,520.5 Z"/></g>
<g><path style="opacity:1" fill="#0761ae" d="M 885.5,543.5 C 884.317,548.897 882.817,554.23 881,559.5C 879.833,560.667 878.667,561.833 877.5,563C 865.167,563.667 852.833,563.667 840.5,563C 838.125,561.462 836.792,559.295 836.5,556.5C 839.237,547.371 842.237,538.371 845.5,529.5C 846.966,528.653 847.8,527.32 848,525.5C 848.483,526.448 848.649,527.448 848.5,528.5C 859.889,531.683 871.223,535.183 882.5,539C 884.439,539.908 885.439,541.408 885.5,543.5 Z"/></g>
<g><path style="opacity:0.059" fill="#134665" d="M 962.5,527.5 C 964.02,529.89 965.02,532.557 965.5,535.5C 964.599,534.71 963.932,533.71 963.5,532.5C 962.699,530.958 962.366,529.292 962.5,527.5 Z"/></g>
<g><path style="opacity:1" fill="#2893db" d="M 963.5,532.5 C 963.932,533.71 964.599,534.71 965.5,535.5C 968.814,543.263 970.981,551.263 972,559.5C 970.833,560.667 969.667,561.833 968.5,563C 950.995,563.829 933.662,563.662 916.5,562.5C 919.187,562.664 921.854,562.497 924.5,562C 925.381,561.292 926.047,560.458 926.5,559.5C 927.751,556.062 927.417,552.728 925.5,549.5C 926.249,548.469 926.915,547.302 927.5,546C 939.372,541.234 951.372,536.734 963.5,532.5 Z"/></g>
<g><path style="opacity:0.647" fill="#033c69" d="M 892.5,540.5 C 894.749,541.08 896.415,542.413 897.5,544.5C 895.251,543.92 893.585,542.587 892.5,540.5 Z"/></g>
<g><path style="opacity:1" fill="#0268b6" d="M 911.5,518.5 C 912.5,518.5 913.5,518.5 914.5,518.5C 916.697,523.756 918.697,529.089 920.5,534.5C 921.969,539.574 923.636,544.574 925.5,549.5C 927.417,552.728 927.751,556.062 926.5,559.5C 919.756,546.613 914.756,532.946 911.5,518.5 Z"/></g>
<g><path style="opacity:0.141" fill="#63541d" d="M 299.5,561.5 C 331.5,561.5 363.5,561.5 395.5,561.5C 364.004,562.498 332.338,562.832 300.5,562.5C 300.5,564.833 300.5,567.167 300.5,569.5C 299.527,567.052 299.194,564.385 299.5,561.5 Z"/></g>
<g><path style="opacity:1" fill="#fcd543" d="M 360.5,570.5 C 352.612,575.035 344.945,580.035 337.5,585.5C 327.833,585.167 323.167,589.833 323.5,599.5C 322.691,597.708 322.191,595.708 322,593.5C 320.619,597.221 318.119,600.054 314.5,602C 303.991,609.088 293.658,616.421 283.5,624C 281.389,624.845 279.389,625.678 277.5,626.5C 270.211,625.686 263.544,623.352 257.5,619.5C 257.063,617.926 256.063,616.759 254.5,616C 275.167,601.333 295.833,586.667 316.5,572C 310.833,571.667 305.167,571.333 299.5,571C 319.831,570.5 340.164,570.333 360.5,570.5 Z"/></g>
<g><path style="opacity:1" fill="#f8cf3a" d="M 360.5,570.5 C 360.833,570.5 361.167,570.5 361.5,570.5C 361.666,580.172 361.5,589.839 361,599.5C 358.767,606.73 354.601,612.563 348.5,617C 325.909,629.014 302.242,632.181 277.5,626.5C 279.389,625.678 281.389,624.845 283.5,624C 293.658,616.421 303.991,609.088 314.5,602C 318.119,600.054 320.619,597.221 322,593.5C 322.191,595.708 322.691,597.708 323.5,599.5C 326.532,607.685 332.199,610.185 340.5,607C 345.153,603.212 346.653,598.378 345,592.5C 343.258,589.254 340.758,586.921 337.5,585.5C 344.945,580.035 352.612,575.035 360.5,570.5 Z"/></g>
<g><path style="opacity:0.99" fill="#6599d1" d="M 559.5,713.5 C 548.51,718.993 537.843,724.993 527.5,731.5C 528.686,729.806 528.519,728.139 527,726.5C 513.863,709.857 496.696,703.024 475.5,706C 455.22,710.945 442.053,723.445 436,743.5C 433.677,757.064 435.844,769.731 442.5,781.5C 431.886,786.139 421.886,791.805 412.5,798.5C 411.21,797.942 410.377,796.942 410,795.5C 409.333,768.833 409.333,742.167 410,715.5C 411.061,712.438 412.894,709.938 415.5,708C 436.833,695.667 458.167,683.333 479.5,671C 483.5,670.333 487.5,670.333 491.5,671C 512.833,683.333 534.167,695.667 555.5,708C 557.464,709.451 558.797,711.284 559.5,713.5 Z"/></g>
<g><path style="opacity:1" fill="#f72942" d="M 772.5,690.5 C 772.427,692.027 773.094,693.027 774.5,693.5C 775.167,693.5 775.5,693.833 775.5,694.5C 775.427,696.027 776.094,697.027 777.5,697.5C 779.341,699.849 780.674,702.515 781.5,705.5C 781.88,709.823 782.214,714.156 782.5,718.5C 781.666,723.496 780.999,728.496 780.5,733.5C 777.32,742.172 771.653,748.338 763.5,752C 759.375,745.584 755.375,739.084 751.5,732.5C 762.443,722.451 762.11,712.951 750.5,704C 740.526,700.77 733.36,703.937 729,713.5C 727.497,721.158 729.663,727.491 735.5,732.5C 732.072,739.105 728.405,745.605 724.5,752C 714.416,747.396 708.083,739.563 705.5,728.5C 705.344,720.471 705.677,712.471 706.5,704.5C 715.171,684.325 730.504,675.825 752.5,679C 760.309,681.064 766.976,684.898 772.5,690.5 Z"/></g>
<g><path style="opacity:0.631" fill="#7d1522" d="M 772.5,690.5 C 773.906,690.973 774.573,691.973 774.5,693.5C 773.094,693.027 772.427,692.027 772.5,690.5 Z"/></g>
<g><path style="opacity:0.463" fill="#7d1522" d="M 775.5,694.5 C 776.906,694.973 777.573,695.973 777.5,697.5C 776.094,697.027 775.427,696.027 775.5,694.5 Z"/></g>
<g><path style="opacity:0.019" fill="#000000" d="M 123.5,700.5 C 124.586,700.62 125.253,701.287 125.5,702.5C 124.751,704.241 124.417,705.908 124.5,707.5C 123.526,705.257 123.192,702.924 123.5,700.5 Z"/></g>
<g><path style="opacity:0.948" fill="#232d3c" d="M 147.5,701.5 C 153.577,701.196 159.577,701.696 165.5,703C 172.351,705.862 175.851,711.029 176,718.5C 176.333,727.833 176.667,737.167 177,746.5C 178.309,748.747 178.975,751.08 179,753.5C 173.088,759.531 168.754,758.531 166,750.5C 158.146,758.705 148.979,760.538 138.5,756C 129.548,747.362 129.215,738.362 137.5,729C 146.113,724.111 155.113,723.278 164.5,726.5C 167.218,716.231 163.385,710.898 153,710.5C 146.947,711.01 141.113,712.343 135.5,714.5C 135.336,711.813 135.503,709.146 136,706.5C 139.688,704.332 143.522,702.666 147.5,701.5 Z M 153.5,732.5 C 157.142,733.08 160.809,733.58 164.5,734C 165.303,745.85 159.636,750.85 147.5,749C 145.667,748.5 144.5,747.333 144,745.5C 142.432,737.581 145.599,733.248 153.5,732.5 Z"/></g>
<g><path style="opacity:0.977" fill="#232d3c" d="M 272.5,701.5 C 281.326,700.187 289.326,702.02 296.5,707C 295.594,708.699 295.261,710.533 295.5,712.5C 293.011,712.702 290.677,712.202 288.5,711C 283.5,710.333 278.5,710.333 273.5,711C 268.586,714.171 268.253,717.837 272.5,722C 278.771,724.485 285.105,726.818 291.5,729C 293.667,730.5 295.5,732.333 297,734.5C 300.907,747.128 296.074,754.962 282.5,758C 276.461,758.573 270.461,758.239 264.5,757C 259.105,755.507 257.105,752.007 258.5,746.5C 264.205,748.049 270.038,749.049 276,749.5C 279.258,749.507 282.425,749.007 285.5,748C 288.936,744.94 289.269,741.607 286.5,738C 279.567,735.134 272.567,732.467 265.5,730C 256.167,721.667 256.167,713.333 265.5,705C 268.174,704.33 270.507,703.163 272.5,701.5 Z"/></g>
<g><path style="opacity:0.986" fill="#232d3b" d="M 181.5,702.5 C 184.518,702.335 187.518,702.502 190.5,703C 191,703.5 191.5,704 192,704.5C 195.642,717.069 198.976,729.736 202,742.5C 205.498,731.028 208.498,719.362 211,707.5C 211.273,705.671 212.107,704.171 213.5,703C 217.317,701.977 220.817,702.477 224,704.5C 226.857,717.262 230.024,729.929 233.5,742.5C 236.997,729.845 240.497,717.178 244,704.5C 247.998,701.681 251.831,701.848 255.5,705C 250.207,721.879 244.707,738.712 239,755.5C 237.352,757.028 235.352,757.695 233,757.5C 230.648,757.695 228.648,757.028 227,755.5C 224,742.833 221,730.167 218,717.5C 214.598,729.941 211.431,742.441 208.5,755C 208.095,755.945 207.428,756.612 206.5,757C 201.222,758.726 197.388,757.226 195,752.5C 190.464,736.394 185.631,720.394 180.5,704.5C 180.863,703.817 181.196,703.15 181.5,702.5 Z"/></g>
<g><path style="opacity:1" fill="#fcfdfe" d="M 527.5,731.5 C 520.806,735.179 514.14,738.846 507.5,742.5C 498.665,730.725 487.332,727.559 473.5,733C 459.756,742.554 456.756,754.72 464.5,769.5C 474.532,781.605 486.532,783.772 500.5,776C 503.118,773.894 505.118,771.394 506.5,768.5C 513.228,771.699 519.895,775.199 526.5,779C 527.381,779.708 528.047,780.542 528.5,781.5C 518.768,797.537 504.435,805.537 485.5,805.5C 466.565,805.537 452.232,797.537 442.5,781.5C 435.844,769.731 433.677,757.064 436,743.5C 442.053,723.445 455.22,710.945 475.5,706C 496.696,703.024 513.863,709.857 527,726.5C 528.519,728.139 528.686,729.806 527.5,731.5 Z"/></g>
<g><path style="opacity:0.011" fill="#000000" d="M 125.5,772.5 C 124.566,773.568 124.232,774.901 124.5,776.5C 124.5,777.167 124.833,777.5 125.5,777.5C 125.813,780.247 125.48,782.914 124.5,785.5C 123.167,759.833 123.167,734.167 124.5,708.5C 124.833,708.667 125.167,708.833 125.5,709C 125.15,728.973 125.15,750.139 125.5,772.5 Z"/></g>
<g><path style="opacity:0.982" fill="#02599c" d="M 559.5,713.5 C 560.222,713.918 560.722,714.584 561,715.5C 561.667,742.167 561.667,768.833 561,795.5C 560.722,796.416 560.222,797.082 559.5,797.5C 549.313,792.489 539.48,786.822 530,780.5C 529.617,781.056 529.117,781.389 528.5,781.5C 528.047,780.542 527.381,779.708 526.5,779C 519.895,775.199 513.228,771.699 506.5,768.5C 499.874,763.208 492.54,759.208 484.5,756.5C 492.167,751.833 499.833,747.167 507.5,742.5C 514.14,738.846 520.806,735.179 527.5,731.5C 537.843,724.993 548.51,718.993 559.5,713.5 Z"/></g>
<g><path style="opacity:0.948" fill="#b41e30" d="M 706.5,704.5 C 705.677,712.471 705.344,720.471 705.5,728.5C 702.775,720.403 703.108,712.403 706.5,704.5 Z"/></g>
<g><path style="opacity:1" fill="#b41f30" d="M 781.5,705.5 C 783.444,712.25 783.944,719.25 783,726.5C 782.61,729.104 781.776,731.438 780.5,733.5C 780.999,728.496 781.666,723.496 782.5,718.5C 782.214,714.156 781.88,709.823 781.5,705.5 Z"/></g>
<g><path style="opacity:1" fill="#6599d1" d="M 507.5,742.5 C 499.833,747.167 492.167,751.833 484.5,756.5C 478.221,759.976 471.888,763.476 465.5,767C 464.748,767.671 464.414,768.504 464.5,769.5C 456.756,754.72 459.756,742.554 473.5,733C 487.332,727.559 498.665,730.725 507.5,742.5 Z"/></g>
<g><path style="opacity:1" fill="#eaf1f7" d="M 524.5,746.5 C 526.5,746.5 528.5,746.5 530.5,746.5C 530.5,748.5 530.5,750.5 530.5,752.5C 532.5,752.5 534.5,752.5 536.5,752.5C 536.5,754.5 536.5,756.5 536.5,758.5C 534.5,758.5 532.5,758.5 530.5,758.5C 530.5,760.167 530.5,761.833 530.5,763.5C 528.5,763.5 526.5,763.5 524.5,763.5C 524.5,761.833 524.5,760.167 524.5,758.5C 522.833,758.5 521.167,758.5 519.5,758.5C 519.5,756.5 519.5,754.5 519.5,752.5C 521.167,752.5 522.833,752.5 524.5,752.5C 524.5,750.5 524.5,748.5 524.5,746.5 Z"/></g>
<g><path style="opacity:1" fill="#ecf2f7" d="M 551.5,763.5 C 549.833,763.5 548.167,763.5 546.5,763.5C 546.784,761.585 546.451,759.919 545.5,758.5C 543.833,758.5 542.167,758.5 540.5,758.5C 540.5,756.5 540.5,754.5 540.5,752.5C 542.167,752.5 543.833,752.5 545.5,752.5C 545.5,750.5 545.5,748.5 545.5,746.5C 547.5,746.5 549.5,746.5 551.5,746.5C 551.5,748.5 551.5,750.5 551.5,752.5C 553.5,752.5 555.5,752.5 557.5,752.5C 557.5,754.5 557.5,756.5 557.5,758.5C 555.5,758.5 553.5,758.5 551.5,758.5C 551.5,760.167 551.5,761.833 551.5,763.5 Z"/></g>
<g><path style="opacity:1" fill="#86d364" d="M 686.5,790.5 C 685.414,790.62 684.747,791.287 684.5,792.5C 684.801,794.422 685.467,796.088 686.5,797.5C 691.462,807.544 699.129,810.377 709.5,806C 711.734,803.937 713.734,801.771 715.5,799.5C 716.117,799.389 716.617,799.056 717,798.5C 717.236,796.236 717.736,794.069 718.5,792C 725.826,791.5 733.159,791.334 740.5,791.5C 739.756,795.119 739.423,798.785 739.5,802.5C 736.325,815.844 728.325,825.01 715.5,830C 690.535,836.683 673.202,828.183 663.5,804.5C 663.5,803.167 663.5,801.833 663.5,800.5C 662.349,793.89 662.349,787.223 663.5,780.5C 669.985,762.912 682.651,753.578 701.5,752.5C 706.245,752.882 710.912,753.716 715.5,755C 717.813,755.641 719.48,756.974 720.5,759C 717.016,765.157 713.516,771.323 710,777.5C 704.526,777.057 699.026,777.557 693.5,779C 689.233,781.745 686.899,785.578 686.5,790.5 Z"/></g>
<g><path style="opacity:1" fill="#044582" d="M 484.5,756.5 C 492.54,759.208 499.874,763.208 506.5,768.5C 505.118,771.394 503.118,773.894 500.5,776C 486.532,783.772 474.532,781.605 464.5,769.5C 464.414,768.504 464.748,767.671 465.5,767C 471.888,763.476 478.221,759.976 484.5,756.5 Z"/></g>
<g><path style="opacity:1" fill="#1289f7" d="M 822.5,773.5 C 822.66,775.153 823.326,776.486 824.5,777.5C 825.404,778.209 825.737,779.209 825.5,780.5C 825.157,782.483 825.824,783.817 827.5,784.5C 830.072,804.729 822.405,819.563 804.5,829C 797.747,831.65 790.747,832.817 783.5,832.5C 783.389,831.883 783.056,831.383 782.5,831C 777.982,830.204 773.649,828.871 769.5,827C 767.391,823.727 764.391,821.894 760.5,821.5C 759.5,821.167 758.833,820.5 758.5,819.5C 759.658,818.05 759.158,817.05 757,816.5C 756.668,813.457 755.168,811.457 752.5,810.5C 747.73,802.682 746.397,794.349 748.5,785.5C 749.924,783.485 750.59,781.152 750.5,778.5C 753.255,769.577 758.755,762.911 767,758.5C 770.816,762.116 773.649,766.449 775.5,771.5C 775.427,773.027 776.094,774.027 777.5,774.5C 779.113,775.838 779.613,777.505 779,779.5C 776.932,781.396 775.099,783.396 773.5,785.5C 772.883,785.611 772.383,785.944 772,786.5C 771.333,790.5 771.333,794.5 772,798.5C 772.383,799.056 772.883,799.389 773.5,799.5C 778.974,807.436 786.308,809.602 795.5,806C 798.094,803.914 800.094,801.414 801.5,798.5C 805.445,793.961 805.445,789.295 801.5,784.5C 798.985,782.818 796.985,780.652 795.5,778C 799.367,771.101 803.367,764.267 807.5,757.5C 813.904,761.569 818.904,766.902 822.5,773.5 Z"/></g>
<g><path style="opacity:1" fill="#7aa7cb" d="M 545.5,758.5 C 546.451,759.919 546.784,761.585 546.5,763.5C 548.167,763.5 549.833,763.5 551.5,763.5C 549.735,764.461 547.735,764.795 545.5,764.5C 545.5,762.5 545.5,760.5 545.5,758.5 Z"/></g>
<g><path style="opacity:0.886" fill="#b77000" d="M 303.5,770.5 C 296.5,770.5 289.5,770.5 282.5,770.5C 289.5,767.833 296.5,767.833 303.5,770.5 Z"/></g>
<g><path style="opacity:1" fill="#ee9101" d="M 282.5,770.5 C 289.5,770.5 296.5,770.5 303.5,770.5C 303.833,770.5 304.167,770.5 304.5,770.5C 305.69,775.477 305.69,780.477 304.5,785.5C 303.583,790.751 301.417,795.418 298,799.5C 296.871,801.141 295.371,802.141 293.5,802.5C 292.566,801.432 292.232,800.099 292.5,798.5C 292.595,796.214 293.262,794.214 294.5,792.5C 296.13,790.974 296.963,788.974 297,786.5C 297.667,783.5 297.667,780.5 297,777.5C 295.301,776.594 293.467,776.261 291.5,776.5C 289.167,776.5 286.833,776.5 284.5,776.5C 280.298,776.817 276.298,776.483 272.5,775.5C 274.992,772.325 278.326,770.659 282.5,770.5 Z"/></g>
<g><path style="opacity:0.216" fill="#132a3e" d="M 775.5,771.5 C 776.906,771.973 777.573,772.973 777.5,774.5C 776.094,774.027 775.427,773.027 775.5,771.5 Z"/></g>
<g><path style="opacity:0.998" fill="#f29200" d="M 125.5,772.5 C 149.82,785.66 175.82,793.493 203.5,796C 232.561,798.018 260.394,793.185 287,781.5C 290.349,782.741 291.182,784.908 289.5,788C 248.143,813.833 204.81,817.5 159.5,799C 147.294,793.072 135.961,785.905 125.5,777.5C 124.833,777.5 124.5,777.167 124.5,776.5C 124.232,774.901 124.566,773.568 125.5,772.5 Z"/></g>
<g><path style="opacity:0.008" fill="#0e314a" d="M 822.5,773.5 C 824.104,774.287 824.771,775.62 824.5,777.5C 823.326,776.486 822.66,775.153 822.5,773.5 Z"/></g>
<g><path style="opacity:0.827" fill="#895403" d="M 272.5,775.5 C 276.298,776.483 280.298,776.817 284.5,776.5C 281.335,777.322 278.002,777.989 274.5,778.5C 271.927,778.314 271.26,777.314 272.5,775.5 Z"/></g>
<g><path style="opacity:0.427" fill="#764702" d="M 304.5,770.5 C 305.117,770.611 305.617,770.944 306,771.5C 306.167,773.333 306.333,775.167 306.5,777C 306.64,780.15 305.973,782.983 304.5,785.5C 305.69,780.477 305.69,775.477 304.5,770.5 Z"/></g>
<g><path style="opacity:0.972" fill="#014482" d="M 559.5,797.5 C 558.883,799.229 557.883,800.729 556.5,802C 534.5,814.667 512.5,827.333 490.5,840C 487.167,840.667 483.833,840.667 480.5,840C 459.337,828.253 438.337,816.253 417.5,804C 414.921,802.924 413.254,801.091 412.5,798.5C 421.886,791.805 431.886,786.139 442.5,781.5C 452.232,797.537 466.565,805.537 485.5,805.5C 504.435,805.537 518.768,797.537 528.5,781.5C 529.117,781.389 529.617,781.056 530,780.5C 539.48,786.822 549.313,792.489 559.5,797.5 Z"/></g>
<g><path style="opacity:0.541" fill="#14436d" d="M 825.5,780.5 C 826.345,781.671 827.011,783.005 827.5,784.5C 825.824,783.817 825.157,782.483 825.5,780.5 Z"/></g>
<g><path style="opacity:0.502" fill="#0f528d" d="M 750.5,778.5 C 750.59,781.152 749.924,783.485 748.5,785.5C 748.171,782.772 748.837,780.438 750.5,778.5 Z"/></g>
<g><path style="opacity:0.004" fill="#000000" d="M 123.5,786.5 C 124.833,787.167 124.833,787.167 123.5,786.5 Z"/></g>
<g><path style="opacity:0.063" fill="#764805" d="M 291.5,776.5 C 293.467,776.261 295.301,776.594 297,777.5C 297.667,780.5 297.667,783.5 297,786.5C 296.963,788.974 296.13,790.974 294.5,792.5C 295.977,787.929 296.477,783.262 296,778.5C 294.378,777.901 292.878,777.234 291.5,776.5 Z"/></g>
<g><path style="opacity:0.012" fill="#5d9145" d="M 739.5,802.5 C 739.423,798.785 739.756,795.119 740.5,791.5C 733.159,791.334 725.826,791.5 718.5,792C 717.736,794.069 717.236,796.236 717,798.5C 716.617,799.056 716.117,799.389 715.5,799.5C 716.008,796.611 716.675,793.778 717.5,791C 725.493,790.5 733.493,790.334 741.5,790.5C 741.656,794.764 740.989,798.764 739.5,802.5 Z"/></g>
<g><path style="opacity:0.753" fill="#649d4a" d="M 663.5,780.5 C 662.349,787.223 662.349,793.89 663.5,800.5C 662.833,800.5 662.167,800.5 661.5,800.5C 661.334,795.156 661.501,789.823 662,784.5C 662.21,782.942 662.71,781.609 663.5,780.5 Z"/></g>
<g><path style="opacity:0.114" fill="#155ca2" d="M 773.5,785.5 C 772.167,790.167 772.167,794.833 773.5,799.5C 772.883,799.389 772.383,799.056 772,798.5C 771.333,794.5 771.333,790.5 772,786.5C 772.383,785.944 772.883,785.611 773.5,785.5 Z"/></g>
<g><path style="opacity:0.635" fill="#486f37" d="M 686.5,790.5 C 685.933,792.698 685.933,795.031 686.5,797.5C 685.467,796.088 684.801,794.422 684.5,792.5C 684.747,791.287 685.414,790.62 686.5,790.5 Z"/></g>
<g><path style="opacity:0.075" fill="#19528f" d="M 801.5,784.5 C 805.445,789.295 805.445,793.961 801.5,798.5C 802.709,793.879 802.709,789.213 801.5,784.5 Z"/></g>
<g><path style="opacity:0.8" fill="#8d5702" d="M 292.5,798.5 C 292.232,800.099 292.566,801.432 293.5,802.5C 292.257,803.737 291.257,803.404 290.5,801.5C 290.942,800.261 291.609,799.261 292.5,798.5 Z"/></g>
<g><path style="opacity:0.012" fill="#304b25" d="M 661.5,800.5 C 662.167,800.5 662.833,800.5 663.5,800.5C 663.5,801.833 663.5,803.167 663.5,804.5C 662.655,803.329 661.989,801.995 661.5,800.5 Z"/></g>
<g><path style="opacity:0.925" fill="#1a60a4" d="M 752.5,810.5 C 755.168,811.457 756.668,813.457 757,816.5C 759.158,817.05 759.658,818.05 758.5,819.5C 755.723,817.049 753.723,814.049 752.5,810.5 Z"/></g>
<g><path style="opacity:1" fill="#116cbd" d="M 760.5,821.5 C 764.391,821.894 767.391,823.727 769.5,827C 773.649,828.871 777.982,830.204 782.5,831C 783.056,831.383 783.389,831.883 783.5,832.5C 774.523,831.3 766.857,827.634 760.5,821.5 Z"/></g>
</svg>
