<?xml version="1.0" encoding="UTF-8"?>
<!DOCTYPE svg PUBLIC "-//W3C//DTD SVG 1.1//EN" "http://www.w3.org/Graphics/SVG/1.1/DTD/svg11.dtd">
<svg xmlns="http://www.w3.org/2000/svg" version="1.1" width="1353px" height="218px" style="shape-rendering:geometricPrecision; text-rendering:geometricPrecision; image-rendering:optimizeQuality; fill-rule:evenodd; clip-rule:evenodd" xmlns:xlink="http://www.w3.org/1999/xlink">
<g><path style="opacity:0.944" fill="#fefffe" d="M 122.5,10.5 C 125.448,10.2229 128.281,10.5562 131,11.5C 152.077,70.3977 173.743,129.064 196,187.5C 202.241,192.53 209.407,195.53 217.5,196.5C 217.664,199.187 217.497,201.854 217,204.5C 194,203.167 171,203.167 148,204.5C 146.921,201.937 146.421,199.271 146.5,196.5C 152.753,195.583 158.586,193.583 164,190.5C 164.167,189.5 164.333,188.5 164.5,187.5C 159.172,169.683 153.339,152.016 147,134.5C 125.232,133.174 103.399,133.174 81.5,134.5C 74.3387,152.151 67.672,169.984 61.5,188C 61.8902,190.459 63.2235,192.126 65.5,193C 70.1023,194.48 74.769,195.646 79.5,196.5C 79.6641,199.187 79.4974,201.854 79,204.5C 59.3333,203.167 39.6667,203.167 20,204.5C 19.5026,201.854 19.3359,199.187 19.5,196.5C 24.9032,195.315 30.2365,193.815 35.5,192C 37.6238,190.878 39.4571,189.378 41,187.5C 66.2515,129.411 90.9182,71.0781 115,12.5C 117.607,11.8767 120.107,11.21 122.5,10.5 Z M 115.5,47.5 C 124.333,71.3254 133,95.3254 141.5,119.5C 123.5,120.833 105.5,120.833 87.5,119.5C 97.4077,95.6909 106.741,71.6909 115.5,47.5 Z"/></g>
<g><path style="opacity:0.946" fill="#fefffe" d="M 1237.5,10.5 C 1240.45,10.2229 1243.28,10.5562 1246,11.5C 1267.08,70.3977 1288.74,129.064 1311,187.5C 1317.24,192.53 1324.41,195.53 1332.5,196.5C 1332.66,199.187 1332.5,201.854 1332,204.5C 1309,203.167 1286,203.167 1263,204.5C 1261.92,201.937 1261.42,199.271 1261.5,196.5C 1267.75,195.583 1273.59,193.583 1279,190.5C 1279.17,189.5 1279.33,188.5 1279.5,187.5C 1274.17,169.683 1268.34,152.016 1262,134.5C 1240.23,133.174 1218.4,133.174 1196.5,134.5C 1189.34,152.151 1182.67,169.984 1176.5,188C 1176.89,190.459 1178.22,192.126 1180.5,193C 1185.1,194.48 1189.77,195.646 1194.5,196.5C 1194.66,199.187 1194.5,201.854 1194,204.5C 1171.87,202.738 1149.87,203.405 1128,206.5C 1112.04,207.967 1099.38,202.3 1090,189.5C 1076.67,166.833 1063.33,144.167 1050,121.5C 1048.13,119.291 1045.96,117.458 1043.5,116C 1038.19,115.17 1032.86,114.67 1027.5,114.5C 1027.33,139.169 1027.5,163.836 1028,188.5C 1028.83,190.667 1030.33,192.167 1032.5,193C 1037.1,194.48 1041.77,195.646 1046.5,196.5C 1046.66,199.187 1046.5,201.854 1046,204.5C 1024,203.167 1002,203.167 980,204.5C 979.503,201.854 979.336,199.187 979.5,196.5C 985.191,195.16 990.858,193.66 996.5,192C 997.667,191.5 998.5,190.667 999,189.5C 999.667,135.5 999.667,81.5 999,27.5C 992.999,23.8875 986.499,21.5542 979.5,20.5C 979.5,18.1667 979.5,15.8333 979.5,13.5C 1010.17,13.1066 1040.84,12.9399 1071.5,13C 1109.27,18.6641 1123.44,40.1641 1114,77.5C 1108.98,89.8584 1100.48,99.0251 1088.5,105C 1083.8,107.008 1079.13,109.008 1074.5,111C 1088.67,133.833 1102.83,156.667 1117,179.5C 1121.98,187.33 1128.82,192.663 1137.5,195.5C 1144.62,194.856 1150.79,192.189 1156,187.5C 1181.25,129.411 1205.92,71.0781 1230,12.5C 1232.61,11.8767 1235.11,11.21 1237.5,10.5 Z M 1028.5,24.5 C 1037.84,24.3335 1047.17,24.5002 1056.5,25C 1072.34,26.6548 1082.17,35.1548 1086,50.5C 1089.05,65.1413 1086.72,78.808 1079,91.5C 1072.45,97.8589 1064.61,101.692 1055.5,103C 1046.17,103.5 1036.84,103.666 1027.5,103.5C 1027.18,77.0924 1027.51,50.7591 1028.5,24.5 Z M 1230.5,47.5 C 1239.33,71.3254 1248,95.3254 1256.5,119.5C 1238.5,120.833 1220.5,120.833 1202.5,119.5C 1212.41,95.6909 1221.74,71.6909 1230.5,47.5 Z"/></g>
<g><path style="opacity:0.947" fill="#fefffe" d="M 278.5,12.5 C 292.504,12.3334 306.504,12.5001 320.5,13C 353.782,16.7368 368.615,35.2368 365,68.5C 362.259,85.4708 353.093,97.6375 337.5,105C 332.799,107.008 328.133,109.008 323.5,111C 338.291,135.419 353.458,159.586 369,183.5C 375.174,191.67 383.341,196.337 393.5,197.5C 394.363,199.895 394.363,202.229 393.5,204.5C 382.777,206.472 372.11,206.638 361.5,205C 354.059,203.697 347.892,200.197 343,194.5C 339.667,189.833 336.333,185.167 333,180.5C 321.919,160.67 310.586,141.003 299,121.5C 297.127,119.291 294.96,117.458 292.5,116C 287.192,115.17 281.859,114.67 276.5,114.5C 276.333,139.169 276.5,163.836 277,188.5C 277.833,190.667 279.333,192.167 281.5,193C 286.102,194.48 290.769,195.646 295.5,196.5C 295.664,199.187 295.497,201.854 295,204.5C 273,203.167 251,203.167 229,204.5C 228.503,201.854 228.336,199.187 228.5,196.5C 234.191,195.16 239.858,193.66 245.5,192C 246.667,191.5 247.5,190.667 248,189.5C 248.667,135.5 248.667,81.5 248,27.5C 241.999,23.8875 235.499,21.5542 228.5,20.5C 228.5,18.1667 228.5,15.8333 228.5,13.5C 245.342,13.8298 262.008,13.4965 278.5,12.5 Z M 277.5,24.5 C 286.839,24.3335 296.173,24.5002 305.5,25C 321.339,26.6548 331.173,35.1548 335,50.5C 338.053,65.1413 335.719,78.808 328,91.5C 321.448,97.8589 313.615,101.692 304.5,103C 295.173,103.5 285.839,103.666 276.5,103.5C 276.176,77.0924 276.51,50.7591 277.5,24.5 Z"/></g>
<g><path style="opacity:0.933" fill="#fefffe" d="M 677.5,12.5 C 699.5,12.5 721.5,12.5 743.5,12.5C 741.297,27.5158 738.964,42.5158 736.5,57.5C 734.076,57.8076 731.743,57.4742 729.5,56.5C 726.678,46.8775 724.011,37.2108 721.5,27.5C 700.844,26.5003 680.177,26.167 659.5,26.5C 659.5,51.1667 659.5,75.8333 659.5,100.5C 674.492,99.8826 689.492,99.3826 704.5,99C 705.667,98.5 706.5,97.6667 707,96.5C 708.661,90.189 710.161,83.8556 711.5,77.5C 714.5,77.5 717.5,77.5 720.5,77.5C 719.167,96.5 719.167,115.5 720.5,134.5C 717.552,134.223 714.719,134.556 712,135.5C 710.177,129.21 708.511,122.877 707,116.5C 706.535,115.069 705.701,113.903 704.5,113C 689.504,112.5 674.504,112.333 659.5,112.5C 659.5,138.833 659.5,165.167 659.5,191.5C 680.836,191.667 702.169,191.5 723.5,191C 729.515,179.302 735.515,167.635 741.5,156C 743.473,155.505 745.473,155.338 747.5,155.5C 746.707,171.848 745.707,188.181 744.5,204.5C 700.167,204.5 655.833,204.5 611.5,204.5C 611.5,201.833 611.5,199.167 611.5,196.5C 617.191,195.16 622.858,193.66 628.5,192C 629.667,191.5 630.5,190.667 631,189.5C 631.667,135.5 631.667,81.5 631,27.5C 624.999,23.8875 618.499,21.5542 611.5,20.5C 611.5,18.1667 611.5,15.8333 611.5,13.5C 633.673,13.8307 655.673,13.4974 677.5,12.5 Z"/></g>
<g><path style="opacity:0.945" fill="#fefffe" d="M 399.5,13.5 C 413.504,13.3334 427.504,13.5001 441.5,14C 478.787,60.0752 515.953,106.242 553,152.5C 553.667,110.5 553.667,68.5 553,26.5C 547.176,23.6148 541.01,21.6148 534.5,20.5C 534.326,18.139 533.993,15.8056 533.5,13.5C 552.512,13.1671 571.512,13.5004 590.5,14.5C 591.348,16.4086 591.682,18.4086 591.5,20.5C 585.038,21.8199 578.705,23.6532 572.5,26C 571.809,27.0674 571.309,28.2341 571,29.5C 570.5,87.8324 570.333,146.166 570.5,204.5C 566.76,204.241 563.094,204.574 559.5,205.5C 518.531,155.572 478.031,105.238 438,54.5C 437.333,99.5 437.333,144.5 438,189.5C 438.5,190.667 439.333,191.5 440.5,192C 446.062,193.974 451.729,195.474 457.5,196.5C 457.664,199.187 457.497,201.854 457,204.5C 438.333,203.167 419.667,203.167 401,204.5C 400.433,201.832 399.933,199.166 399.5,196.5C 405.227,195.315 410.894,193.815 416.5,192C 417.931,191.535 419.097,190.701 420,189.5C 420.667,135.833 420.667,82.1667 420,28.5C 419.5,26.6667 418.333,25.5 416.5,25C 411.177,23.3915 405.844,21.8915 400.5,20.5C 400.326,18.139 399.993,15.8056 399.5,13.5 Z"/></g>
<g><path style="opacity:0.954" fill="#fefffe" d="M 768.5,13.5 C 791.169,13.3334 813.836,13.5 836.5,14C 837.423,16.0408 837.756,18.2075 837.5,20.5C 831.027,21.824 824.694,23.6573 818.5,26C 817.751,27.7337 817.251,29.567 817,31.5C 816.333,65.8333 816.333,100.167 817,134.5C 817.675,183.156 841.842,201.989 889.5,191C 907.715,183.782 917.548,170.282 919,150.5C 920.62,109.526 920.953,68.5259 920,27.5C 919.5,26.3333 918.667,25.5 917.5,25C 911.938,23.0264 906.271,21.5264 900.5,20.5C 900.5,18.1667 900.5,15.8333 900.5,13.5C 920.5,13.5 940.5,13.5 960.5,13.5C 960.5,15.8333 960.5,18.1667 960.5,20.5C 953.501,21.5542 947.001,23.8875 941,27.5C 939.739,65.1465 939.072,102.813 939,140.5C 935.169,186.669 910.169,209.336 864,208.5C 820.07,210.565 795.403,189.899 790,146.5C 789.952,106.474 789.286,66.4742 788,26.5C 781.714,23.7936 775.214,21.7936 768.5,20.5C 768.5,18.1667 768.5,15.8333 768.5,13.5 Z"/></g>
</svg>
