<?xml version="1.0" encoding="UTF-8"?>
<!DOCTYPE svg PUBLIC "-//W3C//DTD SVG 1.1//EN" "http://www.w3.org/Graphics/SVG/1.1/DTD/svg11.dtd">
<svg xmlns="http://www.w3.org/2000/svg" version="1.1" width="1000px" height="1000px" style="shape-rendering:geometricPrecision; text-rendering:geometricPrecision; image-rendering:optimizeQuality; fill-rule:evenodd; clip-rule:evenodd" xmlns:xlink="http://www.w3.org/1999/xlink">
<g><path style="opacity:0.997" fill="#f7f5f4" d="M 707.5,87.5 C 713.82,88.8313 720.153,88.8313 726.5,87.5C 754.779,86.7936 778.279,97.4603 797,119.5C 803.252,129.67 809.252,140.003 815,150.5C 842.659,264.638 868.826,379.138 893.5,494C 891.773,523.215 880.773,548.215 860.5,569C 847.445,578.531 833.445,586.531 818.5,593C 800.439,597.681 782.439,602.348 764.5,607C 790.088,617.196 815.755,627.196 841.5,637C 849.004,641.587 856.671,645.92 864.5,650C 881.163,665.656 887.163,684.656 882.5,707C 857.142,770.737 831.975,834.571 807,898.5C 787.818,924.116 762.985,932.283 732.5,923C 681.165,903.832 630.165,883.832 579.5,863C 578.216,862.316 577.049,862.483 576,863.5C 527.582,843.026 478.748,823.526 429.5,805C 417.907,799.292 407.074,792.458 397,784.5C 385.973,771.005 381.973,755.671 385,738.5C 389.551,722.013 395.384,706.013 402.5,690.5C 401.667,690.167 400.833,689.833 400,689.5C 356.224,699.589 312.391,709.422 268.5,719C 209.363,731.531 169.53,709.364 149,652.5C 123.193,540.462 98.026,428.295 73.5,316C 73.5292,312.217 74.1959,308.55 75.5,305C 74.708,302.309 75.0413,299.642 76.5,297C 76.3552,296.228 76.0219,295.561 75.5,295C 79.995,282.85 84.495,270.683 89,258.5C 99.4728,243.033 113.306,231.533 130.5,224C 139.768,221.799 148.768,218.799 157.5,215C 328.833,176 500.167,137 671.5,98C 683.701,94.7615 695.701,91.2615 707.5,87.5 Z"/></g>
<g><path style="opacity:1" fill="#fbca97" d="M 436.5,418.5 C 436.146,417.194 434.812,416.194 432.5,415.5C 431.914,415.709 431.414,416.043 431,416.5C 429.67,415.418 428.17,414.751 426.5,414.5C 424.424,412.416 422.09,410.749 419.5,409.5C 418.08,406.651 416.08,405.984 413.5,407.5C 372.301,386.068 330.635,365.401 288.5,345.5C 269.976,335.071 250.976,325.404 231.5,316.5C 219.818,309.992 207.818,303.992 195.5,298.5C 178.515,289.006 161.182,280.006 143.5,271.5C 135.693,268.029 128.526,264.029 122,259.5C 134.465,248.727 148.632,240.893 164.5,236C 342.862,195.461 521.196,154.794 699.5,114C 715.087,111.303 730.421,112.303 745.5,117C 746.451,117.718 746.617,118.551 746,119.5C 665.53,224.271 584.696,328.771 503.5,433C 491.941,440.851 479.941,441.518 467.5,435C 457.042,429.442 446.709,423.942 436.5,418.5 Z"/></g>
<g><path style="opacity:1" fill="#fbcb97" d="M 865.5,524.5 C 864.579,525.981 863.412,527.314 862,528.5C 853.312,524.071 844.479,520.071 835.5,516.5C 830.302,513.738 825.302,510.738 820.5,507.5C 820.146,506.194 818.812,505.194 816.5,504.5C 815.893,504.624 815.56,504.957 815.5,505.5C 810.275,503.057 805.275,500.39 800.5,497.5C 803.097,497.279 803.097,496.779 800.5,496C 799.251,495.26 798.251,495.427 797.5,496.5C 792.987,494.748 788.987,492.248 785.5,489C 779.091,487.929 773.424,485.429 768.5,481.5C 767.625,479.194 766.292,478.527 764.5,479.5C 760.638,477.738 756.972,475.738 753.5,473.5C 751.285,470.704 748.619,469.704 745.5,470.5C 736.406,465.872 727.573,460.872 719,455.5C 716.223,456.447 714.223,455.447 713,452.5C 712.667,452.833 712.333,453.167 712,453.5C 708.094,452.069 704.594,450.069 701.5,447.5C 700.08,444.651 698.08,443.984 695.5,445.5C 685.96,440.563 676.293,435.897 666.5,431.5C 655.311,424.738 643.644,418.738 631.5,413.5C 618.977,406.071 605.977,399.404 592.5,393.5C 587.887,390.188 582.887,387.354 577.5,385C 577.043,384.586 576.709,384.086 576.5,383.5C 577.63,382.378 578.297,381.044 578.5,379.5C 641.798,298.263 704.631,216.596 767,134.5C 768.554,131.898 770.72,130.731 773.5,131C 786.095,141.344 794.261,154.51 798,170.5C 821.872,275.529 845.872,380.529 870,485.5C 872.297,498.923 870.797,511.923 865.5,524.5 Z"/></g>
<g><path style="opacity:1" fill="#fbca97" d="M 166.5,312.5 C 197.692,329.263 229.359,345.263 261.5,360.5C 273.182,367.008 285.182,373.008 297.5,378.5C 314.915,388.541 332.915,397.541 351.5,405.5C 363.436,412.921 375.769,419.588 388.5,425.5C 388.5,426.833 388.5,428.167 388.5,429.5C 325.502,512.8 262.002,595.8 198,678.5C 196.867,680.211 195.367,680.711 193.5,680C 183.677,672.51 176.511,663.01 172,651.5C 146.242,539.376 120.742,427.209 95.5,315C 95.9653,308.375 97.132,301.875 99,295.5C 99.9597,290.914 101.96,286.914 105,283.5C 122.148,290.491 138.648,298.658 154.5,308C 158.485,309.605 162.485,311.105 166.5,312.5 Z"/></g>
<g><path style="opacity:1" fill="#f8e2ca" d="M 143.5,271.5 C 161.182,280.006 178.515,289.006 195.5,298.5C 178.399,290.45 161.399,282.117 144.5,273.5C 143.702,273.043 143.369,272.376 143.5,271.5 Z"/></g>
<g><path style="opacity:1" fill="#f9e4cd" d="M 166.5,312.5 C 198.641,327.737 230.308,343.737 261.5,360.5C 229.359,345.263 197.692,329.263 166.5,312.5 Z"/></g>
<g><path style="opacity:1" fill="#f8e2ca" d="M 231.5,316.5 C 250.976,325.404 269.976,335.071 288.5,345.5C 269.024,336.596 250.024,326.929 231.5,316.5 Z"/></g>
<g><path style="opacity:1" fill="#f8e2ca" d="M 578.5,379.5 C 578.297,381.044 577.63,382.378 576.5,383.5C 576.709,384.086 577.043,384.586 577.5,385C 582.887,387.354 587.887,390.188 592.5,393.5C 587.068,391.285 581.735,388.785 576.5,386C 574.923,383.14 575.59,380.973 578.5,379.5 Z"/></g>
<g><path style="opacity:1" fill="#f8e2cb" d="M 297.5,378.5 C 315.818,386.992 333.818,395.992 351.5,405.5C 332.915,397.541 314.915,388.541 297.5,378.5 Z"/></g>
<g><path style="opacity:1" fill="#9a8b80" d="M 413.5,407.5 C 416.08,405.984 418.08,406.651 419.5,409.5C 417.297,409.396 415.297,408.73 413.5,407.5 Z"/></g>
<g><path style="opacity:1" fill="#fbca97" d="M 621.5,437.5 C 628.248,442.207 635.581,445.874 643.5,448.5C 673.386,463.608 703.053,478.942 732.5,494.5C 733.719,496.258 735.885,497.592 739,498.5C 739.399,498.272 739.565,497.938 739.5,497.5C 774.936,515.051 810.269,532.885 845.5,551C 836.988,558.507 827.654,564.84 817.5,570C 786.98,578.13 756.314,585.63 725.5,592.5C 664.715,568.961 604.048,545.127 543.5,521C 509.68,505.395 482.513,512.895 462,543.5C 447.883,577.184 434.549,611.184 422,645.5C 419.567,651.532 416.734,657.366 413.5,663C 364.592,674.715 315.592,686.048 266.5,697C 256.526,698.279 246.526,698.613 236.5,698C 231.923,697.275 227.59,696.108 223.5,694.5C 223.938,694.565 224.272,694.399 224.5,694C 223.473,693.487 222.473,692.987 221.5,692.5C 285.951,608.209 350.618,524.043 415.5,440C 416.5,439.333 417.5,439.333 418.5,440C 434.688,448.762 451.355,456.428 468.5,463C 489.219,466.438 507.886,461.771 524.5,449C 535.045,436.79 545.212,424.29 555,411.5C 556.389,409.773 558.056,408.439 560,407.5C 580.768,417.135 601.268,427.135 621.5,437.5 Z"/></g>
<g><path style="opacity:1" fill="#d0bba6" d="M 426.5,414.5 C 428.17,414.751 429.67,415.418 431,416.5C 431.414,416.043 431.914,415.709 432.5,415.5C 434.812,416.194 436.146,417.194 436.5,418.5C 434.199,417.94 431.866,417.44 429.5,417C 428.058,416.623 427.058,415.79 426.5,414.5 Z"/></g>
<g><path style="opacity:1" fill="#686b75" d="M 388.5,425.5 C 391.167,426.833 391.167,428.167 388.5,429.5C 388.5,428.167 388.5,426.833 388.5,425.5 Z"/></g>
<g><path style="opacity:1" fill="#f8e2ca" d="M 631.5,413.5 C 643.644,418.738 655.311,424.738 666.5,431.5C 654.356,426.262 642.689,420.262 631.5,413.5 Z"/></g>
<g><path style="opacity:1" fill="#f8e3ce" d="M 621.5,437.5 C 629.151,440.659 636.484,444.325 643.5,448.5C 635.581,445.874 628.248,442.207 621.5,437.5 Z"/></g>
<g><path style="opacity:1" fill="#8f827a" d="M 695.5,445.5 C 698.08,443.984 700.08,444.651 701.5,447.5C 699.297,447.396 697.297,446.73 695.5,445.5 Z"/></g>
<g><path style="opacity:1" fill="#8e8179" d="M 745.5,470.5 C 748.619,469.704 751.285,470.704 753.5,473.5C 750.673,472.892 748.007,471.892 745.5,470.5 Z"/></g>
<g><path style="opacity:1" fill="#7d716a" d="M 764.5,479.5 C 766.292,478.527 767.625,479.194 768.5,481.5C 766.938,481.267 765.605,480.6 764.5,479.5 Z"/></g>
<g><path style="opacity:1" fill="#b19e8d" d="M 732.5,494.5 C 735.157,494.935 737.491,495.935 739.5,497.5C 739.565,497.938 739.399,498.272 739,498.5C 735.885,497.592 733.719,496.258 732.5,494.5 Z"/></g>
<g><path style="opacity:1" fill="#8a7769" d="M 797.5,496.5 C 798.251,495.427 799.251,495.26 800.5,496C 803.097,496.779 803.097,497.279 800.5,497.5C 799.609,496.89 798.609,496.557 797.5,496.5 Z"/></g>
<g><path style="opacity:1" fill="#7c726e" d="M 815.5,505.5 C 815.56,504.957 815.893,504.624 816.5,504.5C 818.812,505.194 820.146,506.194 820.5,507.5C 818.716,507.107 817.05,506.441 815.5,505.5 Z"/></g>
<g><path style="opacity:1" fill="#fbcb97" d="M 792.5,689.5 C 793.061,686.813 792.394,686.813 790.5,689.5C 778.226,694.036 765.893,698.369 753.5,702.5C 731.828,708.724 710.495,715.724 689.5,723.5C 671.761,728.69 654.094,734.19 636.5,740C 628.973,740.99 622.806,738.49 618,732.5C 580.5,664.833 543,597.167 505.5,529.5C 515.522,526.75 525.522,527.25 535.5,531C 638.913,571.804 742.246,612.804 845.5,654C 850.356,657.355 854.356,661.522 857.5,666.5C 836.07,674.755 814.403,682.422 792.5,689.5 Z"/></g>
<g><path style="opacity:1" fill="#f8e2ca" d="M 835.5,516.5 C 844.479,520.071 853.312,524.071 862,528.5C 863.412,527.314 864.579,525.981 865.5,524.5C 865.504,528.605 863.504,530.105 859.5,529C 851.281,525.059 843.281,520.892 835.5,516.5 Z"/></g>
<g><path style="opacity:1" fill="#fbca97" d="M 493.5,539.5 C 521.389,590.273 549.555,640.94 578,691.5C 579.741,694.309 580.908,697.309 581.5,700.5C 569.617,704.572 557.617,708.239 545.5,711.5C 545.44,710.957 545.107,710.624 544.5,710.5C 541.839,711.332 539.172,712.166 536.5,713C 533.474,713.623 531.474,714.79 530.5,716.5C 528.11,718.02 525.443,719.02 522.5,719.5C 519.623,718.482 516.623,718.649 513.5,720C 510.891,720.864 509.225,722.03 508.5,723.5C 475.562,734.757 442.396,745.757 409,756.5C 407.951,755.483 406.784,755.316 405.5,756C 404.008,759.212 402.174,759.712 400,757.5C 396.668,749.839 396.668,742.172 400,734.5C 414.845,696.582 429.678,659.249 444.5,622.5C 447.035,620.154 447.702,617.487 446.5,614.5C 455.261,593.305 463.761,571.971 472,550.5C 474.315,546.362 477.148,542.695 480.5,539.5C 480.435,539.938 480.601,540.272 481,540.5C 484,538.5 487,536.5 490,534.5C 490.697,536.584 491.864,538.251 493.5,539.5 Z"/></g>
<g><path style="opacity:1" fill="#e1cab4" d="M 493.5,539.5 C 491.864,538.251 490.697,536.584 490,534.5C 487,536.5 484,538.5 481,540.5C 480.601,540.272 480.435,539.938 480.5,539.5C 483.027,536.644 486.193,534.644 490,533.5C 491.935,535.034 493.101,537.034 493.5,539.5 Z"/></g>
<g><path style="opacity:1" fill="#84776e" d="M 446.5,614.5 C 447.702,617.487 447.035,620.154 444.5,622.5C 444.963,619.779 445.629,617.112 446.5,614.5 Z"/></g>
<g><path style="opacity:1" fill="#fbca97" d="M 686.5,740.5 C 688.128,741.853 689.462,741.519 690.5,739.5C 700.697,734.748 711.363,731.082 722.5,728.5C 722.735,729.097 723.235,729.43 724,729.5C 726.146,729.212 727.313,728.545 727.5,727.5C 751.198,718.934 775.198,710.934 799.5,703.5C 800.721,704.465 802.054,704.298 803.5,703C 803.272,702.601 802.938,702.435 802.5,702.5C 823.526,695.983 844.526,688.983 865.5,681.5C 866.478,681.977 867.311,682.643 868,683.5C 869.262,688.787 869.596,694.12 869,699.5C 865.455,711.359 861.455,723.026 857,734.5C 836.544,783.872 816.877,833.538 798,883.5C 795.187,894.153 788.854,901.82 779,906.5C 746.723,851.577 715.889,796.244 686.5,740.5 Z"/></g>
<g><path style="opacity:1" fill="#6e635b" d="M 792.5,689.5 C 791.833,689.5 791.167,689.5 790.5,689.5C 792.394,686.813 793.061,686.813 792.5,689.5 Z"/></g>
<g><path style="opacity:1" fill="#4d4a4c" d="M 221.5,692.5 C 222.473,692.987 223.473,693.487 224.5,694C 224.272,694.399 223.938,694.565 223.5,694.5C 222.761,694.631 222.094,694.464 221.5,694C 220.262,693.31 220.262,692.81 221.5,692.5 Z"/></g>
<g><path style="opacity:1" fill="#746a64" d="M 802.5,702.5 C 802.938,702.435 803.272,702.601 803.5,703C 802.054,704.298 800.721,704.465 799.5,703.5C 800.391,702.89 801.391,702.557 802.5,702.5 Z"/></g>
<g><path style="opacity:1" fill="#f8e3cc" d="M 753.5,702.5 C 732.505,710.276 711.172,717.276 689.5,723.5C 710.495,715.724 731.828,708.724 753.5,702.5 Z"/></g>
<g><path style="opacity:1" fill="#c9ae96" d="M 545.5,711.5 C 540.845,713.719 535.845,715.385 530.5,716.5C 531.474,714.79 533.474,713.623 536.5,713C 539.172,712.166 541.839,711.332 544.5,710.5C 545.107,710.624 545.44,710.957 545.5,711.5 Z"/></g>
<g><path style="opacity:1" fill="#fbca97" d="M 661.5,748.5 C 661.735,749.097 662.235,749.43 663,749.5C 665.584,748.411 668.084,747.411 670.5,746.5C 701.93,801.688 732.596,857.355 762.5,913.5C 751.376,914.585 740.71,913.085 730.5,909C 630.658,869.275 530.658,829.941 430.5,791C 422.111,786.772 415.111,780.939 409.5,773.5C 415.118,771.238 420.785,769.071 426.5,767C 480.895,750.082 534.895,732.582 588.5,714.5C 589.442,714.608 590.275,714.941 591,715.5C 595.333,723.5 599.667,731.5 604,739.5C 614.372,751.847 627.539,756.68 643.5,754C 649.548,752.261 655.548,750.428 661.5,748.5 Z"/></g>
<g><path style="opacity:1" fill="#b6a08e" d="M 522.5,719.5 C 517.833,720.833 513.167,722.167 508.5,723.5C 509.225,722.03 510.891,720.864 513.5,720C 516.623,718.649 519.623,718.482 522.5,719.5 Z"/></g>
<g><path style="opacity:1" fill="#7f7570" d="M 727.5,727.5 C 727.313,728.545 726.146,729.212 724,729.5C 723.235,729.43 722.735,729.097 722.5,728.5C 724.042,727.699 725.708,727.366 727.5,727.5 Z"/></g>
<g><path style="opacity:1" fill="#7c7066" d="M 690.5,739.5 C 689.462,741.519 688.128,741.853 686.5,740.5C 687.708,739.766 689.041,739.433 690.5,739.5 Z"/></g>
<g><path style="opacity:1" fill="#a6907c" d="M 670.5,746.5 C 668.084,747.411 665.584,748.411 663,749.5C 662.235,749.43 661.735,749.097 661.5,748.5C 664.303,747.072 667.303,746.405 670.5,746.5 Z"/></g>
</svg>
