<?xml version="1.0" encoding="UTF-8"?>
<!DOCTYPE svg PUBLIC "-//W3C//DTD SVG 1.1//EN" "http://www.w3.org/Graphics/SVG/1.1/DTD/svg11.dtd">
<svg xmlns="http://www.w3.org/2000/svg" version="1.1" width="1200px" height="1200px" style="shape-rendering:geometricPrecision; text-rendering:geometricPrecision; image-rendering:optimizeQuality; fill-rule:evenodd; clip-rule:evenodd" xmlns:xlink="http://www.w3.org/1999/xlink">
<g><path style="opacity:0.994" fill="#7f8083" d="M 882.5,384.5 C 848.035,418.465 813.701,452.632 779.5,487C 696.984,553.093 614.65,619.427 532.5,686C 523.478,690.765 516.312,688.932 511,680.5C 509.875,675.49 510.542,670.823 513,666.5C 579.573,584.35 645.907,502.016 712,419.5C 746.368,385.299 780.535,350.965 814.5,316.5C 835.965,294.535 857.632,272.701 879.5,251C 923.611,210.932 974.611,182.765 1032.5,166.5C 1016.23,224.389 988.068,275.389 948,319.5C 926.299,341.368 904.465,363.035 882.5,384.5 Z"/></g>
<g><path style="opacity:1" fill="#babcbe" d="M 932.5,245.5 C 938.434,244.889 944.1,245.722 949.5,248C 952.819,251.311 954.152,255.311 953.5,260C 952.539,269.881 949.372,279.048 944,287.5C 926.735,316.098 903.569,338.598 874.5,355C 869.58,357.196 864.58,359.196 859.5,361C 854.167,361.667 848.833,361.667 843.5,361C 838.527,357.711 836.527,353.044 837.5,347C 838.745,335.603 842.578,325.103 849,315.5C 864.878,291.288 885.045,271.455 909.5,256C 917.029,251.897 924.696,248.397 932.5,245.5 Z"/></g>
<g><path style="opacity:0.995" fill="#808184" d="M 685.5,360.5 C 639.167,407.167 592.833,453.833 546.5,500.5C 491.194,493.17 435.86,486.003 380.5,479C 373.85,478.001 367.183,477.667 360.5,478C 343.333,495.167 326.167,512.333 309,529.5C 308.333,530.833 308.333,532.167 309,533.5C 311.795,539.417 314.295,545.417 316.5,551.5C 308.107,550.972 299.773,550.305 291.5,549.5C 263.164,509.657 234.997,469.657 207,429.5C 206.333,406.167 206.333,382.833 207,359.5C 221.5,345 236,330.5 250.5,316C 395.527,330.303 540.527,345.136 685.5,360.5 Z"/></g>
<g><path style="opacity:0.997" fill="#58595b" d="M 814.5,316.5 C 780.535,350.965 746.368,385.299 712,419.5C 645.907,502.016 579.573,584.35 513,666.5C 510.542,670.823 509.875,675.49 511,680.5C 516.312,688.932 523.478,690.765 532.5,686C 614.65,619.427 696.984,553.093 779.5,487C 813.701,452.632 848.035,418.465 882.5,384.5C 878.422,413.299 873.589,441.966 868,470.5C 861.626,487.261 851.793,501.594 838.5,513.5C 791.216,559.117 744.549,605.451 698.5,652.5C 646.5,703.833 594.833,755.5 543.5,807.5C 541.938,807.733 540.605,808.4 539.5,809.5C 538.833,809.5 538.5,809.833 538.5,810.5C 525.495,817.783 511.828,823.616 497.5,828C 480.006,830.838 467.506,824.338 460,808.5C 458.719,804.596 457.886,800.596 457.5,796.5C 461.579,773.774 465.912,751.108 470.5,728.5C 447.892,733.088 425.226,737.421 402.5,741.5C 386.145,740.42 375.645,732.087 371,716.5C 369.465,705.971 371.132,695.971 376,686.5C 379.922,677.659 384.088,668.992 388.5,660.5C 389.833,660.167 389.833,659.833 388.5,659.5C 441.167,606.5 493.833,553.5 546.5,500.5C 592.833,453.833 639.167,407.167 685.5,360.5C 697.406,347.207 711.739,337.374 728.5,331C 757.034,325.411 785.701,320.578 814.5,316.5 Z"/></g>
<g><path style="opacity:1" fill="#babcbe" d="M 546.5,500.5 C 493.833,553.5 441.167,606.5 388.5,659.5C 388.5,659.833 388.5,660.167 388.5,660.5C 383.833,664.833 379.167,669.167 374.5,673.5C 355.167,632.833 335.833,592.167 316.5,551.5C 314.295,545.417 311.795,539.417 309,533.5C 308.333,532.167 308.333,530.833 309,529.5C 326.167,512.333 343.333,495.167 360.5,478C 367.183,477.667 373.85,478.001 380.5,479C 435.86,486.003 491.194,493.17 546.5,500.5 Z"/></g>
<g><path style="opacity:0.995" fill="#808184" d="M 838.5,513.5 C 853.864,658.473 868.697,803.473 883,948.5C 868.5,963 854,977.5 839.5,992C 816.167,992.667 792.833,992.667 769.5,992C 729.343,964.003 689.343,935.836 649.5,907.5C 648.76,899.188 648.427,890.854 648.5,882.5C 655.167,885.676 661.833,888.509 668.5,891C 686,873.5 703.5,856 721,838.5C 720.863,826.121 719.863,813.788 718,801.5C 711.084,751.834 704.584,702.168 698.5,652.5C 744.549,605.451 791.216,559.117 838.5,513.5 Z"/></g>
<g><path style="opacity:0.991" fill="#58595b" d="M 291.5,549.5 C 299.773,550.305 308.107,550.972 316.5,551.5C 335.833,592.167 355.167,632.833 374.5,673.5C 354.521,694.146 334.188,714.479 313.5,734.5C 264.712,711.606 216.045,688.439 167.5,665C 166.892,663.769 166.559,662.436 166.5,661C 172.162,621.867 177.495,582.701 182.5,543.5C 218.858,545.109 255.192,547.109 291.5,549.5 Z"/></g>
<g><path style="opacity:1" fill="#babcbe" d="M 698.5,652.5 C 704.584,702.168 711.084,751.834 718,801.5C 719.863,813.788 720.863,826.121 721,838.5C 703.5,856 686,873.5 668.5,891C 661.833,888.509 655.167,885.676 648.5,882.5C 607.895,863.533 567.228,844.533 526.5,825.5C 532.167,819.5 537.833,813.5 543.5,807.5C 594.833,755.5 646.5,703.833 698.5,652.5 Z"/></g>
<g><path style="opacity:0.992" fill="#9e9fa2" d="M 543.5,807.5 C 537.833,813.5 532.167,819.5 526.5,825.5C 525.833,825.5 525.5,825.167 525.5,824.5C 529.833,819.833 534.167,815.167 538.5,810.5C 539.167,810.5 539.5,810.167 539.5,809.5C 540.605,808.4 541.938,807.733 543.5,807.5 Z"/></g>
<g><path style="opacity:0.991" fill="#58595b" d="M 525.5,824.5 C 525.5,825.167 525.833,825.5 526.5,825.5C 567.228,844.533 607.895,863.533 648.5,882.5C 648.427,890.854 648.76,899.188 649.5,907.5C 651.891,943.808 653.891,980.142 655.5,1016.5C 616.299,1021.5 577.133,1026.84 538,1032.5C 536.564,1032.44 535.231,1032.11 534,1031.5C 510.561,982.955 487.394,934.288 464.5,885.5C 484.521,864.812 504.854,844.479 525.5,824.5 Z"/></g>
</svg>
