<?xml version="1.0" encoding="UTF-8"?>
<!DOCTYPE svg PUBLIC "-//W3C//DTD SVG 1.1//EN" "http://www.w3.org/Graphics/SVG/1.1/DTD/svg11.dtd">
<svg xmlns="http://www.w3.org/2000/svg" version="1.1" width="500px" height="500px" style="shape-rendering:geometricPrecision; text-rendering:geometricPrecision; image-rendering:optimizeQuality; fill-rule:evenodd; clip-rule:evenodd" xmlns:xlink="http://www.w3.org/1999/xlink">
<g><path style="opacity:0.956" fill="#fefffe" d="M -0.5,378.5 C -0.5,375.167 -0.5,371.833 -0.5,368.5C 8.59827,366.413 17.2649,363.246 25.5,359C 29.0479,353.406 32.2146,347.573 35,341.5C 65.3333,268.833 95.6667,196.167 126,123.5C 126.674,122.422 127.674,121.755 129,121.5C 134.783,120.149 140.616,119.649 146.5,120C 174.858,196.74 203.025,273.573 231,350.5C 233.136,354.629 235.969,358.129 239.5,361C 246.884,364.406 254.55,366.906 262.5,368.5C 263.376,371.799 263.543,375.132 263,378.5C 232,377.167 201,377.167 170,378.5C 169.39,375.173 168.89,371.839 168.5,368.5C 175.229,366.984 181.896,365.15 188.5,363C 191.383,361.568 192.717,359.235 192.5,356C 185.274,331.99 177.441,308.156 169,284.5C 139.9,283.172 110.733,283.172 81.5,284.5C 71.78,308.432 62.78,332.599 54.5,357C 55.4735,360.64 57.8068,362.974 61.5,364C 67.1002,365.812 72.7669,367.312 78.5,368.5C 78.5168,371.92 78.6835,375.254 79,378.5C 52.5,377.171 26,377.171 -0.5,378.5 Z M 127.5,169.5 C 139.24,201.547 150.907,233.713 162.5,266C 138.169,266.5 113.836,266.667 89.5,266.5C 101.773,234.016 114.439,201.682 127.5,169.5 Z"/></g>
<g><path style="opacity:0.967" fill="#fefffe" d="M 344.5,121.5 C 361.837,121.333 379.17,121.5 396.5,122C 416.076,123.046 432.909,130.212 447,143.5C 458.37,158.999 462.37,176.332 459,195.5C 455.629,216.865 444.462,232.698 425.5,243C 418.274,246.447 410.941,249.614 403.5,252.5C 423.166,285.169 443.333,317.503 464,349.5C 472.448,360.64 483.615,366.974 497.5,368.5C 497.5,371.833 497.5,375.167 497.5,378.5C 483.852,379.552 470.185,379.718 456.5,379C 443.108,376.607 432.608,369.774 425,358.5C 422.333,354.5 419.667,350.5 417,346.5C 402.091,319.009 386.424,292.009 370,265.5C 367.736,262.567 364.902,260.4 361.5,259C 354.533,258.003 347.533,257.503 340.5,257.5C 340.098,291.52 340.598,325.52 342,359.5C 342.374,360.416 342.874,361.25 343.5,362C 350.772,364.535 358.105,366.868 365.5,369C 366.617,372.073 366.784,375.24 366,378.5C 336.667,377.167 307.333,377.167 278,378.5C 277.39,375.173 276.89,371.839 276.5,368.5C 284.229,366.647 291.896,364.48 299.5,362C 300.931,361.535 302.097,360.701 303,359.5C 304.14,323.025 304.64,286.525 304.5,250C 304.64,213.475 304.14,176.975 303,140.5C 302.097,139.299 300.931,138.465 299.5,138C 292.178,135.725 284.845,133.559 277.5,131.5C 276.841,128.545 276.508,125.545 276.5,122.5C 299.339,122.831 322.006,122.497 344.5,121.5 Z M 345.5,137.5 C 358.546,137.123 371.546,137.623 384.5,139C 403.57,142.439 415.07,153.605 419,172.5C 422.486,189.877 420.486,206.544 413,222.5C 403.917,234.63 391.75,241.463 376.5,243C 364.505,243.5 352.505,243.667 340.5,243.5C 340.5,208.5 340.5,173.5 340.5,138.5C 342.415,138.784 344.081,138.451 345.5,137.5 Z"/></g>
</svg>
