<?xml version="1.0" encoding="UTF-8"?>
<!DOCTYPE svg PUBLIC "-//W3C//DTD SVG 1.1//EN" "http://www.w3.org/Graphics/SVG/1.1/DTD/svg11.dtd">
<svg xmlns="http://www.w3.org/2000/svg" version="1.1" width="512px" height="512px" style="shape-rendering:geometricPrecision; text-rendering:geometricPrecision; image-rendering:optimizeQuality; fill-rule:evenodd; clip-rule:evenodd" xmlns:xlink="http://www.w3.org/1999/xlink">
<g><path style="opacity:0.979" fill="#69737a" d="M 405.5,58.5 C 377.809,37.8345 347.809,34.0011 315.5,47C 283.887,62.7082 266.553,88.2082 263.5,123.5C 258.167,122.5 252.833,121.5 247.5,120.5C 247.5,109.167 247.5,97.8333 247.5,86.5C 253.866,85.3251 260.2,83.9918 266.5,82.5C 267.314,77.8661 268.981,73.5328 271.5,69.5C 267.484,63.7952 264.317,57.7952 262,51.5C 269.348,43.9854 276.848,36.6521 284.5,29.5C 290.331,32.5812 295.998,35.9145 301.5,39.5C 305.533,36.9809 309.866,35.3142 314.5,34.5C 315.992,28.1996 317.325,21.8663 318.5,15.5C 329.833,15.5 341.167,15.5 352.5,15.5C 353.675,21.8663 355.008,28.1996 356.5,34.5C 361.134,35.3142 365.467,36.9809 369.5,39.5C 375.002,35.9145 380.669,32.5812 386.5,29.5C 394.152,36.6521 401.652,43.9854 409,51.5C 408.915,54.3359 407.749,56.6693 405.5,58.5 Z"/></g>
<g><path style="opacity:1" fill="#90979c" d="M 405.5,58.5 C 403.779,62.2726 401.779,65.9392 399.5,69.5C 402.019,73.5328 403.686,77.8661 404.5,82.5C 410.835,83.834 417.168,85.1673 423.5,86.5C 423.5,97.8333 423.5,109.167 423.5,120.5C 417.134,121.675 410.8,123.008 404.5,124.5C 403.686,129.134 402.019,133.467 399.5,137.5C 403.516,143.205 406.683,149.205 409,155.5C 401.652,163.015 394.152,170.348 386.5,177.5C 380.669,174.419 375.002,171.085 369.5,167.5C 365.926,169.455 362.26,171.122 358.5,172.5C 356.846,171.25 355.179,169.916 353.5,168.5C 327.908,143.84 298.241,137.506 264.5,149.5C 266.806,145.517 269.139,141.517 271.5,137.5C 268.981,133.467 267.314,129.134 266.5,124.5C 265.209,124.737 264.209,124.404 263.5,123.5C 266.553,88.2082 283.887,62.7082 315.5,47C 347.809,34.0011 377.809,37.8345 405.5,58.5 Z"/></g>
<g><path style="opacity:1" fill="#c9cacc" d="M 365.5,77.5 C 341.875,65.8636 322.708,70.8636 308,92.5C 301.692,106.393 302.192,120.06 309.5,133.5C 298.583,123.256 294.083,110.59 296,95.5C 305.288,68.176 323.788,58.676 351.5,67C 357.13,69.3046 361.797,72.8046 365.5,77.5 Z"/></g>
<g><path style="opacity:1" fill="#e3e4e6" d="M 365.5,77.5 C 375.07,88.1249 377.904,100.458 374,114.5C 365.058,137.892 348.224,147.058 323.5,142C 318.155,140.129 313.489,137.296 309.5,133.5C 302.192,120.06 301.692,106.393 308,92.5C 322.708,70.8636 341.875,65.8636 365.5,77.5 Z"/></g>
<g><path style="opacity:0.977" fill="#f5b94c" d="M 171.5,98.5 C 166.682,96.2108 161.682,96.0441 156.5,98C 127.766,107.402 110.266,126.902 104,156.5C 101.835,179.198 108.001,199.198 122.5,216.5C 118.888,218.272 115.388,220.272 112,222.5C 104.167,214.667 96.3333,206.833 88.5,199C 90.5,195.667 92.5,192.333 94.5,189C 92.5987,186.03 91.0987,182.864 90,179.5C 86.7609,177.648 83.2609,176.648 79.5,176.5C 79.5,165.167 79.5,153.833 79.5,142.5C 82.9881,142.295 86.3214,141.461 89.5,140C 90.8953,136.543 92.5619,133.209 94.5,130C 92.5,126.667 90.5,123.333 88.5,120C 96.3333,112.167 104.167,104.333 112,96.5C 115.333,98.5 118.667,100.5 122,102.5C 124.97,100.599 128.136,99.0987 131.5,98C 133.352,94.7609 134.352,91.2609 134.5,87.5C 145.833,87.5 157.167,87.5 168.5,87.5C 168.726,91.4069 169.726,95.0735 171.5,98.5 Z"/></g>
<g><path style="opacity:1" fill="#f8d060" d="M 171.5,98.5 C 174.937,99.1338 178.104,100.467 181,102.5C 184.333,100.5 187.667,98.5 191,96.5C 198.833,104.333 206.667,112.167 214.5,120C 212.5,123.333 210.5,126.667 208.5,130C 210.401,132.97 211.901,136.136 213,139.5C 216.239,141.352 219.739,142.352 223.5,142.5C 223.828,154.012 223.495,165.346 222.5,176.5C 196.258,171.716 175.424,180.049 160,201.5C 155.594,208.219 153.094,215.552 152.5,223.5C 146.082,223.442 139.748,224.108 133.5,225.5C 133.249,223.83 132.582,222.33 131.5,221C 128.16,219.997 125.16,218.497 122.5,216.5C 108.001,199.198 101.835,179.198 104,156.5C 110.266,126.902 127.766,107.402 156.5,98C 161.682,96.0441 166.682,96.2108 171.5,98.5 Z"/></g>
<g><path style="opacity:1" fill="#48555b" d="M 144.5,128.5 C 145.552,128.351 146.552,128.517 147.5,129C 132.192,136.779 125.692,149.279 128,166.5C 130.871,177.442 137.371,185.275 147.5,190C 146.552,190.483 145.552,190.649 144.5,190.5C 128.548,185.985 120.215,175.318 119.5,158.5C 120.793,142.556 129.126,132.556 144.5,128.5 Z"/></g>
<g><path style="opacity:1" fill="#697379" d="M 144.5,128.5 C 168.159,125.185 181.159,135.518 183.5,159.5C 182.693,176.125 174.36,186.625 158.5,191C 153.648,191.815 148.981,191.648 144.5,190.5C 145.552,190.649 146.552,190.483 147.5,190C 137.371,185.275 130.871,177.442 128,166.5C 125.692,149.279 132.192,136.779 147.5,129C 146.552,128.517 145.552,128.351 144.5,128.5 Z"/></g>
<g><path style="opacity:0.994" fill="#50bae2" d="M 353.5,168.5 C 318.126,163.239 289.626,174.906 268,203.5C 241.56,194.649 219.56,200.982 202,222.5C 196.578,230.006 193.411,238.339 192.5,247.5C 158.333,249.835 139.333,268.001 135.5,302C 135.773,313.926 138.773,325.092 144.5,335.5C 118.646,330.841 102.479,315.841 96,290.5C 92.4713,259.273 104.971,237.606 133.5,225.5C 139.748,224.108 146.082,223.442 152.5,223.5C 153.094,215.552 155.594,208.219 160,201.5C 175.424,180.049 196.258,171.716 222.5,176.5C 224.6,178.273 226.934,178.606 229.5,177.5C 238.247,164.41 249.913,155.077 264.5,149.5C 298.241,137.506 327.908,143.84 353.5,168.5 Z"/></g>
<g><path style="opacity:1" fill="#6dc4e6" d="M 353.5,168.5 C 355.179,169.916 356.846,171.25 358.5,172.5C 370.063,188.188 376.063,205.855 376.5,225.5C 397.594,232.428 410.427,246.761 415,268.5C 418.4,303.066 403.567,325.233 370.5,335C 356.171,335.5 341.837,335.667 327.5,335.5C 322.167,335.5 316.833,335.5 311.5,335.5C 306.167,335.5 300.833,335.5 295.5,335.5C 290.167,335.5 284.833,335.5 279.5,335.5C 274.167,335.5 268.833,335.5 263.5,335.5C 258.167,335.5 252.833,335.5 247.5,335.5C 242.167,335.5 236.833,335.5 231.5,335.5C 226.167,335.5 220.833,335.5 215.5,335.5C 210.167,335.5 204.833,335.5 199.5,335.5C 194.167,335.5 188.833,335.5 183.5,335.5C 170.5,335.5 157.5,335.5 144.5,335.5C 138.773,325.092 135.773,313.926 135.5,302C 139.333,268.001 158.333,249.835 192.5,247.5C 193.411,238.339 196.578,230.006 202,222.5C 219.56,200.982 241.56,194.649 268,203.5C 289.626,174.906 318.126,163.239 353.5,168.5 Z"/></g>
<g><path style="opacity:0.986" fill="#498f47" d="M 183.5,335.5 C 188.833,335.5 194.167,335.5 199.5,335.5C 199.667,351.17 199.5,366.837 199,382.5C 196.167,390.667 190.667,396.167 182.5,399C 163.491,399.167 144.491,399.667 125.5,400.5C 122.182,405.492 117.515,407.826 111.5,407.5C 101.139,406.974 95.4724,401.474 94.5,391C 97.0275,378.231 104.694,373.231 117.5,376C 120.916,377.25 123.583,379.417 125.5,382.5C 142.157,383.666 158.823,383.833 175.5,383C 180,382.5 182.5,380 183,375.5C 183.5,362.171 183.667,348.837 183.5,335.5 Z"/></g>
<g><path style="opacity:0.987" fill="#498f47" d="M 215.5,335.5 C 220.833,335.5 226.167,335.5 231.5,335.5C 231.667,362.169 231.5,388.835 231,415.5C 227.833,428 220,435.833 207.5,439C 174.828,439.167 142.162,439.667 109.5,440.5C 106.182,445.492 101.515,447.826 95.5,447.5C 85.3641,447.033 79.6974,441.7 78.5,431.5C 80.725,418.381 88.3917,413.214 101.5,416C 104.916,417.25 107.583,419.417 109.5,422.5C 139.494,423.667 169.494,423.833 199.5,423C 208.667,421.833 213.833,416.667 215,407.5C 215.5,383.502 215.667,359.502 215.5,335.5 Z"/></g>
<g><path style="opacity:0.988" fill="#498f47" d="M 247.5,335.5 C 252.833,335.5 258.167,335.5 263.5,335.5C 263.333,375.501 263.5,415.501 264,455.5C 265.5,469.667 273.333,477.5 287.5,479C 304.177,479.833 320.843,479.666 337.5,478.5C 342.593,471.886 349.259,469.719 357.5,472C 368.06,478.133 370.56,486.633 365,497.5C 359.681,503.167 353.181,505.001 345.5,503C 342.084,501.75 339.417,499.583 337.5,496.5C 316.458,495.955 295.458,495.121 274.5,494C 260.394,488.894 251.56,479.061 248,464.5C 247.5,421.501 247.333,378.501 247.5,335.5 Z"/></g>
<g><path style="opacity:0.99" fill="#498f47" d="M 279.5,335.5 C 284.833,335.5 290.167,335.5 295.5,335.5C 295.333,364.835 295.5,394.169 296,423.5C 297.167,432.667 302.333,437.833 311.5,439C 336.173,439.833 360.84,439.666 385.5,438.5C 390.593,431.886 397.259,429.719 405.5,432C 416.06,438.133 418.56,446.633 413,457.5C 407.681,463.167 401.181,465.001 393.5,463C 390.084,461.75 387.417,459.583 385.5,456.5C 358.173,455.667 330.839,455.167 303.5,455C 291,451.833 283.167,444 280,431.5C 279.5,399.502 279.333,367.502 279.5,335.5 Z"/></g>
<g><path style="opacity:0.988" fill="#498f47" d="M 311.5,335.5 C 316.833,335.5 322.167,335.5 327.5,335.5C 327.333,348.837 327.5,362.171 328,375.5C 328.5,380 331,382.5 335.5,383C 360.173,383.833 384.84,383.666 409.5,382.5C 414.593,375.886 421.259,373.719 429.5,376C 440.06,382.133 442.56,390.633 437,401.5C 431.681,407.167 425.181,409.001 417.5,407C 414.084,405.75 411.417,403.583 409.5,400.5C 382.506,399.667 355.506,399.167 328.5,399C 320.333,396.167 314.833,390.667 312,382.5C 311.5,366.837 311.333,351.17 311.5,335.5 Z"/></g>
</svg>
